<svg viewBox="0 0 25 24">
<g clip-path="url(#clip0_180_174)">
<path d="M12.506 0C5.87862 0 0.505981 5.37264 0.505981 12C0.505981 17.6275 4.38054 22.3498 9.60726 23.6467V15.6672H7.13286V12H9.60726V10.4198C9.60726 6.33552 11.4557 4.4424 15.4657 4.4424C16.226 4.4424 17.5378 4.59168 18.0745 4.74048V8.06448C17.7913 8.03472 17.2993 8.01984 16.6882 8.01984C14.7207 8.01984 13.9604 8.76528 13.9604 10.703V12H17.8801L17.2066 15.6672H13.9604V23.9122C19.9023 23.1946 24.5065 18.1354 24.5065 12C24.506 5.37264 19.1333 0 12.506 0Z" />
</g>
<defs>
<clipPath id="clip0_180_174">
<rect width="24" height="24"  transform="translate(0.505981)"/>
</clipPath>
</defs>
</svg>
