<svg viewBox="0 0 24 24">
  <path d="M22.5,7.1c-.3-.2-.7-.1-1,0l-5.4,3.9v-3.1c0-.4-.2-.7-.5-.9-.3-.2-.7-.1-1,0l-5.4,3.9V4c0-1.7-1.3-3-3-3h-2c-1.7,0-3,1.3-3,3v16c0,1.7,1.3,3,3,3h16c1.7,0,3-1.3,3-3V8c0-.4-.2-.7-.5-.9ZM21,20c0,.6-.4,1-1,1H4c-.6,0-1-.4-1-1V4c0-.6.4-1,1-1h2c.6,0,1,.4,1,1v9c0,.4.2.7.5.9.3.2.7.1,1,0l5.4-3.9v3.1c0,.4.2.7.5.9.3.2.7.1,1,0l5.4-3.9v10.1Z"/>
  <path d="M17,19h1c.6,0,1-.4,1-1s-.4-1-1-1h-1c-.6,0-1,.4-1,1s.4,1,1,1Z"/>
  <path d="M13,17h-1c-.6,0-1,.4-1,1s.4,1,1,1h1c.6,0,1-.4,1-1s-.4-1-1-1Z"/>
  <path d="M8,17h-1c-.6,0-1,.4-1,1s.4,1,1,1h1c.6,0,1-.4,1-1s-.4-1-1-1Z"/>
</svg>