<svg viewBox="0 0 800 800">
  <path d="M466.67,333.33v133.33h-133.33v-133.33h133.33ZM533.33,333.33h166.67v133.33h-166.67v-133.33ZM466.67,700h-133.33v-166.67h133.33v166.67ZM533.33,700v-166.67h166.67v133.33c0,18.41-14.92,33.33-33.33,33.33h-133.33ZM466.67,100v166.67h-133.33V100h133.33ZM533.33,100h133.33c18.41,0,33.33,14.92,33.33,33.33v133.33h-166.67V100ZM266.67,333.33v133.33H100v-133.33h166.67ZM266.67,700h-133.33c-18.41,0-33.33-14.92-33.33-33.33v-133.33h166.67v166.67ZM266.67,100v166.67H100v-133.33c0-18.41,14.92-33.33,33.33-33.33h133.33Z"/>
</svg>