<svg viewBox="0 0 25 24">
<g clip-path="url(#clip0_180_181)">
<path d="M12.506 2.16094C15.7122 2.16094 16.0919 2.175 17.3529 2.23125C18.5247 2.28281 19.1575 2.47969 19.5794 2.64375C20.1372 2.85938 20.5404 3.12188 20.9575 3.53906C21.3794 3.96094 21.6372 4.35938 21.8529 4.91719C22.0169 5.33906 22.2138 5.97656 22.2654 7.14375C22.3216 8.40937 22.3357 8.78906 22.3357 11.9906C22.3357 15.1969 22.3216 15.5766 22.2654 16.8375C22.2138 18.0094 22.0169 18.6422 21.8529 19.0641C21.6372 19.6219 21.3747 20.025 20.9575 20.4422C20.5357 20.8641 20.1372 21.1219 19.5794 21.3375C19.1575 21.5016 18.52 21.6984 17.3529 21.75C16.0872 21.8062 15.7075 21.8203 12.506 21.8203C9.29973 21.8203 8.92004 21.8062 7.65911 21.75C6.48723 21.6984 5.85442 21.5016 5.43254 21.3375C4.87473 21.1219 4.47161 20.8594 4.05442 20.4422C3.63254 20.0203 3.37473 19.6219 3.15911 19.0641C2.99504 18.6422 2.79817 18.0047 2.74661 16.8375C2.69036 15.5719 2.67629 15.1922 2.67629 11.9906C2.67629 8.78438 2.69036 8.40469 2.74661 7.14375C2.79817 5.97187 2.99504 5.33906 3.15911 4.91719C3.37473 4.35938 3.63723 3.95625 4.05442 3.53906C4.47629 3.11719 4.87473 2.85938 5.43254 2.64375C5.85442 2.47969 6.49192 2.28281 7.65911 2.23125C8.92004 2.175 9.29973 2.16094 12.506 2.16094ZM12.506 0C9.24817 0 8.84036 0.0140625 7.56067 0.0703125C6.28567 0.126563 5.40911 0.332812 4.64973 0.628125C3.85754 0.9375 3.18723 1.34531 2.52161 2.01562C1.85129 2.68125 1.44348 3.35156 1.13411 4.13906C0.838794 4.90313 0.632544 5.775 0.576294 7.05C0.520044 8.33437 0.505981 8.74219 0.505981 12C0.505981 15.2578 0.520044 15.6656 0.576294 16.9453C0.632544 18.2203 0.838794 19.0969 1.13411 19.8563C1.44348 20.6484 1.85129 21.3188 2.52161 21.9844C3.18723 22.65 3.85754 23.0625 4.64504 23.3672C5.40911 23.6625 6.28098 23.8687 7.55598 23.925C8.83567 23.9812 9.24348 23.9953 12.5013 23.9953C15.7591 23.9953 16.1669 23.9812 17.4466 23.925C18.7216 23.8687 19.5982 23.6625 20.3575 23.3672C21.145 23.0625 21.8154 22.65 22.481 21.9844C23.1466 21.3188 23.5591 20.6484 23.8638 19.8609C24.1591 19.0969 24.3654 18.225 24.4216 16.95C24.4779 15.6703 24.4919 15.2625 24.4919 12.0047C24.4919 8.74688 24.4779 8.33906 24.4216 7.05938C24.3654 5.78438 24.1591 4.90781 23.8638 4.14844C23.5685 3.35156 23.1607 2.68125 22.4904 2.01562C21.8247 1.35 21.1544 0.9375 20.3669 0.632812C19.6029 0.3375 18.731 0.13125 17.456 0.075C16.1716 0.0140625 15.7638 0 12.506 0Z"/>
<path d="M12.506 5.83594C9.10286 5.83594 6.34192 8.59688 6.34192 12C6.34192 15.4031 9.10286 18.1641 12.506 18.1641C15.9091 18.1641 18.67 15.4031 18.67 12C18.67 8.59688 15.9091 5.83594 12.506 5.83594ZM12.506 15.9984C10.2982 15.9984 8.50754 14.2078 8.50754 12C8.50754 9.79219 10.2982 8.00156 12.506 8.00156C14.7138 8.00156 16.5044 9.79219 16.5044 12C16.5044 14.2078 14.7138 15.9984 12.506 15.9984Z"/>
<path d="M20.3529 5.59238C20.3529 6.38926 19.706 7.03145 18.9138 7.03145C18.1169 7.03145 17.4747 6.38457 17.4747 5.59238C17.4747 4.79551 18.1216 4.15332 18.9138 4.15332C19.706 4.15332 20.3529 4.8002 20.3529 5.59238Z"/>
</g>
<defs>
<clipPath id="clip0_180_181">
<rect width="24" height="24" transform="translate(0.505981)"/>
</clipPath>
</defs>
</svg>
