<svg viewBox="0 0 24 24">  
  <path d="M17,1H7C3.7,1,1,3.7,1,7v10c0,3.3,2.7,6,6,6h10c3.3,0,6-2.7,6-6V7c0-3.3-2.7-6-6-6ZM21,17c0,2.2-1.8,4-4,4H7c-2.2,0-4-1.8-4-4V7c0-2.2,1.8-4,4-4h10c2.2,0,4,1.8,4,4v10Z"/>
  <path d="M12.8,7c-.5,0-1,0-1.5,0-2.7.4-4.6,3-4.2,5.7.2,1.3.9,2.5,2,3.3.9.6,1.9,1,3,1s.5,0,.7,0c1.3-.2,2.5-.9,3.3-2,.8-1.1,1.1-2.4.9-3.7-.3-2.2-2-3.9-4.2-4.2ZM14.5,13.7c-.5.6-1.2,1.1-2,1.2-.8.1-1.6,0-2.2-.6s-1.1-1.2-1.2-2c-.2-1.6.9-3.2,2.5-3.4.1,0,.3,0,.4,0s.3,0,.4,0c1.3.2,2.3,1.2,2.5,2.5.1.8,0,1.6-.6,2.2Z"/>
  <path d="M17.5,5.5h0c-.6,0-1,.4-1,1s.5,1,1,1,1-.4,1-1-.4-1-1-1Z"/>
</svg>