<svg viewBox="0 0 316 316"> 
  <path d="M199.3,106.3c-7.6,3.9-12.6,11.6-14.2,19.4-2.8,13-2.1,28.4,7.9,38.1,11.7,10.2,28.6,12.5,43.7,8.3.7-.1,3-.7,4.6-1.5l.4-.2c4.7-1.9,9.2-5.1,12.5-9.4,7.8-11.3,8.3-28.2,3.6-40.8-1.9-4.9-5.7-9.3-10.4-12.5-13.5-8.6-34.1-9.2-48.1-1.4ZM232.1,122.4c1.6,2.3,1.5,5.4,1.8,8.2-.1,5.8.4,12.8-.7,18.7-.5,2.5-2.2,5-4.8,5.9-4.2,1.8-9.8,1.3-13.6-.8-3.2-2.3-3.6-6-4.1-9.6-.3-7.1-.8-14.5,1.2-21,1.5-4,5.8-5,9.7-5.3,4.1,0,8,.6,10.5,3.9Z"/>
  <path d="M109.9,155.7c-3.4-.2-7.3.1-10.6-.3l.1-35.9.2-.3,10.3-.1c.1-5.8.2-12.1-.1-17.4l-39.2-.1-6.5.1c-.1,5.4-.1,11.8,0,17.3,3.5.1,6.9,0,10.3.3v34.8l-.1,1.4-10.3.2c-.2,5.7-.2,11.2,0,16.9h45.9v-16.9Z"/>
  <path d="M225.4,180.2c-4.4,6.2-9.9,12.3-15.9,17-.2.3-.8.2-1-.1-2.6-1.6-5.4-3-7.9-4.6,3.3-4,6.6-8,9.1-12.4h-3.2c-2.6,3.8-5.3,7.8-8.7,11.2-4.6-1.8-8.7-3.5-13.4-4.7l-.5-.4c.7-2.1,2.1-4,2.5-6.1h-2.8l-2.8,5.5c-6.1-1.3-12.9-2-19.2-2.5-.3-.9.1-2.2-.3-3.1h-2.7c-.2,1.2.3,2.2-.3,3.2-6.5.3-12.7,1-18.7,2.3l-2.8-5.4c-1,0-2.2-.2-2.9.1l2.6,6-.3.3c-4.7,1.3-9.3,3-13.7,4.8l-.4-.2c-2.9-3.2-5.7-6.6-8-10.1-.5-1.7-2.6-.7-3.7-.9,2.5,4.5,5.8,8.5,9.2,12.6-2.8,1.6-5.6,3.5-8.5,4.8-6.2-4.7-12.1-10.8-16.4-17.3-1.3-.2-2.1-.1-3.3,0,7.5,11.7,19.2,21.9,31.3,27.9,0,0,0-.1.1-.1s.3.2.1.3c8.2,4,17,6.9,26.2,8.1,32,4.2,62.5-9.4,80.2-36.2-1.5-.1-2.8-.1-3.9,0ZM182,189.4l.3-.2c4.5,1,8.7,2.5,12.7,4.4-3.3,3.8-7.6,7.1-11.6,9.8-2.4,1.4-4.8,3-7.3,4.2l-4.5-1.9.3-.7c3.9-5,7.2-10.2,10.1-15.6ZM161.5,186.3c5.9.1,11.9.7,17.4,2l.1.3c-2.9,5.5-6.6,10.8-10.5,15.9-1.8.2-3.4-.5-5.2-.6l-1.8-.2c-.2-6-.3-11.3,0-17.4ZM141.4,188.2c5.4-1,11-1.8,16.9-1.8l.1,17.3c-2.2.5-4.6.5-6.7,1-4.3-5-7.8-10.5-10.8-16.1l.5-.4ZM124.6,193.7h.1c4.1-2,8.3-3.4,12.7-4.5l.4.1c3,5.6,6.8,10.9,10.5,16.3-1.5.8-3.2,1.3-4.7,2.1-6.9-3.4-13.4-8.1-19-13.7v-.3ZM138.1,211.2c-8.7-2.3-16.9-6.1-24.4-11.5v-.3c2.5-1.5,5-3.2,7.7-4.3,5.9,5.8,12.1,10.2,18.7,14.4-.4.7-1.3,1.3-2,1.7ZM176.7,212.5c-11,2.4-23.3,2.5-34.4-.2-.2-.5.5-.6.8-.9,9.7-6.2,24.8-6.2,34.3.5.4.6-.5.4-.7.6ZM186.7,209.7l-4.9,1.5c-.8-.4-1.6-1-2.3-1.6l.2-.3c6.7-3.9,12.7-8.6,18.4-14.2,2.8,1.1,5.5,2.7,8,4.4-5.7,4.6-12.5,7.6-19.4,10.2Z"/>
  <path d="M94,93.8c2.5-3.5,5.3-6.9,8.4-10.1,2.7-2.6,5.2-5,8.1-6.9,2.7,1.7,5.7,3.2,8.3,4.8-3.2,4-6.6,8-9,12.3.7.3,2.1.2,3.1,0,2.6-3.8,5.4-7.6,8.7-10.9,4.5,1.6,8.8,3.4,13.4,4.6l.4.4-2.6,5.9c1.2.2,1.9.1,3,0,.9-1.7,1.7-3.7,2.7-5.4,6,1.3,12.4,2,18.9,2.2.8.7.2,2.3.5,3.2h2.8c.3-1-.1-2.1.3-3.1,6-.3,12.4-.9,18.2-2.4l.5.1,2.8,5.3c.9,0,2.2.2,2.9-.2l-2.6-5.9.2-.2c4.8-1.2,9.3-3.1,13.8-4.9,3.2,3.4,6.2,7.4,9,11.2,1.1,0,2.3.1,3.1-.2-1.3-2.2-2.8-4.5-4.5-6.4-1.4-1.9-2.8-3.7-4.6-5.5v-.5l7.3-4.2,1.1-.4c6.3,4.8,12,10.6,16.4,17.1,1.3,0,2.3.4,3.3-.1-14-20.9-37-34.3-61.8-36.2l-.1.2-.2-.2c-2.8-.3-6.3-.4-9.3-.1-1.1-.1-2.5,0-3.9.1-25,1.9-48,14.7-62.4,36.5,1.5-.1,2.7.3,3.8-.1ZM137.2,84.8l-.4.1c-4.3-1.1-8.4-2.5-12.4-4.2l.2-.6c5.7-5.4,11.8-9.9,18.4-13.4,1.6.6,3.1,1.1,4.7,1.8l-.3.8c-4,4.9-7.1,10.2-10.2,15.5ZM157.9,87.5c-2.9.4-5.5-.1-8.4-.3-2.8-.4-6.3-.7-9.2-1.6,3-5.6,6.6-11,10.8-16l6.7.9c.3,5.3.1,11.4.1,17ZM161.1,87.6c-.2-5.4-.1-11.5,0-17.1,2.1-.3,4.4-.6,6.5-.9,4.1,5.1,8,10.3,10.7,15.9-5.6,1.4-11.4,2.1-17.2,2.1ZM194.3,80.5c-4.1,1.7-8.2,3.4-12.7,4.3-3.2-5.4-6.8-10.8-10.7-16.1,1.5-.8,3.2-1.4,4.8-2.2,6.8,3.4,13.3,8.2,18.8,13.7l-.2.3ZM181,63c8.7,2.3,17,6.1,24.5,11.5l-.2.4-7.2,4h-.5c-5.5-5.5-12-10.3-18.5-14.1.1-.8,1.2-1.3,1.9-1.8ZM176.8,62v.2c-9.1,6.5-23.7,7.2-33.3,1.1-.5-.4-1.6-.6-1.7-1.3,11.1-2.6,24.1-2.8,35,0ZM134.9,63.8c.3-.3.5-.6.9-.6v.2c.8.2,1.5-.7,2.2-.1.6.5,1.4.9,1.9,1.4-6.5,4-12.8,8.7-18.6,14.4-2.8-1-5.4-2.5-7.9-4.3v-.2h-.1c6.6-4.8,13.8-8.4,21.6-10.8Z"/>
  <path d="M158,156.5c-9.8,2.7-20.4.6-27.5-6.7-.8-1-1.4-2.2-2.2-3.3l-14,.1c-.2,8.3-.3,17.8,0,26l15.6-.1.2-4.9c1.8.8,3.5,1.8,5.3,2.8,10.8,4.5,24.8,5.5,35.5,0,7.8-4.3,12-12.6,10.8-21.5-1.1-8.7-9.5-16.6-17.9-18.7l-25.2-7.3-1.9-.9c-.8-.7-1.4-1.6-1.2-2.8,2-3.4,6.6-2.3,10-2.3,7.3,1,14.8,3.5,19.1,10.1,4.6,0,9.9.1,14.9-.1.2-8.4-.1-15.7-.2-24.2-4.7-.1-10.4-.1-15.1.1-.2,1.2.2,2.9-.3,4.2l-4.8-2.6c-11.5-4.8-27.5-5.3-37.9,2.2-6.8,4.9-8.8,13.7-7.1,21.5,1.4,7.4,8.4,12.8,15.2,15.3,9.3,3.3,18.9,5.6,28.3,8.8.9.4,2.2,1.3,2,2.5.1.8-.9,1.4-1.6,1.8Z"/>
  <path d="M124.7,224.1c-6.4,0-10.8,4.9-10.8,10.6s3.8,9.3,9,9.3c2.9,0,5-1,6.5-2.7h.1c-.5,2.8-1.9,5-3.8,6.6-1.7,1.3-3.9,2.1-6.1,2.3-1.4.1-2.2.2-3.1.1v4.6c.8,0,2.1,0,3.4-.1,4-.3,7.6-1.7,10.2-4.1,3.1-3,5.2-7.5,5.2-13.9,0-7.2-3.7-12.7-10.6-12.7ZM129.2,237.3c-.9,1.4-2.5,2.5-4.8,2.5-3.1,0-4.9-2.4-4.9-5.5,0-3.6,2-6.1,4.9-6.1,3.6,0,5.1,3.5,5.1,7.5,0,.8-.1,1.2-.3,1.6Z"/>
  <polygon points="116.5 250.3 116.5 250.3 116.5 250.3 116.5 250.3"/>
  <path d="M149.3,224c-7,0-10.9,6.2-10.9,15.5s3.7,15.3,10.6,15.3,10.9-6,10.9-15.6c0-8.8-3.3-15.2-10.6-15.2ZM149.2,250.5c-3.1,0-5.1-3.7-5.1-11s2.1-11.2,5.1-11.2c3.3,0,5,4.1,5,11s-1.7,11.2-5,11.2Z"/>
  <path d="M173.9,224c-7,0-10.9,6.2-10.9,15.5s3.7,15.3,10.6,15.3,10.9-6,10.9-15.6c0-8.8-3.3-15.2-10.6-15.2ZM173.8,250.5c-3.1,0-5.1-3.7-5.1-11s2.1-11.2,5.1-11.2c3.3,0,5,4.1,5,11s-1.7,11.2-5,11.2Z"/>
  <polygon points="190.3 228.1 191.3 232.4 196.8 229.65 196.8 254.3 202.3 254.3 202.3 224.5 197.6 224.5 190.3 228.1"/>
  <path d="M158,39.1c-65.6,0-118.9,53.4-118.9,119s53.3,118.9,118.9,118.9,118.9-53.4,118.9-119-53.3-118.9-118.9-118.9ZM158,273.4c-63.6,0-115.3-51.8-115.3-115.4s51.7-115.3,115.3-115.3,115.3,51.8,115.3,115.4-51.7,115.3-115.3,115.3Z"/>
  <path d="M158,0C70.9,0,0,70.9,0,158s70.9,158,158,158,158-70.9,158-158S245.1,0,158,0ZM158,312.3C72.9,312.3,3.7,243.2,3.7,158.1S72.9,3.8,158,3.8s154.3,69.1,154.3,154.2-69.2,154.3-154.3,154.3Z"/>
  <path d="M46.6,96.7c.8-1.5,1.2-3,1.2-4.5l2.6-.8-.8-2.5-2.4.8c-.9-2-2.3-3.5-4.4-4.6-1.1-.7-2.3-1.1-3.6-1.3-3.7-.6-6.4.8-8.3,4.1-1.2,2.1-1.5,4.1-.9,6,.7,2.4,2.3,4.2,4.7,5.6,1.1.6,2.3,1,3.6,1.2,3.7.6,6.4-.7,8.3-4ZM36.4,96.5c-1.5-.8-2.5-1.8-3-3-.6-1.3-.5-2.7.3-4.1.8-1.4,1.9-2.2,3.4-2.4,1.3-.2,2.7.2,4.2,1,1.3.7,2.2,1.6,2.8,2.6l-2.6.8.8,2.5,2.3-.7c-.1.7-.3,1.3-.6,1.9-.8,1.4-1.9,2.2-3.4,2.4-1.3.2-2.7-.2-4.2-1Z"/>
  <path d="M52.3,86.4c.8-.3,1.6-1,2.4-2.1.7-1.2.7-2.5.2-3.8l1.3.9,1.9-2.6-10.3-7.6-1.8,2.6,6.6,4.9c1.1.8,1.2,1.8.3,3.2-.6,1-1.2,1.4-1.9,1.3-.4-.1-.9-.3-1.6-.8l-6.4-4.7-1.9,2.6,7.1,5.3c1.5,1.1,2.8,1.4,4.1.8Z"/>
  <path d="M55.3,69c-1-.9-1-1.9-.1-3,.4-.4.7-.7,1.1-.9.5-.2,1-.2,1.3.1.6.5.7,1,.5,1.6-.4.9-1,1.9-1.8,2.8-1.3,2-1.1,3.8.5,5.4,1.8,1.9,3.7,1.8,5.5-.2.9-1,1.3-2.4,1.3-4.2.4.4.8.6,1.2.6l2.3-2.6-.3-.2c-.6,0-1.2-.1-1.6-.5l-5.1-4.7c-2-1.8-4.2-1.4-6.6,1.2-2.4,2.6-2.5,4.9-.3,6.9l2.1-2.3ZM58.6,70c.3-.4.5-.7.8-1.1.4-.5.6-1,.7-1.5l.5.5c1.3,1.2,1.5,2.5.7,3.7-.1.2-.3.3-.4.5-.3.4-.7.6-1.1.6-.4.1-.7-.1-1.1-.4-.3-.3-.5-.6-.5-1s.1-.9.4-1.3Z"/>
  <polygon points="71 65.1 59.2 52.6 56.8 54.8 68.6 67.3 71 65.1"/>
  <polygon points="66.6 50.1 64.7 47.8 62.2 49.9 64.1 52.2 66.6 50.1"/>
  <polygon points="73.3 63 75.8 60.9 67.5 51.2 65 53.3 73.3 63"/>
  <path d="M69.6,49.8l1.3,1.6,1.3-1,5,6.6c1.3,1.3,2.8,1.3,4.4-.1.4-.3.8-.7,1.1-1.2l-1.4-1.8-1,.8c-.3.3-.7.1-1.1-.5l-4.4-5.7,1.5-1.1-1.3-1.7-1.5,1.1-2.1-2.8-2.6,2,2.1,2.8-1.3,1Z"/>
  <path d="M87.3,53.2c.6,1.1.3,2-1,2.8-.1.1-.2.2-.4.3l1.5,2.3c1.9-1.3,2.9-2.3,3.1-3.1.1-.7.1-1.3-.1-1.9l-3.8-15.9-2.9,1.8,2.8,9.2-7.3-6.3-3.1,2,10.7,8.3c.2.1.4.3.5.5Z"/>
  <polygon points="103.5 43.3 98.1 30.5 106.3 42.1 109.6 40.7 107 26.8 112.4 39.6 115.7 38.2 109.1 22.4 104.3 24.4 106.4 37.8 98.4 26.9 93.6 28.9 100.2 44.7 103.5 43.3"/>
  <path d="M118.1,28.7c-.3-1.3.2-2.2,1.5-2.6.5-.2,1-.2,1.4-.2.5,0,.9.3,1,.7.2.7.1,1.2-.4,1.6-.8.5-1.8,1-3,1.4-2.2,1.1-3,2.7-2.5,4.9.6,2.6,2.2,3.5,4.8,2.8,1.4-.3,2.5-1.3,3.4-2.8.1.5.4.8.7,1.1l3.4-.9-.3-.4c-.6-.3-.9-.8-1.1-1.3l-1.8-6.7c-.7-2.6-2.8-3.4-6.2-2.5-3.4.9-4.7,2.8-3.9,5.7l3-.8ZM123.3,30.6c.5,1.7,0,2.9-1.4,3.6-.2.1-.4.1-.6.2-.5.1-.9.1-1.3-.1-.3-.2-.6-.5-.7-1-.1-.4-.1-.7.1-1.1.2-.4.5-.7,1-.9.4-.2.9-.3,1.3-.5.6-.3,1.1-.6,1.4-.9l.2.7Z"/>
  <path d="M133.4,33.5l-1.4-8c-.2-1.3.4-2.1,2-2.5,1-.2,1.8-.1,2.2.4.3.2.5.8.6,1.6l1.3,7.7,3.2-.6-1.4-8.4c-.5-2.9-2.4-4.1-5.6-3.5-1.4.3-2.3,1.2-2.8,2.7l-.3-1.9-3.2.6,2.2,12.6,3.2-.7Z"/>
  <path d="M149.7,23.6c-1,.4-2.1.7-3.3.8-2.3.6-3.5,2-3.4,4.3,0,2.6,1.4,3.9,4.1,3.7,1.3-.1,2.6-.8,3.8-2.1,0,.5.1.9.4,1.2l3.5-.2.1-.4c-.5-.5-.8-.9-.8-1.5l-.5-7c-.2-2.7-2.1-3.9-5.6-3.7s-5.2,1.8-5,4.8l3.1-.2c0-1.3.6-2,2-2.2.5,0,1,0,1.4.1.6.1.9.4.9.9.1.8-.1,1.3-.7,1.5ZM150.6,25.6v.7c.2,1.8-.5,2.9-2.2,3.3-.2.1-.4.1-.6.1-.5.1-.9,0-1.2-.3-.3-.2-.5-.6-.5-1.1,0-.4.1-.8.4-1.1.3-.4.7-.6,1.2-.7.5-.1.9-.2,1.4-.3.6-.1,1.1-.3,1.5-.6Z"/>
  <path d="M157.5,35.6c.9.6,1.9,1,3,1.1,2.2.2,4-.1,5.2-.8,1.4-.9,2.1-2.1,2.2-3.8l.5-13.1-3.1-.1v2.1c-.7-.9-1.1-1.4-1.2-1.5-.5-.5-1.2-.7-2.1-.8-1.3-.1-2.5.3-3.6,1.4-1.3,1.2-2,3-2.1,5.4-.1,2.1.4,3.9,1.5,5.1.5.6,1,1,1.6,1.2.5.2,1.2.4,2,.4.8.1,1.4-.1,2-.4.4-.2.9-.6,1.5-1.3l-.1,1.8c0,.7-.3,1.2-.9,1.7-.6.4-1.3.6-2,.6-.1,0-.2-.1-.4-.1-1.3-.3-2-.8-1.9-1.5l-3.5-.1c-.1,1,.3,1.9,1.4,2.7ZM164.3,28.2c-.6.8-1.3,1.2-2.3,1.2-1-.1-1.7-.5-2.2-1.4-.5-.8-.6-1.7-.6-2.7.1-1,.3-1.9.8-2.6.6-.8,1.3-1.2,2.3-1.2.9.1,1.7.5,2.2,1.4.5.8.6,1.7.6,2.7-.1,1-.3,1.9-.8,2.6Z"/>
  <path d="M172,31.6c.9.9,2,1.4,3.3,1.6,1.2.2,2.4,0,3.7-.6,1.3-.6,2.2-1.5,2.6-2.6l-3.2-.5c-.1.5-.5.8-1.1,1-.5.2-1,.3-1.5.2-.9-.1-1.6-.6-2-1.5-.3-.6-.3-1.3-.1-2.1l8.4,1.2c.1-.4.1-.7,0-1,.2-1.6.1-3-.5-4.3-.8-1.8-2.2-2.9-4.4-3.2-3.2-.5-5.3.9-6.4,4.3-.3.9-.4,1.8-.5,2.7-.1.7-.1,1.2,0,1.6.2,1.3.8,2.3,1.7,3.2ZM175,23c.6-.4,1.3-.6,2.1-.4,1.5.3,2.1,1.3,1.9,3l-5-.7c.2-.8.5-1.4,1-1.9Z"/>
  <path d="M188.7,26.9c.2-.7.5-1.2,1-1.5.5-.3,1-.3,1.7-.1,1,.3,1.5.9,1.4,1.8l-2.4,8.4,3.1.9,2.1-7.5c.2-.6.5-1.1,1.1-1.4.6-.3,1.2-.3,1.8-.1,1,.3,1.4.9,1.2,1.7l-2.4,8.4,3.1.9,2.4-8.5c.7-2.3,0-3.9-2-4.8-.3-.1-.6-.2-.9-.3-.8-.2-1.4-.2-2-.1-.6.1-1.2.5-1.9,1-.4-.7-.7-1.2-.9-1.5-.4-.6-1.1-1-2.1-1.3-1.1-.3-2.4.1-3.8,1.2l.5-1.8-3.1-.9-3.5,12.3,3.1.9,2.5-7.7Z"/>
  <path d="M206.9,42.2c1.2.5,2.4.6,3.8.3,1.4-.3,2.5-1,3.2-1.9l-3-1.3c-.2.3-.7.5-1.3.6-.5.1-1,0-1.5-.2-.9-.4-1.4-1.1-1.6-2-.2-.6,0-1.2.4-2l7.8,3.3c.1-.3.3-.6.4-.8.6-1.5.8-2.9.6-4.3-.3-1.9-1.5-3.3-3.5-4.2-3-1.2-5.4-.4-7.3,2.6-.5.8-.9,1.6-1.2,2.5-.2.6-.4,1.1-.4,1.5-.1,1.3.1,2.4.8,3.5s1.6,1.9,2.8,2.4ZM209.3,32.1c.7-.2,1.4-.2,2.1.2,1.4.7,1.8,1.8,1.1,3.4l-4.7-2c.3-.8.8-1.3,1.5-1.6Z"/>
  <path d="M217,46.5l4-7.1c.7-1.1,1.7-1.4,3.2-.7,1,.5,1.5,1,1.5,1.7,0,.3-.2.9-.6,1.6l-3.8,6.8,2.9,1.6,4.1-7.5c1.5-2.6.8-4.7-2.1-6.3-1.2-.7-2.5-.6-3.8.3l.9-1.7-2.9-1.6-6.2,11.2,2.8,1.7Z"/>
  <path d="M227.9,50.4c-.8,1.6-.3,3,1.5,4.1.4.2.9.5,1.5.6l1.3-1.9-1.1-.7c-.4-.2-.3-.6.1-1.2l4-6,1.5,1,1.2-1.8-1.5-1,1.9-2.9-2.7-1.8-1.9,2.9-1.3-.9-1.2,1.8,1.3.9-4.6,6.9Z"/>
  <path d="M240.4,62.5c.5.6.9,1.1,1.3,1.5,1.8,1.6,3.4,2.5,4.8,2.7.8.1,1.6,0,2.5-.4.8-.3,1.5-.8,2.1-1.5,1-1.1,1.3-2.2,1.1-3.5-.2-1-.8-2.1-1.8-3.4-1.7-2.2-2.5-3.4-2.5-3.7-.2-.5-.3-.8-.3-1.1s.2-.6.6-.9c.9-.9,2.2-.7,3.6.6.7.7,1.2,1.4,1.4,2.1.3.9.1,1.7-.5,2.3l2.5,2.2s.1-.1.2-.2c.7-.8,1.1-1.8,1.2-2.9.1-1.9-.9-3.7-2.9-5.5-1.5-1.3-3-2-4.4-2.1-1.5-.1-2.8.5-4,1.8-1.3,1.5-1.5,3.2-.4,5.1.2.3,1,1.4,2.3,3.1.7.8,1.1,1.5,1.3,2,.3.9.2,1.6-.3,2.2-.9,1.1-2.3.9-4-.5-.8-.7-1.3-1.4-1.6-2.2-.3-.9-.1-1.8.5-2.5l-2.6-2.3c-1.2,1.5-1.6,3.1-1.2,4.9.2.7.5,1.4,1.1,2.2Z"/>
  <path d="M250.5,73c-.9.8-1.9.6-2.9-.5-.1-.1-.2-.3-.3-.4l-2,1.8c1.5,1.7,2.7,2.6,3.5,2.6s1.4-.1,1.9-.4l15.1-6.2-2.3-2.5-8.7,4.2,5.1-8.2-2.4-2.7-6.6,11.7c-.1.2-.2.4-.4.6Z"/>
  <path d="M263.1,78.4l1.5,4c.2.5,0,.9-.5,1.3-.4.3-.9.3-1.3.1-.3-.2-.6-.5-.9-1-.4-.8-.7-1.3-.7-1.7-.1-.6.1-1.1.5-1.7l-1.9-2.6c-1.4,1-1.8,2.5-1.5,4.4.2.8.6,1.6,1.3,2.6s1.4,1.8,2.2,2.3,1.6.8,2.5.7c.9-.1,1.8-.4,2.5-.9.6-.4,1-1,1.2-1.7s.2-1.4-.1-2.1l-1.8-4.6c-.2-.5-.1-.8.2-1.1.4-.2.8-.2,1.2,0,.4.2.7.5,1,.9.3.3.4.6.6,1.1s.2.8.1,1.1c-.1.3-.3.6-.7.9l1.9,2.6c1.2-.9,1.7-2,1.6-3.5-.1-1.2-.6-2.5-1.6-3.7-.9-1.2-1.8-1.9-2.9-2.2-1.2-.3-2.4-.1-3.5.8-1.2.9-1.5,2.2-.9,4Z"/>
  <path d="M266.6,89.6c-1.4,1.1-1.5,2.6-.3,4.3.3.4.7.8,1.1,1.2l1.9-1.2-.7-1.1c-.2-.4,0-.7.6-1.1l6.1-3.8,1,1.6,1.9-1.1-1-1.6,2.9-1.8-1.7-2.8-2.9,1.8-.8-1.4-1.9,1.3.9,1.4-7.1,4.3Z"/>
  <path d="M275.2,92.2c-.9.2-1.7.6-2.5,1.1-.6.3-1,.6-1.3.9-1,.9-1.5,1.9-1.7,3.2-.2,1.2,0,2.5.6,3.6.6,1.1,1.5,2,2.7,2.7,1.3.7,2.6.9,3.7.6l-1.5-2.9c-.4.1-.9,0-1.4-.4-.4-.3-.8-.7-1-1.1-.5-.8-.4-1.6,0-2.5.2-.6.8-1,1.6-1.3l3.8,7.6c.4-.1.7-.3,1.1-.4,1.4-.8,2.5-1.7,3.2-2.9,1-1.7,1-3.6,0-5.5-1.5-2.8-3.9-3.8-7.3-2.7ZM278.5,94.9c.7.3,1.2.8,1.5,1.5.7,1.4.2,2.5-1.3,3.3l-2.3-4.5c.7-.4,1.4-.5,2.1-.3Z"/>
  <path d="M291.5,117c-.1-.3-.2-.6-.3-.9-.3-.7-.7-1.3-1.1-1.7-.5-.3-1.1-.7-1.9-.9.5-.8.7-1.3.8-1.6.2-.7.1-1.6-.2-2.5-.4-1.1-1.5-1.9-3.2-2.4l1.8-.6-1.1-3.1-12,4.3,1.1,3.1,7.7-2.7c.7-.2,1.3-.2,1.8,0s.9.6,1.1,1.3c.3,1,.1,1.7-.7,2.2l-8.3,2.9,1.1,3.1,7.3-2.6c.6-.2,1.3-.2,1.8.1s.9.7,1.1,1.4c.3,1.1.1,1.7-.7,2l-8.3,2.9,1.1,3.1,8.3-3c2.3-.8,3.3-2.3,2.8-4.4Z"/>
  <path d="M116.5,276.2c-4-1.5-7.4-.5-10.1,3.1-.6.8-1.2,1.9-1.7,3.3-.5,1.2-.8,2.3-.9,3.3-.2,2.1.1,4,1,5.6.9,1.7,2.4,2.9,4.4,3.6,2.2.7,4.2.8,6,.2.9-.3,1.8-.8,2.6-1.6.8-.8,1.3-1.6,1.7-2.5l-3.6-1.4c-.4.7-.8,1.2-1.2,1.8-.7.7-1.7.9-2.9.8-.5-.1-1.1-.2-1.6-.4-.4-.2-.8-.5-1.1-.7-1-.8-1.6-2-1.6-3.6,0-1.3.3-2.6.9-4,.5-1.3,1.1-2.2,1.7-2.9.6-.7,1.4-1.2,2.2-1.5.8-.3,1.7-.3,2.5-.1,1.7.5,2.7,1.3,3.2,2.5.4.8.4,1.7.2,2.5l3.5,1.3c.7-2.2.4-4.2-.9-6.1-1-1.4-2.4-2.5-4.3-3.2Z"/>
  <path d="M130.6,285.5c-3.5-.8-6.1.6-7.6,4.3-.4,1-.7,2-.8,3-.1.8-.1,1.4-.1,1.8.1,1.4.6,2.6,1.6,3.7,1,1.1,2.2,1.8,3.6,2.1,1.3.3,2.7.2,4.2-.4,1.6-.6,2.6-1.5,3.2-2.7l-3.6-.8c-.3.5-.7.8-1.4,1-.6.1-1.1.1-1.7,0-1.1-.3-1.8-.9-2.2-1.9-.2-.6-.2-1.4.1-2.3l9.3,2.1c.1-.4.2-.7.3-1,.4-1.8.3-3.4-.2-4.9-.7-2.1-2.3-3.5-4.7-4ZM132,292.2l-5.6-1.3c.2-1,.7-1.6,1.3-1.9.7-.5,1.5-.6,2.4-.3,1.7.4,2.3,1.6,1.9,3.5Z"/>
  <path d="M145.2,289c-.8.5-1.4,1.2-1.8,1.9l.3-2.8-3.7-.5-1.8,14.3,3.7.5,1-8c.5-1.8,1.7-2.6,3.5-2.4.4,0,.8.1,1.3.2l.5-3.8c-.2,0-.3-.1-.5-.1-.8-.1-1.6.2-2.5.7Z"/>
  <path d="M155.1,285.4l-3.7-.2-.2,3.9-1.8-.1-.1,2.7,1.8.1-.4,9.3c.2,2,1.5,3,3.9,3,.6,0,1.2-.1,1.8-.3l.1-2.5-1.5-.1c-.4,0-.6-.5-.6-1.3l.4-8.1,2.1.1.1-2.5-2.1-.1.2-3.9Z"/>
  <polygon points="160.1 289 160.4 303.4 164.1 303.3 163.8 288.9 160.1 289"/>
  <polygon points="163.8 287.3 163.7 284 160 284.1 160.1 287.4 163.8 287.3"/>
  <path d="M174.4,288.2l-2.2.2-.1-1.5c-.1-.6.2-1,.7-1l1.3-.1-.2-2.7-2.3.2c-2.4.2-3.4,1.5-3.2,3.9l.2,1.7-2,.2.2,2.5,1.9-.4,1,11.6,3.7-.3-1-11.6,2.2-.2-.2-2.5Z"/>
  <polygon points="177.2 287.8 179.5 302 183.1 301.4 180.8 287.2 177.2 287.8"/>
  <polygon points="180.1 282.3 176.5 282.9 177 286.2 180.6 285.6 180.1 282.3"/>
  <path d="M194.7,296c-.5.4-1,.7-1.5.8-1,.2-2,0-2.8-.7-.5-.4-.9-1.1-1-2.1l9.3-2.3c-.1-.4-.1-.8-.2-1-.5-1.7-1.3-3.1-2.4-4.2-1.6-1.5-3.6-2-6-1.4-3.5.9-5.1,3.3-4.8,7.3.1,1,.3,2,.6,3,.3.7.5,1.2.7,1.6.7,1.2,1.8,2.1,3.1,2.6s2.7.6,4.1.2c1.4-.4,2.5-1.1,3.6-2.3,1.1-1.3,1.6-2.6,1.6-3.9l-3.5.9c0,.5-.3,1-.8,1.5ZM189.1,289.2c.4-.7,1.1-1.1,2-1.3,1.7-.3,2.8.4,3.3,2.3l-5.5,1.4c-.3-.9-.2-1.7.2-2.4Z"/>
  <path d="M206.2,274.8l2.5,6.5c-1.2-1.2-2.8-1.4-4.6-.6-2.1,1-3.3,2.6-3.4,4.8-.1,1.8.2,3.3.8,4.7.6,1.1,1.4,2.2,2.5,3.3.9.9,1.8,1.5,2.8,1.7.9.2,2,0,3.2-.5,1.4-.6,2.3-1.7,2.7-3.2l.5,1.4,3.4-1.3-7-18.1-3.4,1.3ZM210.9,289.2c-.1,1.2-.7,2-1.7,2.4-1,.4-2,.2-2.9-.6-.7-.6-1.2-1.4-1.6-2.4-.4-1-.5-2-.4-2.9.2-1.2.8-2,1.8-2.4,1-.4,2-.2,2.8.6.7.6,1.2,1.4,1.6,2.4.4,1,.5,2,.4,2.9Z"/>
</svg>