<svg viewBox="0 0 23 22">
<path d="M20.8775 0H2.1302C1.23215 0 0.505981 0.708984 0.505981 1.58555V20.4102C0.505981 21.2867 1.23215 22 2.1302 22H20.8775C21.7755 22 22.506 21.2867 22.506 20.4145V1.58555C22.506 0.708984 21.7755 0 20.8775 0ZM7.03293 18.7473H3.76731V8.2457H7.03293V18.7473ZM5.40012 6.81484C4.35168 6.81484 3.5052 5.96836 3.5052 4.92422C3.5052 3.88008 4.35168 3.03359 5.40012 3.03359C6.44426 3.03359 7.29075 3.88008 7.29075 4.92422C7.29075 5.96406 6.44426 6.81484 5.40012 6.81484ZM19.2532 18.7473H15.9919V13.6426C15.9919 12.4266 15.9704 10.8582 14.2947 10.8582C12.5974 10.8582 12.3396 12.1859 12.3396 13.5566V18.7473H9.08255V8.2457H12.2107V9.68086H12.2536C12.6876 8.85586 13.7532 7.98359 15.3388 7.98359C18.6431 7.98359 19.2532 10.1578 19.2532 12.9852V18.7473Z"/>
</svg>
