<svg viewBox="0 0 24 24">  
  <path d="M15,8c0-1.7-1.3-3-3-3s-3,1.3-3,3,1.3,3,3,3,3-1.3,3-3ZM11,8c0-.6.4-1,1-1s1,.4,1,1-.4,1-1,1-1-.4-1-1Z"/>
  <path d="M22.9,20.4l-2-6c-.3-.8-1-1.4-1.9-1.4h-1.8c1-1.5,1.8-3.3,1.8-5,0-3.9-3.1-7-7-7s-7,3.1-7,7,.8,3.5,1.8,5h-1.8c-.9,0-1.6.5-1.9,1.4l-2,6c-.2.5-.1,1,.1,1.5s.6.8,1.2,1c.2,0,.4.1.6.1h18c.5,0,1-.2,1.4-.6.4-.4.6-.9.6-1.4,0-.2,0-.4-.1-.6ZM12,3c2.8,0,5,2.2,5,5s-3.7,6.9-5,8c-1.3-1.1-5-4.8-5-8s2.2-5,5-5ZM3,21l2-6h3.3c.9,1.1,1.9,2,2.5,2.6.3.3.8.4,1.2.4s.9-.1,1.3-.5c.6-.6,1.5-1.4,2.5-2.5h3.3l2,6H3Z"/>
</svg>