<svg viewBox="0 0 24 24">  
  <path d="M20.4,13.9c-.9-.1-1.8-.3-2.6-.6-1.1-.4-2.3-.1-3.2.7l-.7.7c-1.8-1.2-3.4-2.7-4.6-4.6l.7-.7c.8-.8,1.1-2.1.7-3.2-.3-.8-.5-1.7-.6-2.6-.2-1.5-1.5-2.6-3-2.6h-3c0,0-.2,0-.3,0-.8,0-1.5.5-2,1.1-.5.6-.8,1.4-.7,2.2.3,3.2,1.5,6.4,3.2,9.1,1.6,2.5,3.8,4.7,6.3,6.3,2.7,1.8,5.8,2.9,9.1,3.2,0,0,.2,0,.3,0,.8,0,1.6-.3,2.1-.9.6-.6.9-1.3.9-2.1v-3c0-1.5-1.1-2.8-2.6-3ZM21,16.9v3c0,.3-.1.5-.3.7s-.4.3-.7.3h0c-2.9-.3-5.7-1.3-8.2-2.9-2.3-1.4-4.2-3.4-5.7-5.7-1.6-2.5-2.6-5.3-2.9-8.2,0-.3,0-.5.2-.7.2-.2.4-.3.8-.4h3c.5,0,.9.4,1,.9.1,1,.4,2.1.8,3,.1.4,0,.8-.2,1.1l-1.3,1.3c-.3.3-.4.8-.2,1.2,1.5,2.7,3.7,4.9,6.4,6.4.4.2.9.2,1.2-.2l1.3-1.3c.3-.3.7-.4,1.1-.2,1,.4,2,.6,3,.8.5,0,.9.5.9,1h0Z"/>
  <path d="M13.9,3c3.7.4,6.7,3.4,7.1,7.1,0,.5.5.9,1,.9s0,0,.1,0c.5,0,.9-.6.9-1.1-.5-4.6-4.3-8.3-8.9-8.8-.5,0-1,.3-1.1.9,0,.5.3,1,.9,1.1Z"/>
  <path d="M14.2,5c-.5-.1-1.1.2-1.2.8-.1.5.2,1.1.8,1.2,1.6.3,2.9,1.6,3.2,3.2,0,.5.5.8,1,.8s.1,0,.2,0c.5,0,.9-.6.8-1.2-.4-2.4-2.3-4.3-4.7-4.8Z"/>
</svg>