
<svg viewBox="0 0 800 800">
  <path d="M200,66.67c0,17.1,16.33,33.33,33.33,33.33h333.33c17.1,0,33.33-16.33,33.33-33.33h66.67c0,55.23-44.77,100-100,100h-133.33l.03,68.73c131.53,16.43,233.3,128.63,233.3,264.6v200c0,18.4-14.93,33.33-33.33,33.33H166.67c-18.4,0-33.33-14.93-33.33-33.33v-200c0-136,101.8-248.2,233.33-264.6v-68.73h-133.33c-55.33,0-100-44.67-100-100h66.67ZM400,366.67c-73.67,0-133.33,59.67-133.33,133.33s59.67,133.33,133.33,133.33,133.33-59.67,133.33-133.33c0-24.73-6.73-47.87-18.47-67.73l-91.3,91.33-3.13,2.73c-13.07,10.17-32,9.27-44-2.77-13-13-13-34.13,0-47.13l91.3-91.33c-19.87-11.67-43-18.43-67.73-18.43Z"/>
</svg>