<svg viewBox="0 0 1804.7 1804.7">
  <path d="M902.3,1721.7c-452.5,0-819.4-366.9-819.4-819.4S449.7,82.9,902.3,82.9c231.9,0,441.3,96.3,590.4,251.1l59.6-57.4c-4-4.2-8-8.2-12-12.3-352.4-352.4-923.7-352.4-1276.1,0-352.4,352.4-352.4,923.7,0,1276.1s923.7,352.4,1276.1,0c2.5-2.5,6.2-6.3,11.1-11.3l-59.6-57.6c-149,154.2-358.1,250.2-589.5,250.2Z"/>
  <path d="M1081.98,938.96l-176.72-654.85-1.06.14-1.06-.14-176.72,654.85-462.33-176.39-.53.98-.7.75,640.5,755.2.84-.31.84.31,640.5-755.2-.7-.76-.53-.98-462.33,176.39ZM905.3,1223.22V292.7l174.71,647.43-174.71,283.1ZM726.36,941.29l173.99,281.66-434.85-314.68-194.38-140.67,455.25,173.69ZM905.3,1227.66l363.57-263.1,269.11-194.74-632.68,745.98v-288.14Z"/>
</svg>