<?xml version="1.0" encoding="UTF-8"?>
<svg xmlns="http://www.w3.org/2000/svg" xmlns:xlink="http://www.w3.org/1999/xlink" width="0" height="0">
<defs>
<symbol viewBox="0 0 24 24" id="dollar-sign">
  <path d="M14.5,11h-1.5v-5h4c.6,0,1-.4,1-1s-.4-1-1-1h-4V2c0-.6-.4-1-1-1s-1,.4-1,1v2h-1.5c-2.5,0-4.5,2-4.5,4.5s2,4.5,4.5,4.5h1.5v5h-5c-.6,0-1,.4-1,1s.4,1,1,1h5v2c0,.6.4,1,1,1s1-.4,1-1v-2h1.5c2.5,0,4.5-2,4.5-4.5s-2-4.5-4.5-4.5ZM9.5,11c-1.4,0-2.5-1.1-2.5-2.5s1.1-2.5,2.5-2.5h1.5v5h-1.5ZM14.5,18h-1.5v-5h1.5c1.4,0,2.5,1.1,2.5,2.5s-1.1,2.5-2.5,2.5Z"></path>
</symbol>
<symbol viewBox="0 0 24 24" id="house">  
  <path d="M20.9,7.7L13.9,1.7c-1.1-.9-2.8-.9-3.9,0L3.1,7.7c-.7.6-1.1,1.4-1.1,2.3v9c0,1.7,1.3,3,3,3h14c1.7,0,3-1.3,3-3v-9c0-.9-.4-1.7-1.1-2.3ZM14,20h-4v-7h4v7ZM20,19c0,.6-.4,1-1,1h-3v-7c0-1.1-.9-2-2-2h-4c-1.1,0-2,.9-2,2v7h-3c-.6,0-1-.4-1-1v-9c0-.3.1-.6.4-.8l7-6c.2-.2.4-.2.6-.2s.5,0,.6.2l7,6c.2.2.4.5.4.8v9Z"></path>
</symbol>
<symbol viewBox="0 0 24 24" id="phone-call">  
  <path d="M20.4,13.9c-.9-.1-1.8-.3-2.6-.6-1.1-.4-2.3-.1-3.2.7l-.7.7c-1.8-1.2-3.4-2.7-4.6-4.6l.7-.7c.8-.8,1.1-2.1.7-3.2-.3-.8-.5-1.7-.6-2.6-.2-1.5-1.5-2.6-3-2.6h-3c0,0-.2,0-.3,0-.8,0-1.5.5-2,1.1-.5.6-.8,1.4-.7,2.2.3,3.2,1.5,6.4,3.2,9.1,1.6,2.5,3.8,4.7,6.3,6.3,2.7,1.8,5.8,2.9,9.1,3.2,0,0,.2,0,.3,0,.8,0,1.6-.3,2.1-.9.6-.6.9-1.3.9-2.1v-3c0-1.5-1.1-2.8-2.6-3ZM21,16.9v3c0,.3-.1.5-.3.7s-.4.3-.7.3h0c-2.9-.3-5.7-1.3-8.2-2.9-2.3-1.4-4.2-3.4-5.7-5.7-1.6-2.5-2.6-5.3-2.9-8.2,0-.3,0-.5.2-.7.2-.2.4-.3.8-.4h3c.5,0,.9.4,1,.9.1,1,.4,2.1.8,3,.1.4,0,.8-.2,1.1l-1.3,1.3c-.3.3-.4.8-.2,1.2,1.5,2.7,3.7,4.9,6.4,6.4.4.2.9.2,1.2-.2l1.3-1.3c.3-.3.7-.4,1.1-.2,1,.4,2,.6,3,.8.5,0,.9.5.9,1h0Z"></path>
  <path d="M13.9,3c3.7.4,6.7,3.4,7.1,7.1,0,.5.5.9,1,.9s0,0,.1,0c.5,0,.9-.6.9-1.1-.5-4.6-4.3-8.3-8.9-8.8-.5,0-1,.3-1.1.9,0,.5.3,1,.9,1.1Z"></path>
  <path d="M14.2,5c-.5-.1-1.1.2-1.2.8-.1.5.2,1.1.8,1.2,1.6.3,2.9,1.6,3.2,3.2,0,.5.5.8,1,.8s.1,0,.2,0c.5,0,.9-.6.8-1.2-.4-2.4-2.3-4.3-4.7-4.8Z"></path>
</symbol>
<symbol viewBox="0 0 24 24" id="wheat">
    <path d="M23,4V2c0-.6-.4-1-1-1h-2c-2.1,0-3.8,1.3-4.6,3,0,0-.1-.1-.2-.2l-1.5-1.5c-.4-.4-1-.4-1.4,0l-1.5,1.5h0c-.7.7-1.1,1.5-1.2,2.4-.4-.2-.9-.2-1.2.1l-1.5,1.5h0c-.7.7-1.1,1.5-1.2,2.4-.4-.2-.9-.2-1.2.1l-1.5,1.5h0c-1.7,1.8-1.7,4.6,0,6.4l.8.8-2.3,2.3c-.4.4-.4,1,0,1.4s.5.3.7.3.5,0,.7-.3l2.3-2.3.8.8c.9.9,2,1.3,3.2,1.3s2.3-.4,3.2-1.3l1.5-1.5c.2-.2.3-.4.3-.7s0-.4-.2-.5c.9-.2,1.7-.6,2.4-1.2l1.5-1.5c.2-.2.3-.4.3-.7s0-.4-.2-.5c.9-.2,1.7-.6,2.4-1.2l1.5-1.5c.2-.2.3-.4.3-.7s-.1-.5-.3-.7l-1.5-1.5s0,0,0,0c0,0-.1-.1-.2-.2,1.8-.8,3-2.5,3-4.6ZM12.2,5.2l.8-.8.8.8c1,1,1,2.6,0,3.5l-.7.7h-.1c0,.1-.8-.7-.8-.7-1-1-1-2.6,0-3.5ZM8.2,9.2l.8-.8.8.8c1,1,1,2.6,0,3.5l-.7.7-.2.2-.8-.8c-1-1-1-2.6,0-3.5ZM4.2,13.2l.8-.8.8.8c1,1,1,2.6,0,3.5l-.8.8-.8-.8c-1-1-1-2.6,0-3.5ZM10.8,19.8c-1,1-2.6,1-3.5,0l-.8-.8.8-.8c1-1,2.6-1,3.5,0l.8.8-.8.8ZM14.8,15.8c-1,1-2.6,1-3.5,0l-.8-.8.8-.8c1-1,2.6-1,3.5,0l.8.8-.8.8ZM18.8,11.8c-1,1-2.6,1-3.5,0l-.8-.8.8-.8h0c1-1,2.6-1,3.5,0l.8.8-.8.8ZM21,4c0,1.7-1.3,3-3,3h-1v-1c0-1.7,1.3-3,3-3h1v1Z"></path>
</symbol>
</defs>
</svg>