<?xml version="1.0" encoding="UTF-8"?>
<svg xmlns="http://www.w3.org/2000/svg" xmlns:xlink="http://www.w3.org/1999/xlink" width="0" height="0">
<defs>
<symbol viewBox="0 0 63 16" id="arrow_right">
<path d="M62.7071 8.70711C63.0976 8.31658 63.0976 7.68342 62.7071 7.29289L56.3431 0.928932C55.9526 0.538408 55.3195 0.538408 54.9289 0.928932C54.5384 1.31946 54.5384 1.95262 54.9289 2.34315L60.5858 8L54.9289 13.6569C54.5384 14.0474 54.5384 14.6805 54.9289 15.0711C55.3195 15.4616 55.9526 15.4616 56.3431 15.0711L62.7071 8.70711ZM0 9H62V7H0V9Z" fill="black"></path>
<symbol viewBox="0 0 18 18" id="arrow-right-top">
    <path d="M5.25 0.75L16.5 0.75C16.6989 0.75 16.8897 0.829018 17.0303 0.96967C17.171 1.11032 17.25 1.30109 17.25 1.5V12.75C17.25 13.1642 16.9142 13.5 16.5 13.5C16.0858 13.5 15.75 13.1642 15.75 12.75V3.31066L2.03033 17.0303C1.73744 17.3232 1.26256 17.3232 0.96967 17.0303C0.676777 16.7374 0.676777 16.2626 0.96967 15.9697L14.6893 2.25L5.25 2.25C4.83579 2.25 4.5 1.91421 4.5 1.5C4.5 1.08579 4.83579 0.75 5.25 0.75Z"></path>
</symbol>
<symbol viewBox="0 0 24 24" id="dollar-sign">
  <path d="M14.5,11h-1.5v-5h4c.6,0,1-.4,1-1s-.4-1-1-1h-4V2c0-.6-.4-1-1-1s-1,.4-1,1v2h-1.5c-2.5,0-4.5,2-4.5,4.5s2,4.5,4.5,4.5h1.5v5h-5c-.6,0-1,.4-1,1s.4,1,1,1h5v2c0,.6.4,1,1,1s1-.4,1-1v-2h1.5c2.5,0,4.5-2,4.5-4.5s-2-4.5-4.5-4.5ZM9.5,11c-1.4,0-2.5-1.1-2.5-2.5s1.1-2.5,2.5-2.5h1.5v5h-1.5ZM14.5,18h-1.5v-5h1.5c1.4,0,2.5,1.1,2.5,2.5s-1.1,2.5-2.5,2.5Z"></path>
</symbol>
<symbol viewBox="0 0 33.07 17.45" id="en">
  <g>
   <polygon fill="white" points="0,17.42 33.06,17.42 33.06,0 0,0 "></polygon>
   <polygon fill="#CE1124" points="33.06,6.97 18.51,6.97 18.51,0 14.53,0 14.53,6.97 0.01,6.97 0.01,10.45 14.53,10.45 14.53,17.42 18.51,17.42 18.51,10.45 33.06,10.45 "></polygon>
   <polygon fill="#00247D" points="0,2.03 0,5.82 7.21,5.82 "></polygon>
   <polygon fill="#00247D" points="3.98,0 3.87,0.01 13.22,4.95 13.22,0 "></polygon>
   <polygon fill="#CE1124" points="11.1,5.8 0,0 0,1.37 8.45,5.8 "></polygon>
   <polygon fill="#CE1124" points="21.97,11.62 33.07,17.42 33.07,16.05 24.62,11.62 "></polygon>
   <polygon fill="#00247D" points="0,15.42 0,11.63 7.21,11.63 "></polygon>
   <polygon fill="#00247D" points="3.98,17.45 3.87,17.44 13.22,12.5 13.22,17.45 "></polygon>
   <polygon fill="#CE1124" points="11.04,11.62 0.01,17.41 2.59,17.42 13.23,11.86 13.23,11.62 "></polygon>
   <polygon fill="#00247D" points="33.07,2.03 33.07,5.82 25.86,5.82 "></polygon>
   <polygon fill="#00247D" points="29.09,0 29.2,0.01 19.85,4.95 19.85,0 "></polygon>
   <polygon fill="#CE1124" points="33.06,0.01 30.58,0.01 19.86,5.61 19.86,5.8 22.12,5.8 "></polygon>
   <polygon fill="#00247D" points="33.07,15.42 33.07,11.63 25.86,11.63 "></polygon>
   <polygon fill="#00247D" points="29.09,17.45 29.2,17.44 19.85,12.5 19.85,17.45 "></polygon>
  </g>
</symbol>
<symbol viewBox="0 0 24 24" id="facebook">  
  <path d="M18,7c.6,0,1-.4,1-1V2c0-.6-.4-1-1-1h-3c-3.3,0-6,2.7-6,6v2h-2c-.6,0-1,.4-1,1v4c0,.6.4,1,1,1h2v7c0,.6.4,1,1,1h4c.6,0,1-.4,1-1v-7h2c.5,0,.9-.3,1-.8l1-4c0-.3,0-.6-.2-.9s-.5-.4-.8-.4h-3v-2h3ZM14,11h2.7l-.5,2h-2.2c-.6,0-1,.4-1,1v7h-2v-7c0-.6-.4-1-1-1h-2v-2h2c.6,0,1-.4,1-1v-3c0-2.2,1.8-4,4-4h2v2h-2c-1.1,0-2,.9-2,2v3c0,.6.4,1,1,1Z"></path>
</symbol>
<symbol viewBox="0 0 24 24" id="factory">
  <path d="M22.5,7.1c-.3-.2-.7-.1-1,0l-5.4,3.9v-3.1c0-.4-.2-.7-.5-.9-.3-.2-.7-.1-1,0l-5.4,3.9V4c0-1.7-1.3-3-3-3h-2c-1.7,0-3,1.3-3,3v16c0,1.7,1.3,3,3,3h16c1.7,0,3-1.3,3-3V8c0-.4-.2-.7-.5-.9ZM21,20c0,.6-.4,1-1,1H4c-.6,0-1-.4-1-1V4c0-.6.4-1,1-1h2c.6,0,1,.4,1,1v9c0,.4.2.7.5.9.3.2.7.1,1,0l5.4-3.9v3.1c0,.4.2.7.5.9.3.2.7.1,1,0l5.4-3.9v10.1Z"></path>
  <path d="M17,19h1c.6,0,1-.4,1-1s-.4-1-1-1h-1c-.6,0-1,.4-1,1s.4,1,1,1Z"></path>
  <path d="M13,17h-1c-.6,0-1,.4-1,1s.4,1,1,1h1c.6,0,1-.4,1-1s-.4-1-1-1Z"></path>
  <path d="M8,17h-1c-.6,0-1,.4-1,1s.4,1,1,1h1c.6,0,1-.4,1-1s-.4-1-1-1Z"></path>
</symbol>
<symbol viewBox="0 0 24 24" id="house">  
  <path d="M20.9,7.7L13.9,1.7c-1.1-.9-2.8-.9-3.9,0L3.1,7.7c-.7.6-1.1,1.4-1.1,2.3v9c0,1.7,1.3,3,3,3h14c1.7,0,3-1.3,3-3v-9c0-.9-.4-1.7-1.1-2.3ZM14,20h-4v-7h4v7ZM20,19c0,.6-.4,1-1,1h-3v-7c0-1.1-.9-2-2-2h-4c-1.1,0-2,.9-2,2v7h-3c-.6,0-1-.4-1-1v-9c0-.3.1-.6.4-.8l7-6c.2-.2.4-.2.6-.2s.5,0,.6.2l7,6c.2.2.4.5.4.8v9Z"></path>
</symbol>
<symbol viewBox="0 0 24 24" id="instagram">  
  <path d="M17,1H7C3.7,1,1,3.7,1,7v10c0,3.3,2.7,6,6,6h10c3.3,0,6-2.7,6-6V7c0-3.3-2.7-6-6-6ZM21,17c0,2.2-1.8,4-4,4H7c-2.2,0-4-1.8-4-4V7c0-2.2,1.8-4,4-4h10c2.2,0,4,1.8,4,4v10Z"></path>
  <path d="M12.8,7c-.5,0-1,0-1.5,0-2.7.4-4.6,3-4.2,5.7.2,1.3.9,2.5,2,3.3.9.6,1.9,1,3,1s.5,0,.7,0c1.3-.2,2.5-.9,3.3-2,.8-1.1,1.1-2.4.9-3.7-.3-2.2-2-3.9-4.2-4.2ZM14.5,13.7c-.5.6-1.2,1.1-2,1.2-.8.1-1.6,0-2.2-.6s-1.1-1.2-1.2-2c-.2-1.6.9-3.2,2.5-3.4.1,0,.3,0,.4,0s.3,0,.4,0c1.3.2,2.3,1.2,2.5,2.5.1.8,0,1.6-.6,2.2Z"></path>
  <path d="M17.5,5.5h0c-.6,0-1,.4-1,1s.5,1,1,1,1-.4,1-1-.4-1-1-1Z"></path>
</symbol>
<symbol viewBox="0 0 225.8 105.1" id="krupomol_logo">
  <defs>
    <style>
      .cls-1 {
        fill: #002c73;
      }
      .cls-2 {
        fill: #fff;
      }
    </style>
  </defs>
  <g>
    <polygon class="cls-1" points="225.7 18.1 225.7 18.1 225.8 18.1 225.7 18.1"></polygon>
    <path class="cls-1" d="M143.6,24.7l12.2-14.7c.5-.6.4-1.4-.2-1.9l-9.1-7.7C146.3,0,146,0,145.7,0s-.8.1-1,.4l-15.8,15.5L114.4,1c-.3-.3-.6-.4-1-.4s-.7,0-1,.4l-7.5,6.2c-.8.8-.9,2.1-.1,2.9l11,12.5-13,11.8L7.1,47.1,0,105.1l218.6-29,7.1-58-81,10.7-1.1-4.2Z"></path>
  </g>
  <g>
    <path class="cls-2" d="M167.8,76.7c-.7-.7-3.8-3.8-6.7-4.5.2,0,.3,0,.5,0l4.4-1s-2.3,0-4.5.2c-1.1,0-2.3.2-3.1.2-.9-.3-4-1.1-6.9-1.1,1.3-.4,2.2-.7,2.2-.7,0,0-2.3.3-4.5.7-.6,0-1.1.2-1.7.3-1.2-.2-4.1-.5-6.5,0,1.2-.4,2-.7,2-.7,0,0-2.2.3-4.3.7-1.7-.2-7.9-.7-10.9,1.4,0-.2,0-.5.2-.8.3-.1.6-.3.9-.4,2.1-.9,4.2-1.7,4.2-1.7,0,0-2.2.4-4.4,1-.4,0-.8.2-1.1.3-.9,0-4.8.2-7.7,1.5,0-.4.1-.8.1-1.2,1.4-1.1,2.6-2,2.6-2,0,0-1.5.7-3.1,1.6-.5,0-3.7.7-6.2,2-1.5.3-7.1,1.5-8.3,4.3-.3.8-.3,1.6,0,2.4,0,.2.2.5.4.7-.2-.1-.4-.2-.6-.2-.3,0-.6,0-.9,0,.7-1.3,1.2-3,1.4-5.1v-.2c1.5-1.1,2.8-2.1,2.8-2.1,0,0-2,1-4.1,2.1-1.1.2-3.1.7-4.8,1.6.9-.7,1.6-1.2,1.6-1.2,0,0-2,1-4,2.1-1.7.3-7.4,1.6-8.6,4.3-.2.4-.3.9-.2,1.3-.5,0-1,.3-1.3.5h0c-1.4,1.3-3.2,1.9-3.7,2h0c0-.5,0-.9,0-1.2h0c.7-.9,2.7-.8,3.6-.8-.2,0-3.3-.3-4.2.9-.3.3-.3.7-.2,1.2-.7.2-1.5.3-2.2.5-4.5,1.1-8.3,2-11,2.6-2.7.6-4.2,1-4.2,1l1,3s.4,0,1-.4l.3-.3c.7-.3,1.7-.6,2.9-1.1.6-.2,1.3-.5,2.1-.7.8-.2,1.6-.5,2.5-.8.9-.3,1.9-.5,2.9-.8,1-.3,2.1-.6,3.2-.9,1.2-.3,2.4-.6,3.7-.9v.2c0,.3.3.5.6.7.6.4,1.8.6,3.2,0,0,0,0,.3,0,.4,0,.2.2.4.4.7,1,1.3,3.2,2.5,6.7,1.8,1.6.6,4,.6,6.9-.7l.4-.2c1.1-.2,2.4-.5,3.8-1.1,1,.2,2.3.4,3.6.3h.2c1.5.4,2.7.7,2.7.7,0,0-1-.4-2.3-1,1.3,0,2.7-.2,4.4-.8h.4c1.7,0,3.7-.5,5.9-1.4h.3c1.5,0,3.3-.2,5.4-1.1l.4-.2-.2-.2c1.6.4,3.8.3,6.5-.8,1.1.3,1.9.4,1.9.4,0,0-.6-.3-1.6-.7l-.2-.3s-.2-.2-.4-.5c1.3.3,3,.4,4.9,0h.4c.3,0,.5.2.8.2,2.2.6,4.4,1.1,4.4,1.1,0,0-1.1-.5-2.4-1.1,1.3,0,2.8,0,4.5-.6h.4v-.2c.5,0,1.1,0,1.7-.1,1.4.6,3.4.9,6,.5,1.3.3,2.3.6,2.3.6,0,0-.8-.3-1.8-.8v-.2c1.8.2,4.2-.2,7.1-1.7h1.3c2.3,0,4.5-.3,4.5-.3,0,0-2.3-.2-4.5-.5-.4,0-.7,0-1.1-.2,1.6,0,3.4-.5,5.6-1.6h.9c2.3,0,4.5-.3,4.5-.3,0,0-2.3-.2-4.5-.5h-.7ZM158.1,72h0c-4.3,2.7-9.2,3.2-10.6,3.2v-1.5c.4-.5.7-1.1,1-1.7,2.3-1.7,7.7-.5,9.7,0ZM139.6,71.8c2.3-1.2,6.4-.8,8-.5-3.6,3-8,4-9.3,4.1,0,0,0-.2,0-.4v-.4c.5-.8,1-1.8,1.5-2.8h0ZM128,73.4c2.1-2.4,8.2-2.1,10.5-1.9-2.9,2.5-6.1,3.9-8.5,4.7-.2,0-.5-.2-.8-.3h.2c.5,0,1-.3,1.6-.5.6-.2,1.2-.5,1.8-.8.6-.3,1.2-.6,1.7-.9s1-.6,1.4-.9c.4-.3.7-.5,1-.7.2-.2.4-.3.4-.3,0,0-.2,0-.4.2-.3.1-.6.3-1.1.5-.4.2-1,.4-1.5.7-.6.3-1.2.5-1.7.8-.6.3-1.2.6-1.7.8-.6.3-1.1.5-1.5.7-.2.1-.4.2-.6.3-.5-.1-1-.2-1.5-.2,0-.9,0-1.6.7-2.2ZM120,72.9c2.2-1.3,5.8-1.6,7.3-1.7-3.2,3.9-7.5,5.9-8.8,6.3,0,0,0-.2-.2-.4v-.3c.7-1,1.4-2.3,1.7-3.9ZM120.7,84.2c-3.6-1.8-5.9-4.8-6.5-5.7h0c0-.1.2-.3.2-.3.8-.6,1.5-.8,2.2-.5,2.1.7,3.6,4.9,4.1,6.5ZM118.4,71.7c-.2.1-.4.4-.7.6-.3.3-.6.5-1,.9-.4.3-.7.7-1.1,1-.6.5-1.1,1-1.6,1.4.3-.9.5-1.9.6-2.9,1.8-.9,3.8-1.4,4.8-1.6-1.8,3-4.5,5-6,6,0-.2.2-.5.3-.7.6-.4,1.4-1,2.2-1.7.4-.4.8-.7,1.1-1.1.3-.3.6-.7.9-1,.5-.6.8-1.1.8-1.1,0,0,0,0-.3.2ZM106,76.9c1-2.3,5.8-3.4,7.5-3.8-2.3,3.7-5.8,5.9-6.9,6.5,0,0-.2-.2-.2-.3-.6-.9-.7-1.7-.3-2.4h0ZM104.7,74.8c-2.2,3.7-5.7,5.9-6.9,6.5,0,0,0-.2-.2-.3-.6-.9-.7-1.7-.3-2.4,1-2.3,5.6-3.4,7.4-3.8ZM89.3,81.2c1-2.3,6-3.5,7.8-3.9,0,0-.2.2-.2.4,0,0,0,.1-.1.2-2.4,3.4-5.8,5.5-6.9,6,0,0-.2-.2-.2-.3-.6-.9-.7-1.7-.4-2.4ZM94.6,85.4c-.2-.2-.4-.4-.6-.5l.2-.2s0,0,.2,0c0,.3,0,.6.2.8ZM86.9,83.3h0c.3-.5.8-.7,1.4-.8,0,.3,0,.5.2.8-.2,0-.4.2-.6.3-.2,0-.4.2-.5.3-.3.2-.5.3-.5.3,0,0,.2,0,.6-.2.2,0,.4-.1.5-.2.2,0,.4-.2.6-.3v.2c-.8.4-1.6.7-1.9.8h0c0-.5,0-.9.1-1.2ZM84.7,85.8v-.2c0-.5.4-.7.7-.8,1.1-.3,2.9.9,3.5,1.3-1.9.4-3.7,0-4.2-.3ZM89,85.4s0-.2.2-.3c0-.2.3-.3.4-.5.8.7,2,1,3.2.7.2,0,.3-.1.5-.2,1.4,1.1,2.6,2.9,3.2,3.7-3.7-.6-6.6-2.7-7.5-3.4ZM98.6,88.2h-.1c.6,0,1.3,0,2,0h.7c.2.2.3.4.5.6-1.1,0-2.2-.3-3.1-.5ZM95.2,83.6c0-.1,0-.2,0-.3.5-.8,1.1-1.3,1.9-1.3,2.3,0,5.3,3.3,6.4,4.6-4.1-.3-7.5-2.3-8.4-3ZM102.4,81.1s.2-.2.3-.3c.7-.7,1.5-.9,2.2-.7h0c1.2.4,2.3,1.9,3.1,3.4,0,.1,0,.3,0,.4,0,0,0,.2.1.3,0,.1.2.3.3.4.5,1.1.8,2,1,2.7-3.9-1.8-6.4-5.1-7.1-6.2ZM108.9,81.6s0-.2.2-.3c.6-.7,1.3-1,2-.8,2.2.4,4.3,4.2,5,5.7-3.8-1.2-6.5-3.7-7.2-4.6ZM116,84.4c0-.2-.2-.3-.3-.5.2,0,.4,0,.6.2,1.2.5,2.6.9,4.5.9-1.7,0-3.4-.2-4.8-.6ZM119.5,78.4c0,0,0-.2.2-.2.6-.7,1.3-1,2.1-.9,2.2.4,4.4,4.2,5.1,5.7-3.8-1.1-6.5-3.6-7.4-4.6ZM130.6,82.2c.2,0,.4,0,.7-.2h.1c.5,0,.9.2,1.1.2,0,0-.1,0-.2,0,0,0-.3-.1-.5-.2.2,0,.4,0,.6-.2h0c.3.3.6.6.8.9-.9,0-1.8-.2-2.7-.4ZM124.7,78s0-.2.2-.3c.7-1,1.5-1.5,2.4-1.5,2.6,0,5.6,3,6.7,4.2-4.6,0-8.3-1.8-9.3-2.4ZM133.8,77.4h0c0,0,0-.2.1-.3.4-.9,1-1.3,1.7-1.4,2-.2,4.7,2.2,6.1,3.6,0,0,.2.3.3.4-3.9,0-7.3-1.8-8.2-2.3ZM142.3,76.9s.1-.2.2-.3c.6-.9,1.3-1.4,2.2-1.4,2.5,0,5.5,3.4,6.6,4.7-4.5-.3-8-2.3-9-3ZM151.3,77.1h.1c0-.1,0-.2,0-.4.5-1,1.1-1.6,2-1.8,2.7-.5,6.5,2.9,7.8,4.2-4.7.3-8.8-1.4-10-2ZM157.9,74.6c0-.1,0-.2,0-.3.4-1,1.1-1.5,1.9-1.7,2.5-.4,6.1,2.8,7.4,4-4.5.3-8.3-1.4-9.4-2Z"></path>
    <path class="cls-2" d="M132.5,82.2c0,0,0,0,0,0,0,0,0,0,0,0Z"></path>
    <path class="cls-2" d="M86.7,82.9h0s0,0-.1,0c0,0,0,0,0,0h0Z"></path>
    <path class="cls-2" d="M150.7,74.3c.6-.1,1.1-.3,1.7-.4.6-.2,1.2-.3,1.7-.5s1-.4,1.4-.6c.4-.2.7-.4,1-.5.2-.1.4-.2.4-.2h-.4c-.3,0-.6.2-1.1.3-.4,0-.9.2-1.5.4-.5,0-1.1.3-1.7.5-.6.2-1.1.3-1.7.5-.5.2-1,.3-1.5.4h.1c-.9.3-1.4.5-1.4.5,0,0,.6,0,1.5,0,.4,0,1-.1,1.5-.3Z"></path>
    <path class="cls-2" d="M139.9,74.6c.4-.1.9-.2,1.4-.4s1-.4,1.5-.6,1-.4,1.5-.7c.5-.2.9-.5,1.2-.7.7-.4,1.1-.8,1.1-.8,0,0,0,0-.4,0-.2,0-.5.2-.9.4-.4.2-.8.3-1.3.5s-1,.4-1.5.6c-1,.4-2,.9-2.8,1.2-.4.2-.7.3-.9.4-.2,0-.3.2-.3.2h.4c.2,0,.6-.1,1-.2Z"></path>
    <path class="cls-2" d="M121.4,75.7h-.1c.5-.4,1-.7,1.5-1s1-.7,1.4-1,.8-.7,1.1-1c.3-.3.6-.6.7-.8l.3-.3s0,0-.3.2c-.2.1-.5.3-.9.6-.4.2-.8.5-1.2.8-.5.3-.9.6-1.4,1-.5.3-1,.7-1.4,1-.4.3-.9.6-1.2.9-.7.5-1.2.9-1.2.9,0,0,.6-.2,1.4-.6.4-.2.8-.4,1.3-.7Z"></path>
    <path class="cls-2" d="M84.2,84.4h-.1c.2,0,.4-.2.6-.3.2-.1.4-.2.6-.3.2-.1.4-.2.5-.3.3-.2.4-.4.4-.4,0,0-.2,0-.5.2-.3.1-.7.4-1.1.6s-.4.2-.6.3c-.2,0-.4.2-.5.3-.3.2-.5.3-.5.3,0,0,.2,0,.6-.2.2,0,.4-.1.6-.2Z"></path>
    <path class="cls-2" d="M158.7,74.5h-.4s0,0,.3.2c.2,0,.5.2.9.4v-.2c.8.3,1.8.6,2.8.9.5,0,1,.2,1.5.3.5,0,.9,0,1.3.2h1.3s-.1,0-.3-.1c-.2,0-.5,0-.9-.2-.4,0-.8-.2-1.3-.3-.5,0-1-.2-1.5-.4-1-.2-2-.5-2.8-.6-.4,0-.7,0-.9-.2Z"></path>
    <path class="cls-2" d="M90.9,82.6h.2c.3-.1.7-.4,1.1-.7.4-.3.8-.6,1.2-1,.4-.4.8-.7,1.1-1.1.4-.4.7-.7.9-1,.5-.6.8-1.1.8-1.1,0,0-.1,0-.3.2-.2,0-.4.4-.7.6-.3.3-.7.6-1,.9-.4.3-.8.7-1.2,1-.8.7-1.6,1.4-2.2,1.9l-.7.7-.3.3s.1,0,.3-.2c.2-.1.5-.3.8-.5Z"></path>
    <path class="cls-2" d="M98.9,80.1c.6-.4,1.5-1.1,2.2-1.7.4-.4.8-.7,1.1-1.1.3-.3.6-.7.9-1,.5-.6.8-1.1.8-1.1,0,0-.1,0-.3.2-.2,0-.4.4-.7.6-.3.3-.6.5-1,.9-.4.3-.7.7-1.1,1-.8.7-1.5,1.4-2.1,1.9-.3.3-.5.5-.7.7-.2.2-.2.3-.2.3,0,0,.1,0,.3-.2.2,0,.5-.3.8-.5Z"></path>
    <path class="cls-2" d="M107.7,78.4c.6-.4,1.5-1.1,2.2-1.7.4-.4.8-.7,1.1-1.1.3-.3.6-.7.9-1,.5-.6.8-1.1.8-1.1,0,0-.1,0-.3.2-.2.1-.4.4-.7.6-.3.3-.6.5-1,.9-.4.3-.7.7-1.1,1-.8.7-1.5,1.4-2.1,1.9l-.7.7c-.2.2-.2.3-.2.3,0,0,0,0,.3-.2.2,0,.5-.3.8-.5Z"></path>
    <path class="cls-2" d="M107.1,84.7c-.4-.3-.7-.7-1.1-1-.8-.7-1.5-1.4-2.1-1.8-.3-.2-.5-.4-.7-.6-.2,0-.3-.2-.3-.2,0,0,0,0,.2.3.1.2.3.4.6.7h0c.5.7,1.2,1.4,2,2.1.8.7,1.6,1.3,2.2,1.7s1.1.6,1.1.6l-.3-.3c-.2-.2-.4-.4-.7-.6-.3-.3-.6-.6-1-.9Z"></path>
    <path class="cls-2" d="M131.9,79.7c-.7-.2-1.7-.5-2.7-.8h0c-1-.4-2-.6-2.7-.8-.4,0-.7-.2-.9-.2h-.4s0,0,.3.2c.2,0,.5.3.8.4.7.3,1.7.7,2.7,1,.5,0,1,.3,1.5.4.5.1.9.2,1.3.2h1.3s-.1,0-.3,0c-.2-.1-.5-.2-.9-.3Z"></path>
    <path class="cls-2" d="M140.3,78.9h0c-.7,0-1.6-.4-2.4-.7-.9-.3-1.8-.5-2.5-.7-.7-.2-1.1-.3-1.1-.3,0,0,.4.3,1,.6.6.3,1.5.7,2.4.9.9.3,1.8.5,2.5.6.7,0,1.2,0,1.2,0,0,0-.1,0-.3-.1-.2,0-.5-.2-.8-.3Z"></path>
    <path class="cls-2" d="M121,79c-.6-.4-1-.6-1-.6,0,0,.3.4.8.8.5.5,1.3,1,2.1,1.6.8.5,1.6,1,2.3,1.2.6.3,1.1.4,1.1.4l-.3-.2h0c-.2,0-.4-.2-.7-.4-.6-.4-1.4-.9-2.1-1.4-.8-.5-1.6-1-2.2-1.4Z"></path>
    <path class="cls-2" d="M149.3,79.2c-.7-.3-1.7-.6-2.6-1-1-.3-1.9-.7-2.6-.9v-.2c-.5-.1-.8-.2-1-.3h-.3s.1,0,.3.2c.2.1.5.3.8.5.7.4,1.6.8,2.6,1.1.5.2,1,.3,1.4.5.5,0,.9.2,1.3.3.6,0,1,.2,1.2.2,0,0-.1,0-.2,0-.2,0-.5-.2-.9-.3Z"></path>
    <path class="cls-2" d="M150.4,79.6c0,0,0,0,0,0,0,0,0,0,0,0Z"></path>
    <path class="cls-2" d="M152.3,76.9h-.4s0,0,.3.2c.2,0,.5.2.9.4.4.2.8.3,1.3.5.5.2,1,.3,1.6.4.5,0,1.1.2,1.6.3.5,0,1,.1,1.4.2h1.4s-.1,0-.4,0c-.2,0-.6-.1-1-.2l.2-.2c-.4,0-.9-.2-1.4-.3-.5-.1-1-.2-1.6-.4-1.1-.2-2.1-.5-2.9-.6-.4,0-.7-.1-1-.2Z"></path>
    <path class="cls-2" d="M102.7,86c0,0,0,0,0,0,0,0,0,0,0,0Z"></path>
    <path class="cls-2" d="M101.7,85.6c-.7-.3-1.6-.6-2.5-1-.9-.3-1.8-.7-2.5-.9h0c-.7-.2-1.2-.4-1.2-.4,0,0,.4.3,1,.6.6.4,1.5.8,2.4,1.1.9.3,1.8.6,2.6.8.5,0,.9.2,1.1.2,0,0-.1,0-.2,0-.2,0-.5-.2-.8-.3Z"></path>
    <path class="cls-2" d="M115.6,79.1c-.5-.5-.9-.8-.9-.8,0,0,.3.4.7,1,.4.6,1.1,1.2,1.8,1.9.7.6,1.4,1.2,2,1.6.6.4,1,.6,1,.6l-.2-.2c0,0-.4-.3-.6-.6-.5-.5-1.2-1.1-1.9-1.8-.7-.6-1.4-1.3-1.9-1.7Z"></path>
    <path class="cls-2" d="M110.3,82.1h.1c-.6-.4-1-.6-1-.6,0,0,.3.4.8.8.5.5,1.2,1,2,1.6.8.5,1.6,1,2.2,1.3.6.3,1.1.4,1.1.4l-.3-.2c-.2,0-.4-.3-.7-.5-.6-.4-1.3-.9-2.1-1.4-.8-.5-1.5-1-2.1-1.4Z"></path>
    <path class="cls-2" d="M136.6,18.8c-.3,0-6.3,4.9-5.2,5.9,1.1,1.1,6.6-6.2,5.2-5.9Z"></path>
    <path class="cls-2" d="M120.6,16.4c.4-.4-1.8-1.8-1.8-1.5,0,.6,1.4,1.8,1.8,1.5Z"></path>
    <path class="cls-2" d="M122.6,19.2h.1c.4.6.2,1,.4,1.1.2,0,.3-1.2.1-1.7s-1.8-1.7-1.8-1.3c0,1.3.8,1.3,1.2,1.9Z"></path>
    <path class="cls-2" d="M118.7,26.5h0l-.4-.5.2.3v.2c0,0,.1,0,.1,0Z"></path>
    <polygon class="cls-2" points="108.5 36.4 108.2 36.7 108.2 36.8 108.5 36.5 108.5 36.4"></polygon>
    <polygon class="cls-2" points="115 29.3 114.7 29.6 115.1 30 115.4 29.7 115 29.3"></polygon>
    <path class="cls-2" d="M119.1,26l-.3-.5h0c0,.2,0,.4,0,.4,0,0,0,0,0,0l.3.3.2-.2Z"></path>
    <path class="cls-2" d="M116.9,27.3l-.2.2.3.5s0,.1,0,.2l.4-.4-.5-.5Z"></path>
    <path class="cls-2" d="M119.7,25.5s-.6-.6-.6-.5h0l.4.7.2-.2Z"></path>
    <path class="cls-2" d="M114.7,30.4l-.5-.4-.2.2c.1.1.4.5.4.5l.3-.3Z"></path>
    <path class="cls-2" d="M116.8,28.4h0c0,0,0,0,0,0l-.3-.4-.4.4.4.4h0q0,0,0,0l.4-.4Z"></path>
    <polygon class="cls-2" points="125.5 34.3 125.8 34.6 126 34.5 125.7 34.2 125.5 34.3"></polygon>
    <path class="cls-2" d="M138.5,40.1s0-.2,0-.5c0,.1,0,.3,0,.4,0,0,0,0,0,0Z"></path>
    <polygon class="cls-2" points="115.6 28.6 115.4 28.9 115.8 29.4 116.1 29.1 115.6 28.6"></polygon>
    <path class="cls-2" d="M118.3,26.9l-.5-.5-.4.3.3.4c0,0,0,.1,0,.2h0c0,0,.5-.4.5-.4Z"></path>
    <path class="cls-2" d="M101.2,46.3h-.1c0-.1,0,0,.1,0Z"></path>
    <polygon class="cls-2" points="112.5 32 112.2 32.2 112.5 32.6 112.8 32.3 112.5 32"></polygon>
    <polygon class="cls-2" points="109.2 35.8 109 35.6 108.6 36 108.8 36.2 109.2 35.8"></polygon>
    <polygon class="cls-2" points="127.1 35.8 127.4 36.1 127.5 36 127.3 35.7 127.1 35.8"></polygon>
    <polygon class="cls-2" points="110.7 34.3 110.4 34 110.2 34.2 110.5 34.5 110.7 34.3"></polygon>
    <path class="cls-2" d="M128.5,37.2c.1.1.2.2.2.2h.1l-.2-.3h-.1Z"></path>
    <polygon class="cls-2" points="129.2 37.8 129.2 37.8 129.1 37.8 129.2 37.9 129.3 37.9 129.2 37.8"></polygon>
    <polygon class="cls-2" points="127.9 36.6 128 36.7 128.1 36.6 128 36.5 127.9 36.6"></polygon>
    <polygon class="cls-2" points="110.1 35 109.8 34.7 109.3 35.2 109.6 35.5 110.1 35"></polygon>
    <polygon class="cls-2" points="126.3 35 126.7 35.4 126.9 35.3 126.5 34.9 126.3 35"></polygon>
    <polygon class="cls-2" points="114 31.1 113.6 30.6 113.3 30.9 113.7 31.4 114 31.1"></polygon>
    <polygon class="cls-2" points="111.9 32.5 111.4 33 111.7 33.4 112.2 32.9 111.9 32.5"></polygon>
    <polygon class="cls-2" points="113.3 31.8 113 31.4 112.8 31.6 113.1 32 113.3 31.8"></polygon>
    <polygon class="cls-2" points="111.4 33.6 111.1 33.3 110.7 33.7 111 34 111.4 33.6"></polygon>
    <polygon class="cls-2" points="124.8 33.6 125 33.8 125.1 33.6 124.9 33.4 124.8 33.6"></polygon>
    <polygon class="cls-2" points="107.9 37.2 107.4 37.6 107.4 37.7 107.9 37.2 107.9 37.2"></polygon>
    <polygon class="cls-2" points="188.3 50.8 183.1 51.4 181.4 36.7 177.1 37.2 179.4 55.8 182.2 55.4 188.8 54.6 188.3 50.8"></polygon>
    <path class="cls-2" d="M166.5,38.2c-5.2.6-8.8,5.5-8.2,10.8.6,5.3,5.3,9.2,10.5,8.5,5.2-.7,8.8-5.5,8.2-10.8-.6-5.3-5.3-9.2-10.5-8.5ZM168.3,52.8c-2.7.3-5.1-1.7-5.4-4.4-.3-2.8,1.6-5.3,4.2-5.6,2.6-.3,5.1,1.7,5.4,4.4s-1.6,5.3-4.2,5.6Z"></path>
    <polygon class="cls-2" points="52.9 52.2 47.7 52.8 43 61.9 42 53.5 37.7 54 40 72.6 44.2 72 43.2 63.6 50 71.3 55.2 70.7 47.4 62.2 52.9 52.2"></polygon>
    <path class="cls-2" d="M66.3,69.4s5.3-.6,5.3-.6l-6.1-6.8c2-1.1,3.3-3.4,3-5.8-.3-2.4-3.3-5.4-6.4-5l-3.3.4-3.4.4,2.2,18.5,4.2-.5-.8-7,5.3,6.4ZM60,55.2l1.4-.2c1.3-.2,2.4.8,2.6,2,.2,1.3-.8,2.4-2,2.6l-1.4.2-.6-4.6Z"></path>
    <path class="cls-2" d="M92,66.3l-.7-6.1,3-.4c3.2-.4,5.3-2.8,4.8-6.9s-3.7-5.9-6.8-5.5h0c0,0-2.5.4-2.5.4h-.3l-3.9.5,2.2,18.5,4.2-.5ZM92.1,51.7c1.3-.2,2.4.5,2.6,1.9.2,1.6-.7,2.6-2,2.7l-1.9.2-.6-4.6,1.9-.2Z"></path>
    <path class="cls-2" d="M78.2,68.6h1.2c3.7-.6,6.4-4,6-7.7l-1.5-12.4-4.4.5,1.4,12c.2,1.7-1,3.2-2.7,3.4s-3.2-1-3.4-2.7l-1.4-12-4.3.5,1.5,12.4c.4,3.7,3.9,6.4,7.6,6Z"></path>
    <path class="cls-2" d="M101.4,46.4c0,0-.1,0-.2,0l1.7,1.8c-1.8,2-2.7,4.8-2.4,7.7.6,5.3,5.3,9.2,10.5,8.5,5.2-.6,8.8-5.5,8.2-10.8-.6-5.3-5.3-9.2-10.5-8.5-.8,0-1.5.3-2.2.6.5-.8,1.2-2.1,1.4-2.3.3-.3,5-5.5,6.3-6.7,1.4-1.2,7-6.4,7-6.4,0,0,.8-.5,1.2-.2.3.2,0,1.2,0,1.2l-2.2,2.5,1,.7v5.9c-2-1.8-5.3-4.9-5.3-4.5h0c.2.9,3.5,4,5.1,5.5l-.3,21.1,4.9-.6.2-19.4,12.9,17.8,3.2-.4,1.3-4.1,2.9-2.9c.2,0,.4.1.5,0,.3,0,.6-1.4.6-1.4l-2-2.3,3.8-11.9,5.9,21,4.5-.6-8.2-28.9-3.5.5h-.2l-5.2,16.5-3.6-4.2s-.2-.7-.3-1.7c-.6-.7-9.9-10.7-10.2-10.8-.3,0-.8-2.6-.8-3.4s3.8-4.6,4.2-5.3c.4-.7,5.4-5.1,6.6-6.2,1.2-1,4.3-5.1,5.3-6.2,1-1.1,2.9-2.2,3.2-2,.4.2-.3,1.5-.4,1.8-.1.3-1.5.7-2,1.1-.4.4-1.9,3.3-2.8,4.4-.9,1.1-3.8,3.5-3.8,3.5v1.8c0,0-.6,1.9-.6,1.9,0,0,.9-.9,2-2.1,0,0,0,.1,0,.2l.4.3-.5.5h-.1c0-.2-.2-.2-.3,0v.3h.1l-.6.8h-.2c0-.2-.2-.2-.3,0v.3h.2c0,.1-.5.7-.5.7l-.5-.3h-.3v.3l.5.3-.7.8-.5-.2c-.1,0-.2,0-.3,0,0,0,0,.2,0,.3l.4.2-.4.4-.4-.2h-.3v.3h.3c0,0-.5.7-.5.7l-.4-.2h-.3v.3h.3c0,.1-.5.7-.5.7l-.4-.2c-.1,0-.2,0-.3.1,0,0,0,.2.1.3h.3l-.3.5-.5-.2c-.1,0-.2,0-.3,0,0,.1,0,.2,0,.3l.4.2-.4.5h-.4c-.1-.2-.2,0-.3,0,0,.1,0,.2.1.3h.2l-.3.4c-.4-.3-1.2-1-1.5-1.2-.5-.3-2.2-.9-2.2-.9v1.3l2.5,2.2s-.5,0-.6.3c0,.2-.2.6-.2.6,0,0,4.3,4.5,4.5,4.4.2,0-.5-1.5-.5-1.5,0,0,1.2-.9,1.4-1.9s-1.5-2.3-1.5-2.3l5.4-1.1-.3,1.8.5.5s-.7,2.4-.9,3.6c-.6,2.9-.3,5.4,0,6.3-.2-1.4-.3-3.3,0-4.9.6-2.7,1.4-6.4,1.4-6.4l.6-.3-.6-1.9-.8,1.3-3.7.6,2-2.3.6-.3s0,0,.2,0h0c0-.1,5.1-6.1,5.1-6.1v-.2c0,0,8.2-9.3,8.2-9.3.3-.3.3-.8,0-1.1l-3.8-3.4c0,0,.1-.2.1-.2l-1.5-1.2-.7.3-19.1,19.2-1,.2v-.5c-.1,0,2.6-3.6,2.4-3.8h.1c0,0-1.6-1.8-1.6-1.8l-10.2-10.7-2.7-2.8c-.1-.2-.3-.2-.6-.2s-.4.1-.5.3l-1.3,1.5-3,3.4s4.3,5.2,4.8,4.6c.2-.2-3.1-3.3-2.7-3.6.4-.2,2.7.2,3.9.8.7.3,2.5,1.9,2.7,1.7s-4.2-5.1-5.4-6.5l.8-1,.2.2-.5.5v.3h.3l.5-.5.3.3-.5.5s-.1.2,0,.3h.3l.6-.5.4.4-.5.5v.3h.3l.5-.5.3.3-.5.5v.3h.3l.4-.5.4.4-.4.4v.3h.3l.4-.4.5.5-.5.4s-.1.2,0,.3h.3l.5-.4.5.5-.3.3v.3h.3l.3-.3.4.4-.6.6v.3h.3l.5-.6.4.4-.6.6v.3h.3l.6-.6.3.3-.6.6v.3h.3l.6-.6.3.3-.7.6v.3h.3l.7-.6h0c0,.1-.5.6-.5.6v.3h.2c0,0,0,0,0,0,0,0,0,0,0,0v.3h.3l.5-.5.4.4-.2.3v.3h.3l.2-.3.3.3-.2.2v.3h.3l.2-.2.2.2-.3.3v.3h.3l.3-.3.3.4-.2.3v.3h.3l.2-.3.3.3-.2.2v.3h.3l.2-.2.2.3-.3.4v.3h.3l.3-.3.3.3-.2.3v.3h.3l.2-.2.3.3-.4.4v.3h.3l.4-.4.3.4-.3.3v.3h.3l.3-.3.3.3-.3.3v.3h.3l.3-.3.3.3-.3.3v.3h.3l.2-.3.2.2c-1.2,1.4-3.1,4-3.1,4l-.5.2s-7.9-9.1-8.5-8.9c-.3.1,0,.9,0,.9l7.5,8.1v1c0,.2-.2.4-.3.6l-1.8-1.8c-.3-.3-.7-.2-.9,0l-19.3,19.4c-.2.2-.2.6,0,.8l1.7,1.9ZM144.6,51.6l1.1,1.2s0,0,0,0l-1.3,1.3-.5-.5.6-2ZM143.9,54.1l.3.3-.6.6.3-1ZM133.8,28h-.8c0,0,.2-.2.2-.2l.6.2h0ZM135.4,27.8c-.1,0-.8,0-.8,0l-1.1-.4.4-.5,1.5.6v.2ZM135.6,27.3l-1.4-.6.3-.4,1.5.6-.4.4ZM136.3,26.5l-1.5-.6.4-.5,1.4.7-.3.4ZM136.9,25.9h0c0,0-1.4-.8-1.4-.8l.5-.5,1.4.7-.5.6ZM137.7,24.8l-1.3-.7.3-.4,1.5.6-.5.5ZM138.5,24.1l-1.5-.6.6-.7,1.3.8h0c0-.1-.5.5-.5.5ZM139.7,22.6l-.5.5-1.3-.8.5-.6,1.3.8h0ZM140,22.3l-1.3-.8.6-.6,1.1.9-.4.5ZM140.7,21.5l-1.2-1,.5-.5,1.2.9-.5.6ZM141.5,20.5l-1.2-.9.4-.5,1.2.9-.4.5ZM142.1,19.7l-1.2-.9.5-.6,1.2.9h.1l-.6.6ZM143,18.8l-1.2-.9.7-.8,1.1,1-.6.7ZM143.9,17.7l-1.2-1,.5-.6h0c0,0,1.2,1,1.2,1l-.5.6ZM144.7,16.8l-1.2-.9.4-.5h0l1.4.7-.6.7ZM145.5,15.8l-1.4-.7.5-.6h0l1.2.9-.4.4ZM146.3,15l-1.2-.9.4-.5,1.2.9-.4.5ZM146.9,14.2l-1.2-.9.5-.6,1.3.9-.6.6ZM147.8,13.3l-1.2-.8.4-.4,1.2.7-.4.5ZM148.5,12.4l-1.3-.8.5-.6,1.3.8-.5.6ZM149.7,10.9l-.5.6-1.2-.8.6-.6,1.2.8h0ZM150,10.6h0c0-.1-1.2-.9-1.2-.9l.6-.7c.4.2.9.6,1.3.8l-.7.8ZM151.1,8.9c.2,0,.2.4,0,.5h-.1c-.6-.4-.9-.6-1.2-.8l.5-.5.8.8ZM149.9,7.7l-.5.6c-.3-.2-.4-.2-.4-.2,0,0-.2,0-.2.2s0,0,.1.2c0,0,0,0,.2.1l-.6.7h0c0-.2-.2-.1-.3,0v.3h.1l-.6.7h-.2v.2l-.6.7-.3-.2h-.3v.3h.2c0,0-.3.5-.3.5h-.3v.3l-.5.6h-.3v.2l-2.8,3.3h0l-.7.9-.2-.2h-.3v.3l.2.2-.5.6h-.3v.3l-.4.5-.4-.3h-.2c1.5-1.6,3.3-3.5,4.1-4.5,1.5-1.7,5.6-6.9,5.6-6.9,0,0-.6-.5-1.1-1.1-.1,0-.2-.3-.3-.4l2.3,2.1ZM127.6,19.3l-.5.5-.2-.2.5-.5.2.2ZM112.7,4.8l-.2-.2.2-.2s0,0,.2,0h.2l-.4.5ZM113.1,5.1h0l.5-.5.4.4-.5.4-.3-.3ZM113.9,6.2l-.4-.4h0l.5-.4.3.3-.5.5ZM114.3,6.5h0l.5-.5.3.3-.4.5-.3-.3ZM114.8,7.1l.5-.5.4.4-.5.5-.4-.4ZM115.6,7.8h0l.5-.5.6.6-.5.4-.5-.5ZM116.7,9.1l-.4-.4h0c0,0,.5-.5.5-.5l.3.4-.4.5ZM117.4,9.9l-.4-.5.4-.5.5.5-.5.5ZM118.2,10.5l-.4-.4.5-.5.4.4-.5.5ZM118.8,11.2l-.3-.3.5-.5.3.3-.5.5ZM119.3,11.8l-.3-.3.5-.5.3.3-.5.5ZM119.2,13.1l.4-.5c0,0-.2.3-.4.5ZM119.6,12.2h0c0,0,.5-.6.5-.6l-.5.6ZM120,12.6h0c0-.1.5-.6.5-.6l-.5.6ZM120.8,13.3l-.4-.4.5-.5.3.3-.4.6ZM121.5,14l-.4-.4.4-.6.5.5-.5.5ZM121.9,14.5l-.2-.2.5-.5.2.2-.5.5ZM122.5,15.1l-.3-.3.5-.5.3.3-.5.5ZM123.1,15.8l-.3-.3.5-.5.3.3-.5.5ZM123.6,16.3l-.2-.2.5-.5.2.2-.5.5ZM124.2,16.9l-.3-.3.5-.5.3.3-.5.5ZM124.8,17.6l-.3-.3.5-.5.3.3-.5.5ZM125.4,18.2l-.3-.3.5-.5.3.3-.5.5ZM126,18.8l-.3-.3.5-.5.3.3-.5.5ZM126.2,19.1h0l.5-.5.2.2-.5.6-.3-.3ZM128.3,39.1l1.3-.9-1.2,1v-.2ZM128.6,39.5l1.2-.9.2.2-1.2,1-.2-.2ZM129,40.1l1.3-1,.4.4-1.4,1-.3-.4ZM129.6,40.9l1.3-1.1.5.6-1.4,1-.4-.6ZM130.7,42.5l1.2-.8s0-.2,0-.3h0s-.2,0-.3,0l-1.2.8-.3-.5,1.5-1,1,1.1-1.8.9-.2-.3ZM131.2,43.1l1.8-1,.2.3-1.8,1.1-.3-.4ZM131.7,43.8l1.8-1,.3.4s0,0,0,0l-1.8,1-.3-.4ZM132.3,44.6l1.7-1c0,0,0,0,0-.2l.2.3-1.8,1.1-.2-.2ZM132.7,45.2l1.9-1.1.4.4-1.9,1.2-.4-.5ZM133.3,46l2-1.3.7.7-2.3,1.2-.5-.6ZM134,47l2.3-1.2.4.4-2.2,1.5-.5-.7ZM134.7,48l2.2-1.5.2.2-2.1,1.7-.3-.4ZM135.3,48.7l2.1-1.7.5.6-2.4,1.5-.3-.4ZM135.7,49.4l2.4-1.6.3.3-2.4,1.6-.2-.3ZM136.2,50l2.4-1.7.4.5c-1.3,1-1.9,1.6-2.3,1.9l-.5-.7ZM137,51.1c.6-.5,1.6-1.3,2.3-1.9l.3.3-2.3,2-.3-.4ZM137.5,51.8l2.5-2,.4.5-2.4,2.2-.5-.6ZM139.7,54.8l-.7-1,1.3-1-.6,2ZM140.5,52.2l-1.8,1.3-.5-.7,2.5-2.2.2.3-.4,1.3ZM126.9,31.5l14.8,16.8-.6,2.1-7.8-8.5c.1,0,.1-.2,0-.3,0,0-.2,0-.3,0l-1-1c0,0,0-.2,0-.3,0,0-.2,0-.3,0h-.1l-.6-.5v-.4h-.3l-.3-.3h.1c0-.2,0-.3,0-.4,0,0-.2-.1-.3,0h0c0,0-.2-.1-.2-.1v-.3s-.2,0-.3,0l.3-.2s.1-.2,0-.3c0,0-.2,0-.3,0l-.3.2h0c0,0-1.2.8-1.2.8l-.2-.2,1.2-.9h0c0-.1.1-.2,0-.3,0,0-.2-.1-.3,0h0,0c0,0-1.2.9-1.2.9v-.2c-.1,0,.8-.9.8-.9,0,0-.2-.1-.2-.1l.3-.3v-.3h-.5c0,.1.2.3.2.3l-1,1-.3-.3.8-.8-.2-.2.3-.3v-.3h-.3l-.2.2.2.2-.9.9-.5-.6.8-.6h-.1c0-.1.4-.4.4-.4,0,0,0-.2,0-.3,0,0-.2,0-.3,0l-.2.2h.1c0,.1-.9.9-.9.9l-.4-.5.6-.6h-.1c0-.1.4-.5.4-.5,0,0,0-.2,0-.3,0,0-.2-.1-.3,0l-.3.3.2.2-.7.6-.4-.5.4-.4-.2-.2.5-.5v-.3h-.3l-.3.3.3.3-.6.5-.4-.5.3-.3-.3-.3.6-.7c.4,0,1.8-1.1,1.8-1.1ZM124.3,31.2c.6,0,1,.3,1.3.7l-.7.7h-.1v-.2c0,0-.4.3-.4.3l.2.2-.5.5v-.2c-.1,0-.1-1-.1-1,0,0-.6.1-1,0s.7-.9,1.3-.9ZM109.3,49.8c2.6-.3,5.1,1.7,5.4,4.4s-1.6,5.3-4.2,5.6c-2.7.3-5.1-1.7-5.4-4.4-.3-2.7,1.6-5.3,4.2-5.6ZM106.5,37.6l.4.5-.4.4-.4-.5.4-.4ZM105.8,38.3l.4.5-.4.4-.4-.5.4-.4ZM105.1,39l.4.5-.6.6-.4-.5.6-.6ZM103.9,40.1l.2-.3.4.5-.3.3-.4-.5h.1ZM103.6,40.4l.4.5-.3.3-.4-.4h0l.4-.4ZM102.9,41.1l.4.4-.6.6-.4-.4.6-.6ZM102,42l.4.4-.7.7-.4-.4.7-.7ZM100.9,43.1h0c0-.1.4.3.4.3l-.6.6-.4-.4.5-.5ZM99.9,44.1l.2-.2.3.4-.2.2.3.3.2-.2.8.9h.3s.1-.2,0-.3l-.8-.9.6-.6.8.9h.3v-.3l-.8-.9.7-.7.7.8h.3v-.3l-.7-.8.7-.6.7.7h.3v-.3l-.7-.7.3-.3.6.7h.3s.1-.2,0-.3l-.6-.8.3-.3.9,1h.3v-.3l-.9-1,.6-.6.9,1h.3s.1-.2,0-.3l-.9-1.1.4-.4,1,1.1h.3v-.3l-1-1.2.4-.4.5.6h.3s.1-.2,0-.3l-.5-.6-.2.2-.4-.5h0c0,0,.7-.8.7-.8l.4.6.2-.2.6.9h.2s0-.2,0-.3l-.7-.8h0s-.4-.6-.4-.6l.3-.3.4.5h0s.6.9.6.9h.2s0-.2,0-.3l-.7-1h0s-.2-.4-.2-.4l.4-.4.4.6h0s.4.6.4.6h.3s0-.2,0-.3l-.7-.8h.1c0-.1-.2-.4-.2-.4l.6-.6.5.6h-.1c0,.1.6.8.6.8h.3s.1-.2,0-.3l-.9-1.1h.1c0-.1-.2-.3-.2-.3l.3-.3.5.5h-.1c0,.1.7.9.7.9h.3v-.3l-1-1.1h0s-.2-.3-.2-.3h0l.3-.4.5.6h0s.6.7.6.7h.3v-.3l-.6-.6h0s-.5-.6-.5-.6l.5-.5.2.2h0s1,1.2,1,1.2h.3v-.3l-.7-.8h0s-.5-.6-.5-.6l.3-.3.5.6h0s.3.5.3.5h.3s0-.2,0-.3l-.7-.8h0c0,0-.2-.3-.2-.3l.3-.3.5.6h0c0,0,.3.4.3.4h.3v-.3l-.7-.8h0c0,0,0-.2,0-.2l.4-.4.5.6h0c0,0,0,.2,0,.2h.3s0-.2,0-.3l-.5-.6h0c0-.1,0-.2,0-.2l.2-.2h.1c0,0,0,0,0,0l.6.5h.3v-.3h0c0,0,0,0,0,0l-.5-.5.5-.5v.2c.1,0,.2,0,.2,0l.5.6h.3v-.3h0c0-.1,0-.1,0-.1l-.6-.6.3-.3v.2c.1,0,.2,0,.2,0l.4.4h.3v-.2l-.6-.6.5-.5.4.6h.3s0,0,0-.1h0s-.5-.7-.5-.7h0c0,0,.3-.4.3-.4v.2c.1,0,.3-.2.3-.2l.3.3h.3s0,0,0,0l-.5-.6.5-.5h0c0,0,.2,0,.2,0l.3.4h.3c-.2-.3-.5-.6-.5-.6h0l.2-.2.2.2h0c0-.1,0-.1,0-.1h.2l-.3-.4h.1l.2-.2.2.2h.1c0-.1.4.5.4.5h.2s0-.2,0-.3l-.5-.7h0s0,0,0,0h0s.3-.3.3-.3l.7.8h.3v-.3l-.7-.8,1,.9s.8.9.8,1.5l.8,1.2c0,.6-1.1,1.1-1.1,1.1,0,0-16.3,16.2-17.8,17.4-.4.3-.8.3-1.2.3l-2.2-2.5v-.2ZM119.6,24.6h.1l.5.5h-.1l-.5-.5Z"></path>
  </g>
</symbol>
<symbol viewBox="0 0 24 24" id="linkedin">  
  <path d="M16,7c-3.9,0-7,3.1-7,7v7c0,.6.4,1,1,1h4c.6,0,1-.4,1-1v-7c0-.6.4-1,1-1s1,.4,1,1v7c0,.6.4,1,1,1h4c.6,0,1-.4,1-1v-7c0-3.9-3.1-7-7-7ZM21,20h-2v-6c0-1.7-1.3-3-3-3s-3,1.3-3,3v6h-2v-6c0-2.8,2.2-5,5-5s5,2.2,5,5v6Z"></path>
  <path d="M6,8H2c-.6,0-1,.4-1,1v12c0,.6.4,1,1,1h4c.6,0,1-.4,1-1v-12c0-.6-.4-1-1-1ZM5,20h-2v-10h2v10Z"></path>
  <path d="M4,1c-1.7,0-3,1.3-3,3s1.3,3,3,3,3-1.3,3-3S5.7,1,4,1ZM4,5c-.6,0-1-.4-1-1s.4-1,1-1,1,.4,1,1-.4,1-1,1Z"></path>
</symbol>
<symbol viewBox="0 0 24 24" id="mailbox">
  <path d="M18,4H6.5c-3,0-5.5,2.5-5.5,5.5v7.5c0,1.7,1.3,3,3,3h16c1.7,0,3-1.3,3-3v-8c0-2.8-2.2-5-5-5ZM3,17v-7.5c0-2,1.5-3.5,3.5-3.5s3.5,1.5,3.5,3.5v7.5c0,.6-.4,1-1,1h-5c-.6,0-1-.4-1-1ZM21,17c0,.6-.4,1-1,1h-8.2c.1-.3.2-.6.2-1v-7.5c0-1.3-.5-2.5-1.3-3.5h7.3c1.7,0,3,1.3,3,3v8Z"></path>
  <path d="M18,8h-3c-.6,0-1,.4-1,1s.4,1,1,1h2v1c0,.6.4,1,1,1s1-.4,1-1v-2c0-.6-.4-1-1-1Z"></path>
  <path d="M7,9h-1c-.6,0-1,.4-1,1s.4,1,1,1h1c.6,0,1-.4,1-1s-.4-1-1-1Z"></path>
</symbol>
<symbol viewBox="0 0 24 24" id="map-pinned">  
  <path d="M15,8c0-1.7-1.3-3-3-3s-3,1.3-3,3,1.3,3,3,3,3-1.3,3-3ZM11,8c0-.6.4-1,1-1s1,.4,1,1-.4,1-1,1-1-.4-1-1Z"></path>
  <path d="M22.9,20.4l-2-6c-.3-.8-1-1.4-1.9-1.4h-1.8c1-1.5,1.8-3.3,1.8-5,0-3.9-3.1-7-7-7s-7,3.1-7,7,.8,3.5,1.8,5h-1.8c-.9,0-1.6.5-1.9,1.4l-2,6c-.2.5-.1,1,.1,1.5s.6.8,1.2,1c.2,0,.4.1.6.1h18c.5,0,1-.2,1.4-.6.4-.4.6-.9.6-1.4,0-.2,0-.4-.1-.6ZM12,3c2.8,0,5,2.2,5,5s-3.7,6.9-5,8c-1.3-1.1-5-4.8-5-8s2.2-5,5-5ZM3,21l2-6h3.3c.9,1.1,1.9,2,2.5,2.6.3.3.8.4,1.2.4s.9-.1,1.3-.5c.6-.6,1.5-1.4,2.5-2.5h3.3l2,6H3Z"></path>
</symbol>
<symbol viewBox="0 0 37 17" id="menu_icon">
  <path d="M1,2h35c.6,0,1-.4,1-1S36.6,0,36,0H1C.4,0,0,.4,0,1s.4,1,1,1Z"></path>
  <path d="M36,7H8c-.6,0-1,.4-1,1s.4,1,1,1h28c.6,0,1-.4,1-1s-.4-1-1-1Z"></path>
  <path d="M36,15H1c-.6,0-1,.4-1,1s.4,1,1,1h35c.6,0,1-.4,1-1s-.4-1-1-1Z"></path>
</symbol>
<symbol viewBox="0 0 24 24" id="phone-call">  
  <path d="M20.4,13.9c-.9-.1-1.8-.3-2.6-.6-1.1-.4-2.3-.1-3.2.7l-.7.7c-1.8-1.2-3.4-2.7-4.6-4.6l.7-.7c.8-.8,1.1-2.1.7-3.2-.3-.8-.5-1.7-.6-2.6-.2-1.5-1.5-2.6-3-2.6h-3c0,0-.2,0-.3,0-.8,0-1.5.5-2,1.1-.5.6-.8,1.4-.7,2.2.3,3.2,1.5,6.4,3.2,9.1,1.6,2.5,3.8,4.7,6.3,6.3,2.7,1.8,5.8,2.9,9.1,3.2,0,0,.2,0,.3,0,.8,0,1.6-.3,2.1-.9.6-.6.9-1.3.9-2.1v-3c0-1.5-1.1-2.8-2.6-3ZM21,16.9v3c0,.3-.1.5-.3.7s-.4.3-.7.3h0c-2.9-.3-5.7-1.3-8.2-2.9-2.3-1.4-4.2-3.4-5.7-5.7-1.6-2.5-2.6-5.3-2.9-8.2,0-.3,0-.5.2-.7.2-.2.4-.3.8-.4h3c.5,0,.9.4,1,.9.1,1,.4,2.1.8,3,.1.4,0,.8-.2,1.1l-1.3,1.3c-.3.3-.4.8-.2,1.2,1.5,2.7,3.7,4.9,6.4,6.4.4.2.9.2,1.2-.2l1.3-1.3c.3-.3.7-.4,1.1-.2,1,.4,2,.6,3,.8.5,0,.9.5.9,1h0Z"></path>
  <path d="M13.9,3c3.7.4,6.7,3.4,7.1,7.1,0,.5.5.9,1,.9s0,0,.1,0c.5,0,.9-.6.9-1.1-.5-4.6-4.3-8.3-8.9-8.8-.5,0-1,.3-1.1.9,0,.5.3,1,.9,1.1Z"></path>
  <path d="M14.2,5c-.5-.1-1.1.2-1.2.8-.1.5.2,1.1.8,1.2,1.6.3,2.9,1.6,3.2,3.2,0,.5.5.8,1,.8s.1,0,.2,0c.5,0,.9-.6.8-1.2-.4-2.4-2.3-4.3-4.7-4.8Z"></path>
</symbol>
<symbol viewBox="0 0 24 24" id="tiktok">  
  <path d="M18.7,6.1c-.1,0-.3-.2-.4-.2-.4-.3-.7-.5-1-.9-.8-.9-1.1-1.8-1.2-2.4h0c0-.5,0-.9,0-.9h-3.5v13.7c0,.2,0,.4,0,.5,0,0,0,0,0,0,0,0,0,0,0,0h0c0,1-.6,1.9-1.5,2.4-.4.3-.9.4-1.5.4-1.6,0-3-1.3-3-3s1.3-3,3-3c.3,0,.6,0,.9.1v-3.6c-1.8-.2-3.7.3-5.1,1.5-.6.5-1.1,1.2-1.5,1.9-.1.3-.7,1.3-.8,3,0,1,.2,1.9.4,2.3h0c0,.2.4,1.1,1,1.8.4.6,1,1,1.5,1.4h0s0,0,0,0c1.7,1.2,3.6,1.1,3.6,1.1.3,0,1.4,0,2.7-.6,1.4-.7,2.2-1.6,2.2-1.6.5-.6.9-1.3,1.2-2,.3-.8.4-1.8.4-2.3v-7.3s.6.4.6.4c0,0,.8.5,2.1.9.9.2,2.2.3,2.2.3v-3.5c-.4,0-1.3,0-2.2-.5Z"></path>
</symbol>
<symbol viewBox="0 0 45 23.74" id="uk">
  <g>
   <polygon fill="#005BBB" points="0,11.87 45,11.87 45,0 0,0 "></polygon>
   <polygon fill="#FFD500" points="0,23.74 45,23.74 45,11.87 0,11.87 "></polygon>
  </g>
</symbol>
<symbol viewBox="0 0 24 24" id="wheat">
    <path d="M23,4V2c0-.6-.4-1-1-1h-2c-2.1,0-3.8,1.3-4.6,3,0,0-.1-.1-.2-.2l-1.5-1.5c-.4-.4-1-.4-1.4,0l-1.5,1.5h0c-.7.7-1.1,1.5-1.2,2.4-.4-.2-.9-.2-1.2.1l-1.5,1.5h0c-.7.7-1.1,1.5-1.2,2.4-.4-.2-.9-.2-1.2.1l-1.5,1.5h0c-1.7,1.8-1.7,4.6,0,6.4l.8.8-2.3,2.3c-.4.4-.4,1,0,1.4s.5.3.7.3.5,0,.7-.3l2.3-2.3.8.8c.9.9,2,1.3,3.2,1.3s2.3-.4,3.2-1.3l1.5-1.5c.2-.2.3-.4.3-.7s0-.4-.2-.5c.9-.2,1.7-.6,2.4-1.2l1.5-1.5c.2-.2.3-.4.3-.7s0-.4-.2-.5c.9-.2,1.7-.6,2.4-1.2l1.5-1.5c.2-.2.3-.4.3-.7s-.1-.5-.3-.7l-1.5-1.5s0,0,0,0c0,0-.1-.1-.2-.2,1.8-.8,3-2.5,3-4.6ZM12.2,5.2l.8-.8.8.8c1,1,1,2.6,0,3.5l-.7.7h-.1c0,.1-.8-.7-.8-.7-1-1-1-2.6,0-3.5ZM8.2,9.2l.8-.8.8.8c1,1,1,2.6,0,3.5l-.7.7-.2.2-.8-.8c-1-1-1-2.6,0-3.5ZM4.2,13.2l.8-.8.8.8c1,1,1,2.6,0,3.5l-.8.8-.8-.8c-1-1-1-2.6,0-3.5ZM10.8,19.8c-1,1-2.6,1-3.5,0l-.8-.8.8-.8c1-1,2.6-1,3.5,0l.8.8-.8.8ZM14.8,15.8c-1,1-2.6,1-3.5,0l-.8-.8.8-.8c1-1,2.6-1,3.5,0l.8.8-.8.8ZM18.8,11.8c-1,1-2.6,1-3.5,0l-.8-.8.8-.8h0c1-1,2.6-1,3.5,0l.8.8-.8.8ZM21,4c0,1.7-1.3,3-3,3h-1v-1c0-1.7,1.3-3,3-3h1v1Z"></path>
</symbol>
<symbol viewBox="0 0 24 24" id="x-mark">  
  <path d="M13.5,12l5.1-5.1c.4-.4.4-1.1,0-1.5-.4-.4-1.1-.4-1.5,0l-5.1,5.1-5.1-5.1c-.4-.4-1.1-.4-1.5,0-.4.4-.4,1.1,0,1.5l5.1,5.1-5.1,5.1c-.4.4-.4,1.1,0,1.5.4.4,1.1.4,1.5,0l5.1-5.1,5.1,5.1c.2.2.5.4.8.4s.6-.1.8-.4c.4-.4.4-1.1,0-1.5,0,0-5.1-5.1-5.1-5.1Z"></path>
</symbol>
</defs>
</svg>