<?xml version="1.0" encoding="UTF-8"?>
<svg xmlns="http://www.w3.org/2000/svg" xmlns:xlink="http://www.w3.org/1999/xlink" width="0" height="0">
<defs>
<symbol viewBox="0 0 63 16" id="arrow_right">
<path d="M62.7071 8.70711C63.0976 8.31658 63.0976 7.68342 62.7071 7.29289L56.3431 0.928932C55.9526 0.538408 55.3195 0.538408 54.9289 0.928932C54.5384 1.31946 54.5384 1.95262 54.9289 2.34315L60.5858 8L54.9289 13.6569C54.5384 14.0474 54.5384 14.6805 54.9289 15.0711C55.3195 15.4616 55.9526 15.4616 56.3431 15.0711L62.7071 8.70711ZM0 9H62V7H0V9Z" fill="black"></path>
</symbol>
<symbol viewBox="0 0 24 24" id="dollar-sign">
  <path d="M14.5,11h-1.5v-5h4c.6,0,1-.4,1-1s-.4-1-1-1h-4V2c0-.6-.4-1-1-1s-1,.4-1,1v2h-1.5c-2.5,0-4.5,2-4.5,4.5s2,4.5,4.5,4.5h1.5v5h-5c-.6,0-1,.4-1,1s.4,1,1,1h5v2c0,.6.4,1,1,1s1-.4,1-1v-2h1.5c2.5,0,4.5-2,4.5-4.5s-2-4.5-4.5-4.5ZM9.5,11c-1.4,0-2.5-1.1-2.5-2.5s1.1-2.5,2.5-2.5h1.5v5h-1.5ZM14.5,18h-1.5v-5h1.5c1.4,0,2.5,1.1,2.5,2.5s-1.1,2.5-2.5,2.5Z"></path>
</symbol>
<symbol viewBox="0 0 24 24" id="facebook">  
  <path d="M18,7c.6,0,1-.4,1-1V2c0-.6-.4-1-1-1h-3c-3.3,0-6,2.7-6,6v2h-2c-.6,0-1,.4-1,1v4c0,.6.4,1,1,1h2v7c0,.6.4,1,1,1h4c.6,0,1-.4,1-1v-7h2c.5,0,.9-.3,1-.8l1-4c0-.3,0-.6-.2-.9s-.5-.4-.8-.4h-3v-2h3ZM14,11h2.7l-.5,2h-2.2c-.6,0-1,.4-1,1v7h-2v-7c0-.6-.4-1-1-1h-2v-2h2c.6,0,1-.4,1-1v-3c0-2.2,1.8-4,4-4h2v2h-2c-1.1,0-2,.9-2,2v3c0,.6.4,1,1,1Z"></path>
</symbol>
<symbol viewBox="0 0 24 24" id="factory">
  <path d="M22.5,7.1c-.3-.2-.7-.1-1,0l-5.4,3.9v-3.1c0-.4-.2-.7-.5-.9-.3-.2-.7-.1-1,0l-5.4,3.9V4c0-1.7-1.3-3-3-3h-2c-1.7,0-3,1.3-3,3v16c0,1.7,1.3,3,3,3h16c1.7,0,3-1.3,3-3V8c0-.4-.2-.7-.5-.9ZM21,20c0,.6-.4,1-1,1H4c-.6,0-1-.4-1-1V4c0-.6.4-1,1-1h2c.6,0,1,.4,1,1v9c0,.4.2.7.5.9.3.2.7.1,1,0l5.4-3.9v3.1c0,.4.2.7.5.9.3.2.7.1,1,0l5.4-3.9v10.1Z"></path>
  <path d="M17,19h1c.6,0,1-.4,1-1s-.4-1-1-1h-1c-.6,0-1,.4-1,1s.4,1,1,1Z"></path>
  <path d="M13,17h-1c-.6,0-1,.4-1,1s.4,1,1,1h1c.6,0,1-.4,1-1s-.4-1-1-1Z"></path>
  <path d="M8,17h-1c-.6,0-1,.4-1,1s.4,1,1,1h1c.6,0,1-.4,1-1s-.4-1-1-1Z"></path>
</symbol>
<symbol viewBox="0 0 24 24" id="house">  
  <path d="M20.9,7.7L13.9,1.7c-1.1-.9-2.8-.9-3.9,0L3.1,7.7c-.7.6-1.1,1.4-1.1,2.3v9c0,1.7,1.3,3,3,3h14c1.7,0,3-1.3,3-3v-9c0-.9-.4-1.7-1.1-2.3ZM14,20h-4v-7h4v7ZM20,19c0,.6-.4,1-1,1h-3v-7c0-1.1-.9-2-2-2h-4c-1.1,0-2,.9-2,2v7h-3c-.6,0-1-.4-1-1v-9c0-.3.1-.6.4-.8l7-6c.2-.2.4-.2.6-.2s.5,0,.6.2l7,6c.2.2.4.5.4.8v9Z"></path>
</symbol>
<symbol viewBox="0 0 24 24" id="instagram">  
  <path d="M17,1H7C3.7,1,1,3.7,1,7v10c0,3.3,2.7,6,6,6h10c3.3,0,6-2.7,6-6V7c0-3.3-2.7-6-6-6ZM21,17c0,2.2-1.8,4-4,4H7c-2.2,0-4-1.8-4-4V7c0-2.2,1.8-4,4-4h10c2.2,0,4,1.8,4,4v10Z"></path>
  <path d="M12.8,7c-.5,0-1,0-1.5,0-2.7.4-4.6,3-4.2,5.7.2,1.3.9,2.5,2,3.3.9.6,1.9,1,3,1s.5,0,.7,0c1.3-.2,2.5-.9,3.3-2,.8-1.1,1.1-2.4.9-3.7-.3-2.2-2-3.9-4.2-4.2ZM14.5,13.7c-.5.6-1.2,1.1-2,1.2-.8.1-1.6,0-2.2-.6s-1.1-1.2-1.2-2c-.2-1.6.9-3.2,2.5-3.4.1,0,.3,0,.4,0s.3,0,.4,0c1.3.2,2.3,1.2,2.5,2.5.1.8,0,1.6-.6,2.2Z"></path>
  <path d="M17.5,5.5h0c-.6,0-1,.4-1,1s.5,1,1,1,1-.4,1-1-.4-1-1-1Z"></path>
</symbol>
<symbol viewBox="0 0 24 24" id="linkedin">  
  <path d="M16,7c-3.9,0-7,3.1-7,7v7c0,.6.4,1,1,1h4c.6,0,1-.4,1-1v-7c0-.6.4-1,1-1s1,.4,1,1v7c0,.6.4,1,1,1h4c.6,0,1-.4,1-1v-7c0-3.9-3.1-7-7-7ZM21,20h-2v-6c0-1.7-1.3-3-3-3s-3,1.3-3,3v6h-2v-6c0-2.8,2.2-5,5-5s5,2.2,5,5v6Z"></path>
  <path d="M6,8H2c-.6,0-1,.4-1,1v12c0,.6.4,1,1,1h4c.6,0,1-.4,1-1v-12c0-.6-.4-1-1-1ZM5,20h-2v-10h2v10Z"></path>
  <path d="M4,1c-1.7,0-3,1.3-3,3s1.3,3,3,3,3-1.3,3-3S5.7,1,4,1ZM4,5c-.6,0-1-.4-1-1s.4-1,1-1,1,.4,1,1-.4,1-1,1Z"></path>
</symbol>
<symbol viewBox="0 0 24 24" id="mailbox">
  <path d="M18,4H6.5c-3,0-5.5,2.5-5.5,5.5v7.5c0,1.7,1.3,3,3,3h16c1.7,0,3-1.3,3-3v-8c0-2.8-2.2-5-5-5ZM3,17v-7.5c0-2,1.5-3.5,3.5-3.5s3.5,1.5,3.5,3.5v7.5c0,.6-.4,1-1,1h-5c-.6,0-1-.4-1-1ZM21,17c0,.6-.4,1-1,1h-8.2c.1-.3.2-.6.2-1v-7.5c0-1.3-.5-2.5-1.3-3.5h7.3c1.7,0,3,1.3,3,3v8Z"></path>
  <path d="M18,8h-3c-.6,0-1,.4-1,1s.4,1,1,1h2v1c0,.6.4,1,1,1s1-.4,1-1v-2c0-.6-.4-1-1-1Z"></path>
  <path d="M7,9h-1c-.6,0-1,.4-1,1s.4,1,1,1h1c.6,0,1-.4,1-1s-.4-1-1-1Z"></path>
</symbol>
<symbol viewBox="0 0 24 24" id="map-pinned">  
  <path d="M15,8c0-1.7-1.3-3-3-3s-3,1.3-3,3,1.3,3,3,3,3-1.3,3-3ZM11,8c0-.6.4-1,1-1s1,.4,1,1-.4,1-1,1-1-.4-1-1Z"></path>
  <path d="M22.9,20.4l-2-6c-.3-.8-1-1.4-1.9-1.4h-1.8c1-1.5,1.8-3.3,1.8-5,0-3.9-3.1-7-7-7s-7,3.1-7,7,.8,3.5,1.8,5h-1.8c-.9,0-1.6.5-1.9,1.4l-2,6c-.2.5-.1,1,.1,1.5s.6.8,1.2,1c.2,0,.4.1.6.1h18c.5,0,1-.2,1.4-.6.4-.4.6-.9.6-1.4,0-.2,0-.4-.1-.6ZM12,3c2.8,0,5,2.2,5,5s-3.7,6.9-5,8c-1.3-1.1-5-4.8-5-8s2.2-5,5-5ZM3,21l2-6h3.3c.9,1.1,1.9,2,2.5,2.6.3.3.8.4,1.2.4s.9-.1,1.3-.5c.6-.6,1.5-1.4,2.5-2.5h3.3l2,6H3Z"></path>
</symbol>
<symbol viewBox="0 0 24 24" id="phone-call">  
  <path d="M20.4,13.9c-.9-.1-1.8-.3-2.6-.6-1.1-.4-2.3-.1-3.2.7l-.7.7c-1.8-1.2-3.4-2.7-4.6-4.6l.7-.7c.8-.8,1.1-2.1.7-3.2-.3-.8-.5-1.7-.6-2.6-.2-1.5-1.5-2.6-3-2.6h-3c0,0-.2,0-.3,0-.8,0-1.5.5-2,1.1-.5.6-.8,1.4-.7,2.2.3,3.2,1.5,6.4,3.2,9.1,1.6,2.5,3.8,4.7,6.3,6.3,2.7,1.8,5.8,2.9,9.1,3.2,0,0,.2,0,.3,0,.8,0,1.6-.3,2.1-.9.6-.6.9-1.3.9-2.1v-3c0-1.5-1.1-2.8-2.6-3ZM21,16.9v3c0,.3-.1.5-.3.7s-.4.3-.7.3h0c-2.9-.3-5.7-1.3-8.2-2.9-2.3-1.4-4.2-3.4-5.7-5.7-1.6-2.5-2.6-5.3-2.9-8.2,0-.3,0-.5.2-.7.2-.2.4-.3.8-.4h3c.5,0,.9.4,1,.9.1,1,.4,2.1.8,3,.1.4,0,.8-.2,1.1l-1.3,1.3c-.3.3-.4.8-.2,1.2,1.5,2.7,3.7,4.9,6.4,6.4.4.2.9.2,1.2-.2l1.3-1.3c.3-.3.7-.4,1.1-.2,1,.4,2,.6,3,.8.5,0,.9.5.9,1h0Z"></path>
  <path d="M13.9,3c3.7.4,6.7,3.4,7.1,7.1,0,.5.5.9,1,.9s0,0,.1,0c.5,0,.9-.6.9-1.1-.5-4.6-4.3-8.3-8.9-8.8-.5,0-1,.3-1.1.9,0,.5.3,1,.9,1.1Z"></path>
  <path d="M14.2,5c-.5-.1-1.1.2-1.2.8-.1.5.2,1.1.8,1.2,1.6.3,2.9,1.6,3.2,3.2,0,.5.5.8,1,.8s.1,0,.2,0c.5,0,.9-.6.8-1.2-.4-2.4-2.3-4.3-4.7-4.8Z"></path>
</symbol>
<symbol viewBox="0 0 24 24" id="tiktok">  
  <path d="M18.7,6.1c-.1,0-.3-.2-.4-.2-.4-.3-.7-.5-1-.9-.8-.9-1.1-1.8-1.2-2.4h0c0-.5,0-.9,0-.9h-3.5v13.7c0,.2,0,.4,0,.5,0,0,0,0,0,0,0,0,0,0,0,0h0c0,1-.6,1.9-1.5,2.4-.4.3-.9.4-1.5.4-1.6,0-3-1.3-3-3s1.3-3,3-3c.3,0,.6,0,.9.1v-3.6c-1.8-.2-3.7.3-5.1,1.5-.6.5-1.1,1.2-1.5,1.9-.1.3-.7,1.3-.8,3,0,1,.2,1.9.4,2.3h0c0,.2.4,1.1,1,1.8.4.6,1,1,1.5,1.4h0s0,0,0,0c1.7,1.2,3.6,1.1,3.6,1.1.3,0,1.4,0,2.7-.6,1.4-.7,2.2-1.6,2.2-1.6.5-.6.9-1.3,1.2-2,.3-.8.4-1.8.4-2.3v-7.3s.6.4.6.4c0,0,.8.5,2.1.9.9.2,2.2.3,2.2.3v-3.5c-.4,0-1.3,0-2.2-.5Z"></path>
</symbol>
<symbol viewBox="0 0 24 24" id="wheat">
    <path d="M23,4V2c0-.6-.4-1-1-1h-2c-2.1,0-3.8,1.3-4.6,3,0,0-.1-.1-.2-.2l-1.5-1.5c-.4-.4-1-.4-1.4,0l-1.5,1.5h0c-.7.7-1.1,1.5-1.2,2.4-.4-.2-.9-.2-1.2.1l-1.5,1.5h0c-.7.7-1.1,1.5-1.2,2.4-.4-.2-.9-.2-1.2.1l-1.5,1.5h0c-1.7,1.8-1.7,4.6,0,6.4l.8.8-2.3,2.3c-.4.4-.4,1,0,1.4s.5.3.7.3.5,0,.7-.3l2.3-2.3.8.8c.9.9,2,1.3,3.2,1.3s2.3-.4,3.2-1.3l1.5-1.5c.2-.2.3-.4.3-.7s0-.4-.2-.5c.9-.2,1.7-.6,2.4-1.2l1.5-1.5c.2-.2.3-.4.3-.7s0-.4-.2-.5c.9-.2,1.7-.6,2.4-1.2l1.5-1.5c.2-.2.3-.4.3-.7s-.1-.5-.3-.7l-1.5-1.5s0,0,0,0c0,0-.1-.1-.2-.2,1.8-.8,3-2.5,3-4.6ZM12.2,5.2l.8-.8.8.8c1,1,1,2.6,0,3.5l-.7.7h-.1c0,.1-.8-.7-.8-.7-1-1-1-2.6,0-3.5ZM8.2,9.2l.8-.8.8.8c1,1,1,2.6,0,3.5l-.7.7-.2.2-.8-.8c-1-1-1-2.6,0-3.5ZM4.2,13.2l.8-.8.8.8c1,1,1,2.6,0,3.5l-.8.8-.8-.8c-1-1-1-2.6,0-3.5ZM10.8,19.8c-1,1-2.6,1-3.5,0l-.8-.8.8-.8c1-1,2.6-1,3.5,0l.8.8-.8.8ZM14.8,15.8c-1,1-2.6,1-3.5,0l-.8-.8.8-.8c1-1,2.6-1,3.5,0l.8.8-.8.8ZM18.8,11.8c-1,1-2.6,1-3.5,0l-.8-.8.8-.8h0c1-1,2.6-1,3.5,0l.8.8-.8.8ZM21,4c0,1.7-1.3,3-3,3h-1v-1c0-1.7,1.3-3,3-3h1v1Z"></path>
</symbol>
</defs>
</svg>