<?xml version="1.0" encoding="UTF-8"?>
<svg xmlns="http://www.w3.org/2000/svg" xmlns:xlink="http://www.w3.org/1999/xlink" width="0" height="0">
<defs>
<symbol viewBox="0 0 800 800" id="archive">
  <path d="M100,333.33h600v333.47c0,18.33-14.83,33.2-33.1,33.2H133.1c-18.3-.02-33.12-14.87-33.1-33.17,0-.01,0-.02,0-.03v-333.47ZM300,400v66.67h200v-66.67h-200ZM66.67,133.33c0-18.4,15.17-33.33,33.07-33.33h600.53c18.27,0,33.07,14.8,33.07,33.33v133.33H66.67v-133.33Z"></path>
</symbol>
<symbol viewBox="0 0 63 16" id="arrow_right">
<path d="M62.7071 8.70711C63.0976 8.31658 63.0976 7.68342 62.7071 7.29289L56.3431 0.928932C55.9526 0.538408 55.3195 0.538408 54.9289 0.928932C54.5384 1.31946 54.5384 1.95262 54.9289 2.34315L60.5858 8L54.9289 13.6569C54.5384 14.0474 54.5384 14.6805 54.9289 15.0711C55.3195 15.4616 55.9526 15.4616 56.3431 15.0711L62.7071 8.70711ZM0 9H62V7H0V9Z" fill="black"></path>
</symbol>
<symbol viewBox="0 0 18 18" id="arrow-right-top">
    <path d="M5.25 0.75L16.5 0.75C16.6989 0.75 16.8897 0.829018 17.0303 0.96967C17.171 1.11032 17.25 1.30109 17.25 1.5V12.75C17.25 13.1642 16.9142 13.5 16.5 13.5C16.0858 13.5 15.75 13.1642 15.75 12.75V3.31066L2.03033 17.0303C1.73744 17.3232 1.26256 17.3232 0.96967 17.0303C0.676777 16.7374 0.676777 16.2626 0.96967 15.9697L14.6893 2.25L5.25 2.25C4.83579 2.25 4.5 1.91421 4.5 1.5C4.5 1.08579 4.83579 0.75 5.25 0.75Z"></path>
</symbol>
<symbol viewBox="0 0 29 30" id="checked">
<path d="M18.0765 11L12.6744 19L10.0765 15.957M10.0765 28.3333H18.0765C23.2312 28.3333 27.4098 24.1546 27.4098 19V11C27.4098 5.8453 23.2312 1.66663 18.0765 1.66663H10.0765C4.92184 1.66663 0.743164 5.8453 0.743164 11V19C0.743164 24.1546 4.92184 28.3333 10.0765 28.3333Z" stroke="#F3CC6A" stroke-width="1.5" stroke-linecap="round" stroke-linejoin="round"></path>
</symbol>
<symbol viewBox="0 0 24 24" id="dollar-sign">
  <path d="M14.5,11h-1.5v-5h4c.6,0,1-.4,1-1s-.4-1-1-1h-4V2c0-.6-.4-1-1-1s-1,.4-1,1v2h-1.5c-2.5,0-4.5,2-4.5,4.5s2,4.5,4.5,4.5h1.5v5h-5c-.6,0-1,.4-1,1s.4,1,1,1h5v2c0,.6.4,1,1,1s1-.4,1-1v-2h1.5c2.5,0,4.5-2,4.5-4.5s-2-4.5-4.5-4.5ZM9.5,11c-1.4,0-2.5-1.1-2.5-2.5s1.1-2.5,2.5-2.5h1.5v5h-1.5ZM14.5,18h-1.5v-5h1.5c1.4,0,2.5,1.1,2.5,2.5s-1.1,2.5-2.5,2.5Z"></path>
</symbol>
<symbol viewBox="0 0 33.07 17.45" id="en">
  <g>
   <polygon fill="white" points="0,17.42 33.06,17.42 33.06,0 0,0 "></polygon>
   <polygon fill="#CE1124" points="33.06,6.97 18.51,6.97 18.51,0 14.53,0 14.53,6.97 0.01,6.97 0.01,10.45 14.53,10.45 14.53,17.42 18.51,17.42 18.51,10.45 33.06,10.45 "></polygon>
   <polygon fill="#00247D" points="0,2.03 0,5.82 7.21,5.82 "></polygon>
   <polygon fill="#00247D" points="3.98,0 3.87,0.01 13.22,4.95 13.22,0 "></polygon>
   <polygon fill="#CE1124" points="11.1,5.8 0,0 0,1.37 8.45,5.8 "></polygon>
   <polygon fill="#CE1124" points="21.97,11.62 33.07,17.42 33.07,16.05 24.62,11.62 "></polygon>
   <polygon fill="#00247D" points="0,15.42 0,11.63 7.21,11.63 "></polygon>
   <polygon fill="#00247D" points="3.98,17.45 3.87,17.44 13.22,12.5 13.22,17.45 "></polygon>
   <polygon fill="#CE1124" points="11.04,11.62 0.01,17.41 2.59,17.42 13.23,11.86 13.23,11.62 "></polygon>
   <polygon fill="#00247D" points="33.07,2.03 33.07,5.82 25.86,5.82 "></polygon>
   <polygon fill="#00247D" points="29.09,0 29.2,0.01 19.85,4.95 19.85,0 "></polygon>
   <polygon fill="#CE1124" points="33.06,0.01 30.58,0.01 19.86,5.61 19.86,5.8 22.12,5.8 "></polygon>
   <polygon fill="#00247D" points="33.07,15.42 33.07,11.63 25.86,11.63 "></polygon>
   <polygon fill="#00247D" points="29.09,17.45 29.2,17.44 19.85,12.5 19.85,17.45 "></polygon>
  </g>
</symbol>
<symbol viewBox="0 0 25 24" id="facebook">
<g clip-path="url(#clip0_180_174)">
<path d="M12.506 0C5.87862 0 0.505981 5.37264 0.505981 12C0.505981 17.6275 4.38054 22.3498 9.60726 23.6467V15.6672H7.13286V12H9.60726V10.4198C9.60726 6.33552 11.4557 4.4424 15.4657 4.4424C16.226 4.4424 17.5378 4.59168 18.0745 4.74048V8.06448C17.7913 8.03472 17.2993 8.01984 16.6882 8.01984C14.7207 8.01984 13.9604 8.76528 13.9604 10.703V12H17.8801L17.2066 15.6672H13.9604V23.9122C19.9023 23.1946 24.5065 18.1354 24.5065 12C24.506 5.37264 19.1333 0 12.506 0Z" ></path>
</g>
<defs>
<clipPath id="clip0_180_174">
<rect width="24" height="24"  transform="translate(0.505981)"></rect>
</clipPath>
</defs>
</symbol>
<symbol viewBox="0 0 24 24" id="factory">
  <path d="M22.5,7.1c-.3-.2-.7-.1-1,0l-5.4,3.9v-3.1c0-.4-.2-.7-.5-.9-.3-.2-.7-.1-1,0l-5.4,3.9V4c0-1.7-1.3-3-3-3h-2c-1.7,0-3,1.3-3,3v16c0,1.7,1.3,3,3,3h16c1.7,0,3-1.3,3-3V8c0-.4-.2-.7-.5-.9ZM21,20c0,.6-.4,1-1,1H4c-.6,0-1-.4-1-1V4c0-.6.4-1,1-1h2c.6,0,1,.4,1,1v9c0,.4.2.7.5.9.3.2.7.1,1,0l5.4-3.9v3.1c0,.4.2.7.5.9.3.2.7.1,1,0l5.4-3.9v10.1Z"></path>
  <path d="M17,19h1c.6,0,1-.4,1-1s-.4-1-1-1h-1c-.6,0-1,.4-1,1s.4,1,1,1Z"></path>
  <path d="M13,17h-1c-.6,0-1,.4-1,1s.4,1,1,1h1c.6,0,1-.4,1-1s-.4-1-1-1Z"></path>
  <path d="M8,17h-1c-.6,0-1,.4-1,1s.4,1,1,1h1c.6,0,1-.4,1-1s-.4-1-1-1Z"></path>
</symbol>
<symbol viewBox="0 0 800 800" id="flashlight">
  <path d="M433.33,333.33h233.33l-300,433.33v-300h-233.33L433.33,33.33v300Z"></path>
</symbol>
<symbol viewBox="0 0 800 800" id="grid">
  <path d="M466.67,333.33v133.33h-133.33v-133.33h133.33ZM533.33,333.33h166.67v133.33h-166.67v-133.33ZM466.67,700h-133.33v-166.67h133.33v166.67ZM533.33,700v-166.67h166.67v133.33c0,18.41-14.92,33.33-33.33,33.33h-133.33ZM466.67,100v166.67h-133.33V100h133.33ZM533.33,100h133.33c18.41,0,33.33,14.92,33.33,33.33v133.33h-166.67V100ZM266.67,333.33v133.33H100v-133.33h166.67ZM266.67,700h-133.33c-18.41,0-33.33-14.92-33.33-33.33v-133.33h166.67v166.67ZM266.67,100v166.67H100v-133.33c0-18.41,14.92-33.33,33.33-33.33h133.33Z"></path>
</symbol>
<symbol viewBox="0 0 24 24" id="house">  
  <path d="M20.9,7.7L13.9,1.7c-1.1-.9-2.8-.9-3.9,0L3.1,7.7c-.7.6-1.1,1.4-1.1,2.3v9c0,1.7,1.3,3,3,3h14c1.7,0,3-1.3,3-3v-9c0-.9-.4-1.7-1.1-2.3ZM14,20h-4v-7h4v7ZM20,19c0,.6-.4,1-1,1h-3v-7c0-1.1-.9-2-2-2h-4c-1.1,0-2,.9-2,2v7h-3c-.6,0-1-.4-1-1v-9c0-.3.1-.6.4-.8l7-6c.2-.2.4-.2.6-.2s.5,0,.6.2l7,6c.2.2.4.5.4.8v9Z"></path>
</symbol>
<symbol viewBox="0 0 25 24" id="instagram">
<g clip-path="url(#clip0_180_181)">
<path d="M12.506 2.16094C15.7122 2.16094 16.0919 2.175 17.3529 2.23125C18.5247 2.28281 19.1575 2.47969 19.5794 2.64375C20.1372 2.85938 20.5404 3.12188 20.9575 3.53906C21.3794 3.96094 21.6372 4.35938 21.8529 4.91719C22.0169 5.33906 22.2138 5.97656 22.2654 7.14375C22.3216 8.40937 22.3357 8.78906 22.3357 11.9906C22.3357 15.1969 22.3216 15.5766 22.2654 16.8375C22.2138 18.0094 22.0169 18.6422 21.8529 19.0641C21.6372 19.6219 21.3747 20.025 20.9575 20.4422C20.5357 20.8641 20.1372 21.1219 19.5794 21.3375C19.1575 21.5016 18.52 21.6984 17.3529 21.75C16.0872 21.8062 15.7075 21.8203 12.506 21.8203C9.29973 21.8203 8.92004 21.8062 7.65911 21.75C6.48723 21.6984 5.85442 21.5016 5.43254 21.3375C4.87473 21.1219 4.47161 20.8594 4.05442 20.4422C3.63254 20.0203 3.37473 19.6219 3.15911 19.0641C2.99504 18.6422 2.79817 18.0047 2.74661 16.8375C2.69036 15.5719 2.67629 15.1922 2.67629 11.9906C2.67629 8.78438 2.69036 8.40469 2.74661 7.14375C2.79817 5.97187 2.99504 5.33906 3.15911 4.91719C3.37473 4.35938 3.63723 3.95625 4.05442 3.53906C4.47629 3.11719 4.87473 2.85938 5.43254 2.64375C5.85442 2.47969 6.49192 2.28281 7.65911 2.23125C8.92004 2.175 9.29973 2.16094 12.506 2.16094ZM12.506 0C9.24817 0 8.84036 0.0140625 7.56067 0.0703125C6.28567 0.126563 5.40911 0.332812 4.64973 0.628125C3.85754 0.9375 3.18723 1.34531 2.52161 2.01562C1.85129 2.68125 1.44348 3.35156 1.13411 4.13906C0.838794 4.90313 0.632544 5.775 0.576294 7.05C0.520044 8.33437 0.505981 8.74219 0.505981 12C0.505981 15.2578 0.520044 15.6656 0.576294 16.9453C0.632544 18.2203 0.838794 19.0969 1.13411 19.8563C1.44348 20.6484 1.85129 21.3188 2.52161 21.9844C3.18723 22.65 3.85754 23.0625 4.64504 23.3672C5.40911 23.6625 6.28098 23.8687 7.55598 23.925C8.83567 23.9812 9.24348 23.9953 12.5013 23.9953C15.7591 23.9953 16.1669 23.9812 17.4466 23.925C18.7216 23.8687 19.5982 23.6625 20.3575 23.3672C21.145 23.0625 21.8154 22.65 22.481 21.9844C23.1466 21.3188 23.5591 20.6484 23.8638 19.8609C24.1591 19.0969 24.3654 18.225 24.4216 16.95C24.4779 15.6703 24.4919 15.2625 24.4919 12.0047C24.4919 8.74688 24.4779 8.33906 24.4216 7.05938C24.3654 5.78438 24.1591 4.90781 23.8638 4.14844C23.5685 3.35156 23.1607 2.68125 22.4904 2.01562C21.8247 1.35 21.1544 0.9375 20.3669 0.632812C19.6029 0.3375 18.731 0.13125 17.456 0.075C16.1716 0.0140625 15.7638 0 12.506 0Z"></path>
<path d="M12.506 5.83594C9.10286 5.83594 6.34192 8.59688 6.34192 12C6.34192 15.4031 9.10286 18.1641 12.506 18.1641C15.9091 18.1641 18.67 15.4031 18.67 12C18.67 8.59688 15.9091 5.83594 12.506 5.83594ZM12.506 15.9984C10.2982 15.9984 8.50754 14.2078 8.50754 12C8.50754 9.79219 10.2982 8.00156 12.506 8.00156C14.7138 8.00156 16.5044 9.79219 16.5044 12C16.5044 14.2078 14.7138 15.9984 12.506 15.9984Z"></path>
<path d="M20.3529 5.59238C20.3529 6.38926 19.706 7.03145 18.9138 7.03145C18.1169 7.03145 17.4747 6.38457 17.4747 5.59238C17.4747 4.79551 18.1216 4.15332 18.9138 4.15332C19.706 4.15332 20.3529 4.8002 20.3529 5.59238Z"></path>
</g>
<defs>
<clipPath id="clip0_180_181">
<rect width="24" height="24" transform="translate(0.505981)"></rect>
</clipPath>
</defs>
</symbol>
<symbol viewBox="0 0 316 316" id="ISO22000">
  <path d="M199.3,106.3c-7.6,3.9-12.6,11.6-14.2,19.4-2.8,13-2.1,28.4,7.9,38.1,11.7,10.2,28.6,12.5,43.7,8.3.7-.1,3-.7,4.6-1.5l.4-.2c4.7-1.9,9.2-5.1,12.5-9.4,7.8-11.3,8.3-28.2,3.6-40.8-1.9-4.9-5.7-9.3-10.4-12.5-13.5-8.6-34.1-9.2-48.1-1.4ZM232.1,122.4c1.6,2.3,1.5,5.4,1.8,8.2-.1,5.8.4,12.8-.7,18.7-.5,2.5-2.2,5-4.8,5.9-4.2,1.8-9.8,1.3-13.6-.8-3.2-2.3-3.6-6-4.1-9.6-.3-7.1-.8-14.5,1.2-21,1.5-4,5.8-5,9.7-5.3,4.1,0,8,.6,10.5,3.9Z"></path>
  <path d="M109.9,155.7c-3.4-.2-7.3.1-10.6-.3l.1-35.9.2-.3,10.3-.1c.1-5.8.2-12.1-.1-17.4l-39.2-.1-6.5.1c-.1,5.4-.1,11.8,0,17.3,3.5.1,6.9,0,10.3.3v34.8l-.1,1.4-10.3.2c-.2,5.7-.2,11.2,0,16.9h45.9v-16.9Z"></path>
  <path d="M225.4,180.2c-4.4,6.2-9.9,12.3-15.9,17-.2.3-.8.2-1-.1-2.6-1.6-5.4-3-7.9-4.6,3.3-4,6.6-8,9.1-12.4h-3.2c-2.6,3.8-5.3,7.8-8.7,11.2-4.6-1.8-8.7-3.5-13.4-4.7l-.5-.4c.7-2.1,2.1-4,2.5-6.1h-2.8l-2.8,5.5c-6.1-1.3-12.9-2-19.2-2.5-.3-.9.1-2.2-.3-3.1h-2.7c-.2,1.2.3,2.2-.3,3.2-6.5.3-12.7,1-18.7,2.3l-2.8-5.4c-1,0-2.2-.2-2.9.1l2.6,6-.3.3c-4.7,1.3-9.3,3-13.7,4.8l-.4-.2c-2.9-3.2-5.7-6.6-8-10.1-.5-1.7-2.6-.7-3.7-.9,2.5,4.5,5.8,8.5,9.2,12.6-2.8,1.6-5.6,3.5-8.5,4.8-6.2-4.7-12.1-10.8-16.4-17.3-1.3-.2-2.1-.1-3.3,0,7.5,11.7,19.2,21.9,31.3,27.9,0,0,0-.1.1-.1s.3.2.1.3c8.2,4,17,6.9,26.2,8.1,32,4.2,62.5-9.4,80.2-36.2-1.5-.1-2.8-.1-3.9,0ZM182,189.4l.3-.2c4.5,1,8.7,2.5,12.7,4.4-3.3,3.8-7.6,7.1-11.6,9.8-2.4,1.4-4.8,3-7.3,4.2l-4.5-1.9.3-.7c3.9-5,7.2-10.2,10.1-15.6ZM161.5,186.3c5.9.1,11.9.7,17.4,2l.1.3c-2.9,5.5-6.6,10.8-10.5,15.9-1.8.2-3.4-.5-5.2-.6l-1.8-.2c-.2-6-.3-11.3,0-17.4ZM141.4,188.2c5.4-1,11-1.8,16.9-1.8l.1,17.3c-2.2.5-4.6.5-6.7,1-4.3-5-7.8-10.5-10.8-16.1l.5-.4ZM124.6,193.7h.1c4.1-2,8.3-3.4,12.7-4.5l.4.1c3,5.6,6.8,10.9,10.5,16.3-1.5.8-3.2,1.3-4.7,2.1-6.9-3.4-13.4-8.1-19-13.7v-.3ZM138.1,211.2c-8.7-2.3-16.9-6.1-24.4-11.5v-.3c2.5-1.5,5-3.2,7.7-4.3,5.9,5.8,12.1,10.2,18.7,14.4-.4.7-1.3,1.3-2,1.7ZM176.7,212.5c-11,2.4-23.3,2.5-34.4-.2-.2-.5.5-.6.8-.9,9.7-6.2,24.8-6.2,34.3.5.4.6-.5.4-.7.6ZM186.7,209.7l-4.9,1.5c-.8-.4-1.6-1-2.3-1.6l.2-.3c6.7-3.9,12.7-8.6,18.4-14.2,2.8,1.1,5.5,2.7,8,4.4-5.7,4.6-12.5,7.6-19.4,10.2Z"></path>
  <path d="M94,93.8c2.5-3.5,5.3-6.9,8.4-10.1,2.7-2.6,5.2-5,8.1-6.9,2.7,1.7,5.7,3.2,8.3,4.8-3.2,4-6.6,8-9,12.3.7.3,2.1.2,3.1,0,2.6-3.8,5.4-7.6,8.7-10.9,4.5,1.6,8.8,3.4,13.4,4.6l.4.4-2.6,5.9c1.2.2,1.9.1,3,0,.9-1.7,1.7-3.7,2.7-5.4,6,1.3,12.4,2,18.9,2.2.8.7.2,2.3.5,3.2h2.8c.3-1-.1-2.1.3-3.1,6-.3,12.4-.9,18.2-2.4l.5.1,2.8,5.3c.9,0,2.2.2,2.9-.2l-2.6-5.9.2-.2c4.8-1.2,9.3-3.1,13.8-4.9,3.2,3.4,6.2,7.4,9,11.2,1.1,0,2.3.1,3.1-.2-1.3-2.2-2.8-4.5-4.5-6.4-1.4-1.9-2.8-3.7-4.6-5.5v-.5l7.3-4.2,1.1-.4c6.3,4.8,12,10.6,16.4,17.1,1.3,0,2.3.4,3.3-.1-14-20.9-37-34.3-61.8-36.2l-.1.2-.2-.2c-2.8-.3-6.3-.4-9.3-.1-1.1-.1-2.5,0-3.9.1-25,1.9-48,14.7-62.4,36.5,1.5-.1,2.7.3,3.8-.1ZM137.2,84.8l-.4.1c-4.3-1.1-8.4-2.5-12.4-4.2l.2-.6c5.7-5.4,11.8-9.9,18.4-13.4,1.6.6,3.1,1.1,4.7,1.8l-.3.8c-4,4.9-7.1,10.2-10.2,15.5ZM157.9,87.5c-2.9.4-5.5-.1-8.4-.3-2.8-.4-6.3-.7-9.2-1.6,3-5.6,6.6-11,10.8-16l6.7.9c.3,5.3.1,11.4.1,17ZM161.1,87.6c-.2-5.4-.1-11.5,0-17.1,2.1-.3,4.4-.6,6.5-.9,4.1,5.1,8,10.3,10.7,15.9-5.6,1.4-11.4,2.1-17.2,2.1ZM194.3,80.5c-4.1,1.7-8.2,3.4-12.7,4.3-3.2-5.4-6.8-10.8-10.7-16.1,1.5-.8,3.2-1.4,4.8-2.2,6.8,3.4,13.3,8.2,18.8,13.7l-.2.3ZM181,63c8.7,2.3,17,6.1,24.5,11.5l-.2.4-7.2,4h-.5c-5.5-5.5-12-10.3-18.5-14.1.1-.8,1.2-1.3,1.9-1.8ZM176.8,62v.2c-9.1,6.5-23.7,7.2-33.3,1.1-.5-.4-1.6-.6-1.7-1.3,11.1-2.6,24.1-2.8,35,0ZM134.9,63.8c.3-.3.5-.6.9-.6v.2c.8.2,1.5-.7,2.2-.1.6.5,1.4.9,1.9,1.4-6.5,4-12.8,8.7-18.6,14.4-2.8-1-5.4-2.5-7.9-4.3v-.2h-.1c6.6-4.8,13.8-8.4,21.6-10.8Z"></path>
  <path d="M158,156.5c-9.8,2.7-20.4.6-27.5-6.7-.8-1-1.4-2.2-2.2-3.3l-14,.1c-.2,8.3-.3,17.8,0,26l15.6-.1.2-4.9c1.8.8,3.5,1.8,5.3,2.8,10.8,4.5,24.8,5.5,35.5,0,7.8-4.3,12-12.6,10.8-21.5-1.1-8.7-9.5-16.6-17.9-18.7l-25.2-7.3-1.9-.9c-.8-.7-1.4-1.6-1.2-2.8,2-3.4,6.6-2.3,10-2.3,7.3,1,14.8,3.5,19.1,10.1,4.6,0,9.9.1,14.9-.1.2-8.4-.1-15.7-.2-24.2-4.7-.1-10.4-.1-15.1.1-.2,1.2.2,2.9-.3,4.2l-4.8-2.6c-11.5-4.8-27.5-5.3-37.9,2.2-6.8,4.9-8.8,13.7-7.1,21.5,1.4,7.4,8.4,12.8,15.2,15.3,9.3,3.3,18.9,5.6,28.3,8.8.9.4,2.2,1.3,2,2.5.1.8-.9,1.4-1.6,1.8Z"></path>
  <path d="M112.5,250.1l2.3-2c4.6-4.2,7.9-7.9,7.9-12.5,0-4.2-2.8-7.9-8.6-7.9-3.3,0-6.2,1.2-8.1,2.7l1.5,3.5c1.3-1,3.3-2.2,5.6-2.2,3.4,0,4.7,2.1,4.7,4.4,0,3.4-2.9,6.6-9.1,12.3l-3.1,2.9v3h17.7v-4.1h-10.8v-.1Z"></path>
  <path d="M134.1,250.1l2.3-2c4.6-4.2,7.9-7.9,7.9-12.5,0-4.2-2.8-7.9-8.6-7.9-3.3,0-6.2,1.2-8.1,2.7l1.5,3.5c1.3-1,3.3-2.2,5.6-2.2,3.4,0,4.7,2.1,4.7,4.4,0,3.4-2.9,6.6-9.1,12.3l-3.1,2.9v3h17.8v-4.1h-10.9v-.1Z"></path>
  <path d="M158.1,227.6c-6.1,0-9.6,5.4-9.6,13.6s3.2,13.5,9.3,13.5,9.6-5.3,9.6-13.7c0-7.7-3-13.4-9.3-13.4ZM158,251c-2.8,0-4.5-3.3-4.5-9.7s1.8-9.9,4.5-9.8c2.9,0,4.4,3.6,4.4,9.7s-1.5,9.8-4.4,9.8Z"></path>
  <path d="M179.7,227.6c-6.1,0-9.6,5.4-9.6,13.6s3.2,13.5,9.3,13.5,9.6-5.3,9.6-13.7c0-7.7-2.9-13.4-9.3-13.4ZM179.6,251c-2.8,0-4.5-3.3-4.5-9.7s1.8-9.9,4.5-9.8c2.9,0,4.4,3.6,4.4,9.7s-1.5,9.8-4.4,9.8Z"></path>
  <path d="M201.3,227.6c-6.1,0-9.6,5.4-9.6,13.6s3.2,13.5,9.3,13.5,9.6-5.3,9.6-13.7c0-7.7-2.9-13.4-9.3-13.4ZM201.2,251c-2.8,0-4.5-3.3-4.5-9.7s1.9-9.9,4.5-9.8c2.9,0,4.4,3.6,4.4,9.7s-1.5,9.8-4.4,9.8Z"></path>
  <path d="M158,39.1c-65.6,0-118.9,53.4-118.9,119s53.3,118.9,118.9,118.9,118.9-53.4,118.9-119-53.3-118.9-118.9-118.9ZM158,273.4c-63.6,0-115.3-51.8-115.3-115.4s51.7-115.3,115.3-115.3,115.3,51.8,115.3,115.4-51.7,115.3-115.3,115.3Z"></path>
  <path d="M158,0C70.9,0,0,70.9,0,158s70.9,158,158,158,158-70.9,158-158S245.1,0,158,0ZM158,312.3C72.9,312.3,3.7,243.2,3.7,158.1S72.9,3.8,158,3.8s154.3,69.1,154.3,154.2-69.2,154.3-154.3,154.3Z"></path>
  <polygon points="27.1 123.8 24.2 123.1 22.5 130.4 18.7 129.5 20.6 121.2 17.7 120.5 15 132.3 31.8 136.1 32.6 132.7 25.4 131.1 27.1 123.8"></polygon>
  <path d="M33,109.5c-1.9-.7-3.6-.7-5.1-.1-1.5.6-2.6,1.9-3.3,3.8-.7,1.9-.6,3.6.2,5,.8,1.4,2.1,2.4,4.1,3.1,1.9.7,3.6.7,5.1.1s2.6-1.9,3.3-3.8c.6-1.9.5-3.6-.2-5-.8-1.4-2.2-2.4-4.1-3.1ZM34.7,116.7c-.4.9-1,1.5-2,1.7-.8.2-1.7.1-2.7-.2s-1.8-.8-2.3-1.5c-.7-.8-.8-1.7-.5-2.6.3-.9.9-1.5,2-1.7.8-.2,1.7-.1,2.7.2,1,.3,1.8.8,2.3,1.5.7.8.8,1.7.5,2.6Z"></path>
  <path d="M42.5,104.7c.8-1.8,1-3.5.3-5.1-.7-1.4-1.9-2.6-3.8-3.5-1.9-.9-3.6-1.1-5.1-.7-1.6.5-2.8,1.7-3.7,3.5-.8,1.8-.9,3.5-.3,5,.7,1.5,1.9,2.7,3.8,3.6,1.9.9,3.6,1.1,5.1.7,1.6-.5,2.8-1.7,3.7-3.5ZM39.9,103.5c-.4.9-1.1,1.4-2.1,1.5-.9.1-1.8-.1-2.7-.5-.9-.4-1.6-1-2.1-1.7-.5-.8-.6-1.7-.2-2.6.4-.9,1.1-1.4,2.1-1.5.9-.1,1.8.1,2.7.5.9.4,1.6,1,2.1,1.7.5.8.6,1.7.2,2.6Z"></path>
  <path d="M37,86.4c-1,1.9-.9,3.7.2,5.3.9,1.3,1.9,2.3,3.1,2.9,1,.5,2.1.8,3.5,1,1.1.2,2.1.1,2.9-.3.8-.4,1.4-1.1,2-2.1.7-1.2.7-2.4.2-3.7l1.1.7,1.7-2.8-14.7-9-1.6,2.7,5.2,3.2c-1.6-.2-2.7.5-3.6,2.1ZM44.6,86.9c.8.5,1.4,1.1,1.8,1.8.6.9.6,1.8.1,2.6-.5.8-1.3,1.2-2.4,1.1-.8,0-1.6-.3-2.4-.8s-1.4-1.1-1.8-1.8c-.6-.9-.6-1.8-.1-2.6s1.3-1.2,2.4-1.1c.8,0,1.6.3,2.4.8Z"></path>
  <path d="M47.4,72.4c1.5,1.3,3.2,1.4,5.1.3.4-.2,1.4-1,3.1-2.3.8-.7,1.5-1.1,2-1.3.9-.3,1.6-.2,2.2.3,1.1,1,.9,2.4-.5,4.1-.7.8-1.4,1.3-2.2,1.6-.9.3-1.8.1-2.5-.5l-2.3,2.6c1.5,1.1,3.1,1.5,4.9,1.1.7-.2,1.4-.5,2.2-1.1.7-.4,1.2-.9,1.5-1.3,1.5-1.8,2.4-3.4,2.6-4.8.1-.8,0-1.6-.4-2.5-.3-.8-.8-1.5-1.5-2.1-1.2-1-2.3-1.4-3.6-1.1-1,.2-2.1.9-3.4,1.9-2.1,1.7-3.3,2.6-3.6,2.6-.5.2-.8.3-1.1.3-.2,0-.6-.2-.9-.6-.9-.9-.7-2.1.6-3.6.7-.7,1.4-1.2,2.1-1.4.9-.3,1.7-.1,2.3.5l2.2-2.5c0-.1-.1-.2-.3-.4-.8-.7-1.8-1-2.9-1.1-1.8-.1-3.6.9-5.4,2.9-1.4,1.5-2,3-2.1,4.4-.1,1.5.6,2.8,1.9,4Z"></path>
  <path d="M63.2,60.6c-.8-1-.8-2,.2-3,.3-.4.7-.6,1.1-.8.5-.2.9-.1,1.2.2.6.5.7,1.1.4,1.6-.5.9-1.1,1.8-2,2.7-1.5,1.9-1.5,3.8,0,5.5,1.7,2,3.5,2.1,5.5.3,1-.9,1.6-2.2,1.7-4,.3.4.7.6,1.1.7l2.6-2.4-.3-.4c-.7,0-1.2-.2-1.6-.6l-4.7-5.1c-1.8-2-4-1.8-6.6.6-2.6,2.3-2.9,4.6-.9,6.8l2.3-2.1ZM67.3,61c.4-.5.7-1,.8-1.4l.5.5c1.2,1.4,1.3,2.6.4,3.9-.1.1-.2.3-.4.4-.4.3-.8.5-1.2.5s-.8-.1-1.1-.5c-.3-.3-.4-.7-.4-1.1s.2-.8.5-1.2c.3-.4.6-.8.9-1.1Z"></path>
  <path d="M69.3,50.1l-1.4,1.1,1.4,1.7,1.4-1.2,6.4,8.1,2.6-2-6.4-8.1,1.6-1.2-1.4-1.7-1.6,1.2-.8-1.1c-.4-.4-.4-.8,0-1.1l.9-.7-1.5-1.9-1.6,1.3c-1.6,1.3-1.8,2.7-.5,4.4l.9,1.2Z"></path>
  <path d="M78.8,51.9c.5.6.8,1,1.1,1.2,1,.9,2.1,1.3,3.4,1.3,1.3.1,2.4-.3,3.5-1,1-.7,1.8-1.7,2.3-3,.5-1.4.6-2.6.2-3.7l-2.7,1.8c.2.5.1.9-.2,1.5-.2.4-.6.8-1,1.1-.8.6-1.6.6-2.5.3-.6-.2-1.1-.7-1.5-1.5l7.1-4.7c-.2-.4-.3-.6-.6-.8-.9-1.4-1.9-2.3-3.2-2.9-1.8-.8-3.6-.6-5.4.6-2.7,1.8-3.3,4.3-1.9,7.5.4.8.8,1.6,1.4,2.3ZM79.7,45.9c.2-.7.6-1.3,1.3-1.7,1.3-.7,2.5-.4,3.4,1l-4.2,2.8c-.4-.7-.6-1.4-.5-2.1Z"></path>
  <path d="M86.1,38.4l1.2,1.9,1.4-.8,4,7.3c1.1,1.4,2.5,1.6,4.3.5.4-.2.8-.6,1.2-1l-1.1-2-1.1.6c-.3.2-.6-.1-1-.7l-3.5-6.3,1.6-.9-1.1-1.9-1.6.9-1.7-3-2.9,1.6,1.7,3-1.4.8Z"></path>
  <path d="M103.3,44.4c.4,1.1,0,2-1.4,2.6-.2.1-.3.1-.5.2l1.1,2.4c2-.9,3.2-1.8,3.5-2.6.2-.7.3-1.3.2-1.9l-1.5-16.2-3.1,1.4,1.4,9.5-6.4-7.3-3.3,1.5,9.6,9.8c.2.2.3.4.4.6Z"></path>
  <polygon points="120.6 36.7 117.1 23.3 123.6 36 127 35.1 126.5 20.9 130 34.3 133.4 33.4 129.1 16.8 124.1 18.1 124.3 31.7 117.9 19.7 112.9 21 117.2 37.6 120.6 36.7"></polygon>
  <path d="M137.1,24.3c-.1-1.3.5-2.1,1.9-2.3.5-.1,1-.1,1.4,0,.5.2.8.5.9.9.2.7-.1,1.2-.6,1.5-.9.5-2,.8-3.2,1-2.3.7-3.3,2.2-3.1,4.5.3,2.6,1.7,3.7,4.4,3.4,1.3-.1,2.6-.9,3.7-2.3,0,.5.2.9.5,1.2l3.5-.4-.2-.6c-.5-.4-.8-.8-.9-1.4l-.9-6.9c-.4-2.6-2.3-3.8-5.8-3.3s-5.1,2.2-4.7,5.1l3.1-.4ZM142,27c.3,1.8-.4,2.9-2,3.4-.2,0-.4.1-.6.1-.5,0-.9-.1-1.2-.3-.3-.3-.5-.6-.6-1.1,0-.4.1-.8.3-1.1.2-.3.6-.5,1.1-.7.5-.1,1-.2,1.4-.3.6-.2,1.1-.4,1.5-.7l.1.7Z"></path>
  <path d="M151.5,31.4l-.2-8.1c0-1.3.8-2,2.4-2.2,1-.1,1.8.1,2.1.7.2.3.3.9.3,1.7l.2,7.8,3.3-.1-.2-8.5c-.1-2.9-1.7-4.4-5-4.3-1.4,0-2.4.8-3.1,2.2v-1.9l-3.3.1.3,12.8,3.2-.2Z"></path>
  <path d="M165.3,32.2c1.3.1,2.7-.4,4.1-1.5-.1.5,0,.9.2,1.3l3.5.3.1-.4c-.4-.5-.6-1-.6-1.6l.6-6.9c.2-2.7-1.5-4.2-5-4.5s-5.3,1-5.6,4l3.1.2c.1-1.3.9-1.9,2.3-1.9.5,0,.9.1,1.3.3.5.2.7.5.7,1,0,.8-.3,1.2-.9,1.4-1.1.2-2.2.4-3.4.3-2.4.2-3.7,1.4-4,3.7-.3,2.7.9,4.1,3.6,4.3ZM165.6,27.1c.3-.3.7-.4,1.2-.5.5-.1.9-.1,1.4-.1.6-.1,1.2-.2,1.6-.4l-.1.7c-.1,1.7-1,2.7-2.4,3h-.6c-.5,0-.9-.2-1.2-.5s-.4-.7-.4-1.2c0-.4.2-.7.5-1Z"></path>
  <path d="M178,38.4c2.1.5,3.9.5,5.2,0,1.5-.6,2.4-1.7,2.7-3.4l2.4-12.9-3-.6-.3,1.7c-.6-.9-.9-1.5-1-1.6-.5-.5-1.1-.9-2-1.1-1.3-.3-2.5,0-3.8.9-1.5,1-2.5,2.7-2.9,5-.4,2.1-.1,3.9.8,5.3.4.6.9,1.1,1.4,1.4.4.2,1.1.4,1.9.6.8.2,1.5.1,2.1-.1.4-.2,1-.5,1.7-1.1l-.3,1.8c-.2.7-.5,1.2-1.2,1.6-.6.4-1.3.5-2,.4-.1,0-.2,0-.4-.1-1.3-.4-1.9-1-1.7-1.7l-3.4-.6c-.3,1,.1,2,1,2.9.8.8,1.7,1.4,2.8,1.6ZM183,30.6c-.7.8-1.6,1.1-2.5.9-1-.2-1.6-.7-2-1.7-.3-.8-.4-1.7-.2-2.7.1-1,.5-1.9,1.1-2.5.7-.8,1.6-1.1,2.5-.9.9.2,1.6.7,2,1.7.3.8.4,1.7.2,2.7-.1,1-.5,1.9-1.1,2.5Z"></path>
  <path d="M193.2,37.2c1.2.4,2.5.3,3.8-.1,1.4-.4,2.4-1.2,3-2.2l-3.1-.9c-.3.4-.7.7-1.3.8-.5.1-1,0-1.5-.1-.9-.3-1.5-.9-1.8-1.8-.2-.6-.1-1.3.2-2.1l8.1,2.4c.1-.3.2-.6.2-.9.4-1.5.5-3,.1-4.3-.5-1.9-1.8-3.2-3.9-3.8-3.1-.9-5.5.2-7,3.4-.4.8-.7,1.7-.9,2.6-.1.7-.2,1.2-.2,1.6,0,1.3.4,2.4,1.2,3.4s1.9,1.6,3.1,2ZM194.4,27c.6-.3,1.3-.4,2.1-.1,1.5.5,2,1.6,1.5,3.2l-4.9-1.4c.2-.8.6-1.3,1.3-1.7Z"></path>
  <path d="M203.7,40.1l3-7c.2-.6.7-1.1,1.2-1.3.6-.2,1.2-.2,1.8.1.9.5,1.3,1.1,1.1,2l-3.5,8,3,1.3,3.2-7.1c.3-.7.7-1.1,1.3-1.3.6-.3,1.2-.2,1.8.1,1,.5,1.3,1.2,1,1.9l-3.5,8,3,1.3,3.6-8.1c1-2.3.6-4-1.3-5.1-.4-.2-.6-.4-.9-.5-.7-.3-1.4-.5-2-.4-.6,0-1.3.3-2,.7-.2-.8-.4-1.3-.6-1.6-.4-.7-1-1.2-1.9-1.6-1.1-.5-2.4-.3-3.9.6l.8-1.7-3-1.3-5.2,11.7,3,1.3Z"></path>
  <path d="M220.4,44.2c-.3,1.2-.2,2.4.3,3.6.5,1.1,1.3,2,2.4,2.7,1.1.7,2.3,1,3.7.9,1.5-.1,2.7-.6,3.5-1.4l-2.8-1.7c-.3.3-.8.4-1.4.4-.5,0-1-.1-1.4-.4-.8-.5-1.2-1.2-1.3-2.2-.1-.7.2-1.3.7-2l7.2,4.4c.2-.4.3-.6.4-.7.8-1.3,1.2-2.7,1.2-4.1,0-2-.9-3.6-2.8-4.7-2.8-1.7-5.3-1.2-7.6,1.5-.6.7-1.1,1.5-1.5,2.3-.3.6-.5,1-.6,1.4ZM226.8,40.9c.7-.2,1.4-.1,2.1.4,1.3.9,1.5,2,.6,3.5l-4.3-2.6c.4-.7.9-1.2,1.6-1.3Z"></path>
  <path d="M232.5,56l4.9-6.5c.8-1,1.8-1.1,3.2-.2.9.6,1.3,1.2,1.2,1.9,0,.3-.3.9-.8,1.5l-4.7,6.2,2.6,2,5.2-6.8c1.8-2.4,1.4-4.5-1.2-6.5-1.1-.8-2.4-.9-3.8-.2l1.2-1.5-2.6-2-7.7,10.2,2.5,1.9Z"></path>
  <path d="M242.7,61.6c-1,1.5-.7,3,.9,4.3.4.3.9.6,1.4.8l1.5-1.7-1-.9c-.3-.3-.2-.7.3-1.2l4.8-5.3,1.4,1.2,1.5-1.6-1.4-1.2,2.3-2.6-2.4-2.2-2.3,2.6-1.2-1.1-1.4,1.6,1.2,1.1-5.6,6.2Z"></path>
  <path d="M252.6,73c0,.6.3,1.4.7,2.3.4.7.7,1.3,1.1,1.7,1.6,1.9,3.1,3,4.4,3.4.8.3,1.7.3,2.6,0,.9-.2,1.6-.6,2.3-1.2,1.1-.9,1.7-2,1.6-3.3,0-1-.5-2.2-1.3-3.6-1.4-2.3-2-3.7-2-4-.1-.5-.2-.8-.1-1.1,0-.2.3-.5.7-.8,1.1-.8,2.3-.4,3.5,1.1.6.8,1,1.5,1.1,2.3.1.9-.2,1.7-.9,2.2l2.1,2.5c.1,0,.2-.1.2-.4.8-.7,1.4-1.6,1.6-2.7.4-1.8-.3-3.7-2-5.8-1.3-1.5-2.6-2.4-4-2.7-1.5-.3-3,.1-4.3,1.2-1.5,1.3-1.9,2.9-1.1,5,.1.4.7,1.5,1.8,3.4.6.9.9,1.7,1,2.2.2.9,0,1.6-.6,2.1-1.1,1-2.4.6-3.9-1.1-.7-.8-1.2-1.6-1.3-2.4-.1-1,.2-1.8.9-2.4l-2.2-2.6c-1.4,1.3-2,2.9-1.9,4.7Z"></path>
  <path d="M261.9,87.1c-1,.7-1.9.4-2.8-.9-.1-.1-.2-.2-.3-.4l-2.2,1.5c1.2,1.9,2.3,2.9,3.1,3.1.7.1,1.4.1,1.9-.1l15.8-4-1.9-2.8-9.2,2.9,6.2-7.4-2-3-8.1,10.6c-.1.2-.3.4-.5.5Z"></path>
  <path d="M275,90.5c-1.4.8-1.9,2.1-1.5,3.9l.9,4.2c.2.6-.1,1-.6,1.3-.5.2-.9.2-1.3-.1-.3-.2-.6-.6-.8-1.1-.3-.8-.5-1.4-.5-1.8,0-.6.3-1.1.8-1.6l-1.5-2.9c-1.5.8-2.2,2.2-2.3,4.2.1.7.4,1.6.9,2.7.6,1.1,1.2,2,1.9,2.6.7.7,1.5,1,2.4,1.1.9.1,1.8-.1,2.6-.5.6-.3,1.1-.8,1.4-1.5.3-.6.4-1.3.2-2l-1.1-4.8c-.1-.5,0-.9.4-1.1s.8-.2,1.2.1c.3.2.6.6.8,1,.2.3.3.7.4,1.2s.1.8,0,1.1c-.1.2-.4.5-.8.7l1.5,2.8c1.3-.7,2-1.8,2.1-3.3.1-1.2-.2-2.6-1-3.9-.7-1.3-1.6-2.1-2.6-2.6-1.1-.5-2.3-.4-3.5.3Z"></path>
  <path d="M275.3,105.9c-1.5,1-1.8,2.4-.9,4.3.2.4.5.9.9,1.3l2.1-.9-.5-1.2c-.1-.4.1-.7.8-1l6.6-2.9.7,1.7,2-.9-.7-1.7,3.2-1.4-1.3-3-3.2,1.4-.6-1.5-2.1,1,.6,1.5-7.6,3.3Z"></path>
  <path d="M282.2,119c-.5,0-.9-.2-1.4-.6-.4-.4-.6-.8-.8-1.3-.3-.9-.2-1.7.4-2.5.3-.5,1-.8,1.8-1l2.7,8c.4-.1.7-.2.9-.3,1.5-.5,2.7-1.3,3.6-2.4,1.2-1.5,1.5-3.3.8-5.4-1-3-3.3-4.3-6.8-3.7-.9.2-1.7.4-2.6.8-.6.2-1.1.5-1.4.7-1.1.7-1.8,1.7-2.1,2.9-.4,1.3-.3,2.5.1,3.7.4,1.2,1.2,2.2,2.3,3,1.2.9,2.3,1.3,3.5,1.2l-1-3.1ZM286.4,113c.6.4,1.1.9,1.3,1.7.4,1.4-.2,2.4-1.8,3l-1.6-4.8c.7-.3,1.4-.3,2.1.1Z"></path>
  <path d="M295.9,136.9c0-.4,0-.7-.1-1-.1-.8-.4-1.5-.8-1.9s-.9-.8-1.7-1.2c.5-.7.9-1.2,1-1.5.3-.7.4-1.5.2-2.5-.3-1.1-1.2-2.1-2.8-2.8l1.9-.4-.6-3.2-12.5,2.5.6,3.2,7.7-1.5c.7-.1,1.3,0,1.8.3s.8.8.9,1.5c.1,1.1-.2,1.7-1,2.1l-8.6,1.7.6,3.2,7.6-1.5c.7-.2,1.3-.1,1.8.3.5.4.8.9.9,1.6.1,1.1-.2,1.7-1,1.9l-8.6,1.7.6,3.2,8.7-1.7c2.4-.5,3.6-1.8,3.4-4Z"></path>
  <path d="M116.5,276.2c-4-1.5-7.4-.5-10.1,3.1-.6.8-1.2,1.9-1.7,3.3-.5,1.2-.8,2.3-.9,3.3-.2,2.1.1,4,1,5.6.9,1.7,2.4,2.9,4.4,3.6,2.2.7,4.2.8,6,.2.9-.3,1.8-.8,2.6-1.6s1.3-1.6,1.7-2.5l-3.6-1.4c-.4.7-.8,1.2-1.2,1.8-.7.7-1.7.9-2.9.8-.5-.1-1.1-.2-1.6-.4-.4-.2-.8-.5-1.1-.7-1-.8-1.6-2-1.6-3.6,0-1.3.3-2.6.9-4,.5-1.3,1.1-2.2,1.7-2.9.6-.7,1.4-1.2,2.2-1.5s1.7-.3,2.5-.1c1.7.5,2.7,1.3,3.2,2.5.4.8.4,1.7.2,2.5l3.5,1.3c.7-2.2.4-4.2-.9-6.1-1-1.4-2.4-2.5-4.3-3.2Z"></path>
  <path d="M130.6,285.5c-3.5-.8-6.1.6-7.6,4.3-.4,1-.7,2-.8,3-.1.8-.1,1.4-.1,1.8.1,1.4.6,2.6,1.6,3.7,1,1.1,2.2,1.8,3.6,2.1,1.3.3,2.7.2,4.2-.4,1.6-.6,2.6-1.5,3.2-2.7l-3.6-.8c-.3.5-.7.8-1.4,1-.6.1-1.2.1-1.7,0-1.1-.3-1.8-.9-2.2-1.9-.2-.6-.2-1.4.1-2.3l9.3,2.1c.1-.4.2-.7.3-1,.4-1.8.3-3.4-.2-4.9-.7-2.1-2.3-3.5-4.7-4ZM132,292.2l-5.6-1.3c.2-1,.7-1.6,1.3-1.9.7-.5,1.5-.6,2.4-.3,1.7.4,2.3,1.6,1.9,3.5Z"></path>
  <path d="M145.2,289c-.8.5-1.4,1.2-1.8,1.9l.3-2.8-3.7-.5-1.8,14.3,3.7.5,1-8c.5-1.8,1.7-2.6,3.5-2.4.4,0,.8.1,1.3.2l.5-3.8c-.2,0-.3-.1-.5-.1-.8-.1-1.6.2-2.5.7Z"></path>
  <path d="M155.1,285.4l-3.7-.2-.2,3.9-1.8-.1-.1,2.7,1.8.1-.4,9.3c.2,2,1.5,3,3.9,3,.6,0,1.2-.1,1.8-.3l.1-2.5-1.5-.1c-.4,0-.6-.5-.6-1.3l.4-8.1,2.1.1.1-2.5-2.1-.1.2-3.9Z"></path>
  <polygon points="163.7 284 160 284.1 160.1 287.4 163.8 287.3 163.7 284"></polygon>
  <polygon points="160.1 289 160.4 303.4 164.1 303.3 163.8 288.9 160.1 289"></polygon>
  <path d="M174.4,288.2l-2.2.2-.1-1.5c-.1-.6.2-1,.7-1l1.3-.1-.2-2.7-2.3.2c-2.4.2-3.4,1.5-3.2,3.9l.2,1.7-2,.2.2,2.5,1.9-.4,1,11.6,3.7-.3-1-11.6,2.2-.2-.2-2.5Z"></path>
  <polygon points="180.1 282.3 176.5 282.9 177 286.2 180.6 285.6 180.1 282.3"></polygon>
  <polygon points="177.2 287.8 179.5 302 183.1 301.4 180.8 287.2 177.2 287.8"></polygon>
  <path d="M194.7,296c-.5.4-1,.7-1.5.8-1,.2-2,0-2.8-.7-.5-.4-.9-1.1-1-2.1l9.3-2.3c-.1-.4-.1-.8-.2-1-.5-1.7-1.3-3.1-2.4-4.2-1.6-1.5-3.6-2-6-1.4-3.5.9-5.1,3.3-4.8,7.3.1,1,.3,2,.6,3,.3.7.5,1.2.7,1.6.7,1.2,1.8,2.1,3.1,2.6s2.7.6,4.1.2c1.4-.4,2.5-1.1,3.6-2.3,1.1-1.3,1.6-2.6,1.6-3.9l-3.5.9c0,.5-.3,1-.8,1.5ZM189.1,289.2c.4-.7,1.1-1.1,2-1.3,1.7-.3,2.8.4,3.3,2.3l-5.5,1.4c-.3-.9-.2-1.7.2-2.4Z"></path>
  <path d="M206.2,274.8l2.5,6.5c-1.2-1.2-2.8-1.4-4.6-.6-2.1,1-3.3,2.6-3.4,4.8-.1,1.8.2,3.3.8,4.7.6,1.1,1.4,2.2,2.5,3.3.9.9,1.8,1.5,2.8,1.7.9.2,2,0,3.2-.5,1.4-.6,2.3-1.7,2.7-3.2l.5,1.4,3.4-1.3-7-18.1-3.4,1.3ZM210.9,289.2c-.1,1.2-.7,2-1.7,2.4-1,.4-2,.2-2.9-.6-.7-.6-1.2-1.4-1.6-2.4s-.5-2-.4-2.9c.2-1.2.8-2,1.8-2.4,1-.4,2-.2,2.8.6.7.6,1.2,1.4,1.6,2.4s.5,2,.4,2.9Z"></path>
</symbol>
<symbol viewBox="0 0 316 316" id="ISO9001"> 
  <path d="M199.3,106.3c-7.6,3.9-12.6,11.6-14.2,19.4-2.8,13-2.1,28.4,7.9,38.1,11.7,10.2,28.6,12.5,43.7,8.3.7-.1,3-.7,4.6-1.5l.4-.2c4.7-1.9,9.2-5.1,12.5-9.4,7.8-11.3,8.3-28.2,3.6-40.8-1.9-4.9-5.7-9.3-10.4-12.5-13.5-8.6-34.1-9.2-48.1-1.4ZM232.1,122.4c1.6,2.3,1.5,5.4,1.8,8.2-.1,5.8.4,12.8-.7,18.7-.5,2.5-2.2,5-4.8,5.9-4.2,1.8-9.8,1.3-13.6-.8-3.2-2.3-3.6-6-4.1-9.6-.3-7.1-.8-14.5,1.2-21,1.5-4,5.8-5,9.7-5.3,4.1,0,8,.6,10.5,3.9Z"></path>
  <path d="M109.9,155.7c-3.4-.2-7.3.1-10.6-.3l.1-35.9.2-.3,10.3-.1c.1-5.8.2-12.1-.1-17.4l-39.2-.1-6.5.1c-.1,5.4-.1,11.8,0,17.3,3.5.1,6.9,0,10.3.3v34.8l-.1,1.4-10.3.2c-.2,5.7-.2,11.2,0,16.9h45.9v-16.9Z"></path>
  <path d="M225.4,180.2c-4.4,6.2-9.9,12.3-15.9,17-.2.3-.8.2-1-.1-2.6-1.6-5.4-3-7.9-4.6,3.3-4,6.6-8,9.1-12.4h-3.2c-2.6,3.8-5.3,7.8-8.7,11.2-4.6-1.8-8.7-3.5-13.4-4.7l-.5-.4c.7-2.1,2.1-4,2.5-6.1h-2.8l-2.8,5.5c-6.1-1.3-12.9-2-19.2-2.5-.3-.9.1-2.2-.3-3.1h-2.7c-.2,1.2.3,2.2-.3,3.2-6.5.3-12.7,1-18.7,2.3l-2.8-5.4c-1,0-2.2-.2-2.9.1l2.6,6-.3.3c-4.7,1.3-9.3,3-13.7,4.8l-.4-.2c-2.9-3.2-5.7-6.6-8-10.1-.5-1.7-2.6-.7-3.7-.9,2.5,4.5,5.8,8.5,9.2,12.6-2.8,1.6-5.6,3.5-8.5,4.8-6.2-4.7-12.1-10.8-16.4-17.3-1.3-.2-2.1-.1-3.3,0,7.5,11.7,19.2,21.9,31.3,27.9,0,0,0-.1.1-.1s.3.2.1.3c8.2,4,17,6.9,26.2,8.1,32,4.2,62.5-9.4,80.2-36.2-1.5-.1-2.8-.1-3.9,0ZM182,189.4l.3-.2c4.5,1,8.7,2.5,12.7,4.4-3.3,3.8-7.6,7.1-11.6,9.8-2.4,1.4-4.8,3-7.3,4.2l-4.5-1.9.3-.7c3.9-5,7.2-10.2,10.1-15.6ZM161.5,186.3c5.9.1,11.9.7,17.4,2l.1.3c-2.9,5.5-6.6,10.8-10.5,15.9-1.8.2-3.4-.5-5.2-.6l-1.8-.2c-.2-6-.3-11.3,0-17.4ZM141.4,188.2c5.4-1,11-1.8,16.9-1.8l.1,17.3c-2.2.5-4.6.5-6.7,1-4.3-5-7.8-10.5-10.8-16.1l.5-.4ZM124.6,193.7h.1c4.1-2,8.3-3.4,12.7-4.5l.4.1c3,5.6,6.8,10.9,10.5,16.3-1.5.8-3.2,1.3-4.7,2.1-6.9-3.4-13.4-8.1-19-13.7v-.3ZM138.1,211.2c-8.7-2.3-16.9-6.1-24.4-11.5v-.3c2.5-1.5,5-3.2,7.7-4.3,5.9,5.8,12.1,10.2,18.7,14.4-.4.7-1.3,1.3-2,1.7ZM176.7,212.5c-11,2.4-23.3,2.5-34.4-.2-.2-.5.5-.6.8-.9,9.7-6.2,24.8-6.2,34.3.5.4.6-.5.4-.7.6ZM186.7,209.7l-4.9,1.5c-.8-.4-1.6-1-2.3-1.6l.2-.3c6.7-3.9,12.7-8.6,18.4-14.2,2.8,1.1,5.5,2.7,8,4.4-5.7,4.6-12.5,7.6-19.4,10.2Z"></path>
  <path d="M94,93.8c2.5-3.5,5.3-6.9,8.4-10.1,2.7-2.6,5.2-5,8.1-6.9,2.7,1.7,5.7,3.2,8.3,4.8-3.2,4-6.6,8-9,12.3.7.3,2.1.2,3.1,0,2.6-3.8,5.4-7.6,8.7-10.9,4.5,1.6,8.8,3.4,13.4,4.6l.4.4-2.6,5.9c1.2.2,1.9.1,3,0,.9-1.7,1.7-3.7,2.7-5.4,6,1.3,12.4,2,18.9,2.2.8.7.2,2.3.5,3.2h2.8c.3-1-.1-2.1.3-3.1,6-.3,12.4-.9,18.2-2.4l.5.1,2.8,5.3c.9,0,2.2.2,2.9-.2l-2.6-5.9.2-.2c4.8-1.2,9.3-3.1,13.8-4.9,3.2,3.4,6.2,7.4,9,11.2,1.1,0,2.3.1,3.1-.2-1.3-2.2-2.8-4.5-4.5-6.4-1.4-1.9-2.8-3.7-4.6-5.5v-.5l7.3-4.2,1.1-.4c6.3,4.8,12,10.6,16.4,17.1,1.3,0,2.3.4,3.3-.1-14-20.9-37-34.3-61.8-36.2l-.1.2-.2-.2c-2.8-.3-6.3-.4-9.3-.1-1.1-.1-2.5,0-3.9.1-25,1.9-48,14.7-62.4,36.5,1.5-.1,2.7.3,3.8-.1ZM137.2,84.8l-.4.1c-4.3-1.1-8.4-2.5-12.4-4.2l.2-.6c5.7-5.4,11.8-9.9,18.4-13.4,1.6.6,3.1,1.1,4.7,1.8l-.3.8c-4,4.9-7.1,10.2-10.2,15.5ZM157.9,87.5c-2.9.4-5.5-.1-8.4-.3-2.8-.4-6.3-.7-9.2-1.6,3-5.6,6.6-11,10.8-16l6.7.9c.3,5.3.1,11.4.1,17ZM161.1,87.6c-.2-5.4-.1-11.5,0-17.1,2.1-.3,4.4-.6,6.5-.9,4.1,5.1,8,10.3,10.7,15.9-5.6,1.4-11.4,2.1-17.2,2.1ZM194.3,80.5c-4.1,1.7-8.2,3.4-12.7,4.3-3.2-5.4-6.8-10.8-10.7-16.1,1.5-.8,3.2-1.4,4.8-2.2,6.8,3.4,13.3,8.2,18.8,13.7l-.2.3ZM181,63c8.7,2.3,17,6.1,24.5,11.5l-.2.4-7.2,4h-.5c-5.5-5.5-12-10.3-18.5-14.1.1-.8,1.2-1.3,1.9-1.8ZM176.8,62v.2c-9.1,6.5-23.7,7.2-33.3,1.1-.5-.4-1.6-.6-1.7-1.3,11.1-2.6,24.1-2.8,35,0ZM134.9,63.8c.3-.3.5-.6.9-.6v.2c.8.2,1.5-.7,2.2-.1.6.5,1.4.9,1.9,1.4-6.5,4-12.8,8.7-18.6,14.4-2.8-1-5.4-2.5-7.9-4.3v-.2h-.1c6.6-4.8,13.8-8.4,21.6-10.8Z"></path>
  <path d="M158,156.5c-9.8,2.7-20.4.6-27.5-6.7-.8-1-1.4-2.2-2.2-3.3l-14,.1c-.2,8.3-.3,17.8,0,26l15.6-.1.2-4.9c1.8.8,3.5,1.8,5.3,2.8,10.8,4.5,24.8,5.5,35.5,0,7.8-4.3,12-12.6,10.8-21.5-1.1-8.7-9.5-16.6-17.9-18.7l-25.2-7.3-1.9-.9c-.8-.7-1.4-1.6-1.2-2.8,2-3.4,6.6-2.3,10-2.3,7.3,1,14.8,3.5,19.1,10.1,4.6,0,9.9.1,14.9-.1.2-8.4-.1-15.7-.2-24.2-4.7-.1-10.4-.1-15.1.1-.2,1.2.2,2.9-.3,4.2l-4.8-2.6c-11.5-4.8-27.5-5.3-37.9,2.2-6.8,4.9-8.8,13.7-7.1,21.5,1.4,7.4,8.4,12.8,15.2,15.3,9.3,3.3,18.9,5.6,28.3,8.8.9.4,2.2,1.3,2,2.5.1.8-.9,1.4-1.6,1.8Z"></path>
  <path d="M124.7,224.1c-6.4,0-10.8,4.9-10.8,10.6s3.8,9.3,9,9.3c2.9,0,5-1,6.5-2.7h.1c-.5,2.8-1.9,5-3.8,6.6-1.7,1.3-3.9,2.1-6.1,2.3-1.4.1-2.2.2-3.1.1v4.6c.8,0,2.1,0,3.4-.1,4-.3,7.6-1.7,10.2-4.1,3.1-3,5.2-7.5,5.2-13.9,0-7.2-3.7-12.7-10.6-12.7ZM129.2,237.3c-.9,1.4-2.5,2.5-4.8,2.5-3.1,0-4.9-2.4-4.9-5.5,0-3.6,2-6.1,4.9-6.1,3.6,0,5.1,3.5,5.1,7.5,0,.8-.1,1.2-.3,1.6Z"></path>
  <polygon points="116.5 250.3 116.5 250.3 116.5 250.3 116.5 250.3"></polygon>
  <path d="M149.3,224c-7,0-10.9,6.2-10.9,15.5s3.7,15.3,10.6,15.3,10.9-6,10.9-15.6c0-8.8-3.3-15.2-10.6-15.2ZM149.2,250.5c-3.1,0-5.1-3.7-5.1-11s2.1-11.2,5.1-11.2c3.3,0,5,4.1,5,11s-1.7,11.2-5,11.2Z"></path>
  <path d="M173.9,224c-7,0-10.9,6.2-10.9,15.5s3.7,15.3,10.6,15.3,10.9-6,10.9-15.6c0-8.8-3.3-15.2-10.6-15.2ZM173.8,250.5c-3.1,0-5.1-3.7-5.1-11s2.1-11.2,5.1-11.2c3.3,0,5,4.1,5,11s-1.7,11.2-5,11.2Z"></path>
  <polygon points="190.3 228.1 191.3 232.4 196.8 229.65 196.8 254.3 202.3 254.3 202.3 224.5 197.6 224.5 190.3 228.1"></polygon>
  <path d="M158,39.1c-65.6,0-118.9,53.4-118.9,119s53.3,118.9,118.9,118.9,118.9-53.4,118.9-119-53.3-118.9-118.9-118.9ZM158,273.4c-63.6,0-115.3-51.8-115.3-115.4s51.7-115.3,115.3-115.3,115.3,51.8,115.3,115.4-51.7,115.3-115.3,115.3Z"></path>
  <path d="M158,0C70.9,0,0,70.9,0,158s70.9,158,158,158,158-70.9,158-158S245.1,0,158,0ZM158,312.3C72.9,312.3,3.7,243.2,3.7,158.1S72.9,3.8,158,3.8s154.3,69.1,154.3,154.2-69.2,154.3-154.3,154.3Z"></path>
  <path d="M46.6,96.7c.8-1.5,1.2-3,1.2-4.5l2.6-.8-.8-2.5-2.4.8c-.9-2-2.3-3.5-4.4-4.6-1.1-.7-2.3-1.1-3.6-1.3-3.7-.6-6.4.8-8.3,4.1-1.2,2.1-1.5,4.1-.9,6,.7,2.4,2.3,4.2,4.7,5.6,1.1.6,2.3,1,3.6,1.2,3.7.6,6.4-.7,8.3-4ZM36.4,96.5c-1.5-.8-2.5-1.8-3-3-.6-1.3-.5-2.7.3-4.1.8-1.4,1.9-2.2,3.4-2.4,1.3-.2,2.7.2,4.2,1,1.3.7,2.2,1.6,2.8,2.6l-2.6.8.8,2.5,2.3-.7c-.1.7-.3,1.3-.6,1.9-.8,1.4-1.9,2.2-3.4,2.4-1.3.2-2.7-.2-4.2-1Z"></path>
  <path d="M52.3,86.4c.8-.3,1.6-1,2.4-2.1.7-1.2.7-2.5.2-3.8l1.3.9,1.9-2.6-10.3-7.6-1.8,2.6,6.6,4.9c1.1.8,1.2,1.8.3,3.2-.6,1-1.2,1.4-1.9,1.3-.4-.1-.9-.3-1.6-.8l-6.4-4.7-1.9,2.6,7.1,5.3c1.5,1.1,2.8,1.4,4.1.8Z"></path>
  <path d="M55.3,69c-1-.9-1-1.9-.1-3,.4-.4.7-.7,1.1-.9.5-.2,1-.2,1.3.1.6.5.7,1,.5,1.6-.4.9-1,1.9-1.8,2.8-1.3,2-1.1,3.8.5,5.4,1.8,1.9,3.7,1.8,5.5-.2.9-1,1.3-2.4,1.3-4.2.4.4.8.6,1.2.6l2.3-2.6-.3-.2c-.6,0-1.2-.1-1.6-.5l-5.1-4.7c-2-1.8-4.2-1.4-6.6,1.2-2.4,2.6-2.5,4.9-.3,6.9l2.1-2.3ZM58.6,70c.3-.4.5-.7.8-1.1.4-.5.6-1,.7-1.5l.5.5c1.3,1.2,1.5,2.5.7,3.7-.1.2-.3.3-.4.5-.3.4-.7.6-1.1.6-.4.1-.7-.1-1.1-.4-.3-.3-.5-.6-.5-1s.1-.9.4-1.3Z"></path>
  <polygon points="71 65.1 59.2 52.6 56.8 54.8 68.6 67.3 71 65.1"></polygon>
  <polygon points="66.6 50.1 64.7 47.8 62.2 49.9 64.1 52.2 66.6 50.1"></polygon>
  <polygon points="73.3 63 75.8 60.9 67.5 51.2 65 53.3 73.3 63"></polygon>
  <path d="M69.6,49.8l1.3,1.6,1.3-1,5,6.6c1.3,1.3,2.8,1.3,4.4-.1.4-.3.8-.7,1.1-1.2l-1.4-1.8-1,.8c-.3.3-.7.1-1.1-.5l-4.4-5.7,1.5-1.1-1.3-1.7-1.5,1.1-2.1-2.8-2.6,2,2.1,2.8-1.3,1Z"></path>
  <path d="M87.3,53.2c.6,1.1.3,2-1,2.8-.1.1-.2.2-.4.3l1.5,2.3c1.9-1.3,2.9-2.3,3.1-3.1.1-.7.1-1.3-.1-1.9l-3.8-15.9-2.9,1.8,2.8,9.2-7.3-6.3-3.1,2,10.7,8.3c.2.1.4.3.5.5Z"></path>
  <polygon points="103.5 43.3 98.1 30.5 106.3 42.1 109.6 40.7 107 26.8 112.4 39.6 115.7 38.2 109.1 22.4 104.3 24.4 106.4 37.8 98.4 26.9 93.6 28.9 100.2 44.7 103.5 43.3"></polygon>
  <path d="M118.1,28.7c-.3-1.3.2-2.2,1.5-2.6.5-.2,1-.2,1.4-.2.5,0,.9.3,1,.7.2.7.1,1.2-.4,1.6-.8.5-1.8,1-3,1.4-2.2,1.1-3,2.7-2.5,4.9.6,2.6,2.2,3.5,4.8,2.8,1.4-.3,2.5-1.3,3.4-2.8.1.5.4.8.7,1.1l3.4-.9-.3-.4c-.6-.3-.9-.8-1.1-1.3l-1.8-6.7c-.7-2.6-2.8-3.4-6.2-2.5-3.4.9-4.7,2.8-3.9,5.7l3-.8ZM123.3,30.6c.5,1.7,0,2.9-1.4,3.6-.2.1-.4.1-.6.2-.5.1-.9.1-1.3-.1-.3-.2-.6-.5-.7-1-.1-.4-.1-.7.1-1.1.2-.4.5-.7,1-.9.4-.2.9-.3,1.3-.5.6-.3,1.1-.6,1.4-.9l.2.7Z"></path>
  <path d="M133.4,33.5l-1.4-8c-.2-1.3.4-2.1,2-2.5,1-.2,1.8-.1,2.2.4.3.2.5.8.6,1.6l1.3,7.7,3.2-.6-1.4-8.4c-.5-2.9-2.4-4.1-5.6-3.5-1.4.3-2.3,1.2-2.8,2.7l-.3-1.9-3.2.6,2.2,12.6,3.2-.7Z"></path>
  <path d="M149.7,23.6c-1,.4-2.1.7-3.3.8-2.3.6-3.5,2-3.4,4.3,0,2.6,1.4,3.9,4.1,3.7,1.3-.1,2.6-.8,3.8-2.1,0,.5.1.9.4,1.2l3.5-.2.1-.4c-.5-.5-.8-.9-.8-1.5l-.5-7c-.2-2.7-2.1-3.9-5.6-3.7s-5.2,1.8-5,4.8l3.1-.2c0-1.3.6-2,2-2.2.5,0,1,0,1.4.1.6.1.9.4.9.9.1.8-.1,1.3-.7,1.5ZM150.6,25.6v.7c.2,1.8-.5,2.9-2.2,3.3-.2.1-.4.1-.6.1-.5.1-.9,0-1.2-.3-.3-.2-.5-.6-.5-1.1,0-.4.1-.8.4-1.1.3-.4.7-.6,1.2-.7.5-.1.9-.2,1.4-.3.6-.1,1.1-.3,1.5-.6Z"></path>
  <path d="M157.5,35.6c.9.6,1.9,1,3,1.1,2.2.2,4-.1,5.2-.8,1.4-.9,2.1-2.1,2.2-3.8l.5-13.1-3.1-.1v2.1c-.7-.9-1.1-1.4-1.2-1.5-.5-.5-1.2-.7-2.1-.8-1.3-.1-2.5.3-3.6,1.4-1.3,1.2-2,3-2.1,5.4-.1,2.1.4,3.9,1.5,5.1.5.6,1,1,1.6,1.2.5.2,1.2.4,2,.4.8.1,1.4-.1,2-.4.4-.2.9-.6,1.5-1.3l-.1,1.8c0,.7-.3,1.2-.9,1.7-.6.4-1.3.6-2,.6-.1,0-.2-.1-.4-.1-1.3-.3-2-.8-1.9-1.5l-3.5-.1c-.1,1,.3,1.9,1.4,2.7ZM164.3,28.2c-.6.8-1.3,1.2-2.3,1.2-1-.1-1.7-.5-2.2-1.4-.5-.8-.6-1.7-.6-2.7.1-1,.3-1.9.8-2.6.6-.8,1.3-1.2,2.3-1.2.9.1,1.7.5,2.2,1.4.5.8.6,1.7.6,2.7-.1,1-.3,1.9-.8,2.6Z"></path>
  <path d="M172,31.6c.9.9,2,1.4,3.3,1.6,1.2.2,2.4,0,3.7-.6,1.3-.6,2.2-1.5,2.6-2.6l-3.2-.5c-.1.5-.5.8-1.1,1-.5.2-1,.3-1.5.2-.9-.1-1.6-.6-2-1.5-.3-.6-.3-1.3-.1-2.1l8.4,1.2c.1-.4.1-.7,0-1,.2-1.6.1-3-.5-4.3-.8-1.8-2.2-2.9-4.4-3.2-3.2-.5-5.3.9-6.4,4.3-.3.9-.4,1.8-.5,2.7-.1.7-.1,1.2,0,1.6.2,1.3.8,2.3,1.7,3.2ZM175,23c.6-.4,1.3-.6,2.1-.4,1.5.3,2.1,1.3,1.9,3l-5-.7c.2-.8.5-1.4,1-1.9Z"></path>
  <path d="M188.7,26.9c.2-.7.5-1.2,1-1.5.5-.3,1-.3,1.7-.1,1,.3,1.5.9,1.4,1.8l-2.4,8.4,3.1.9,2.1-7.5c.2-.6.5-1.1,1.1-1.4.6-.3,1.2-.3,1.8-.1,1,.3,1.4.9,1.2,1.7l-2.4,8.4,3.1.9,2.4-8.5c.7-2.3,0-3.9-2-4.8-.3-.1-.6-.2-.9-.3-.8-.2-1.4-.2-2-.1-.6.1-1.2.5-1.9,1-.4-.7-.7-1.2-.9-1.5-.4-.6-1.1-1-2.1-1.3-1.1-.3-2.4.1-3.8,1.2l.5-1.8-3.1-.9-3.5,12.3,3.1.9,2.5-7.7Z"></path>
  <path d="M206.9,42.2c1.2.5,2.4.6,3.8.3,1.4-.3,2.5-1,3.2-1.9l-3-1.3c-.2.3-.7.5-1.3.6-.5.1-1,0-1.5-.2-.9-.4-1.4-1.1-1.6-2-.2-.6,0-1.2.4-2l7.8,3.3c.1-.3.3-.6.4-.8.6-1.5.8-2.9.6-4.3-.3-1.9-1.5-3.3-3.5-4.2-3-1.2-5.4-.4-7.3,2.6-.5.8-.9,1.6-1.2,2.5-.2.6-.4,1.1-.4,1.5-.1,1.3.1,2.4.8,3.5s1.6,1.9,2.8,2.4ZM209.3,32.1c.7-.2,1.4-.2,2.1.2,1.4.7,1.8,1.8,1.1,3.4l-4.7-2c.3-.8.8-1.3,1.5-1.6Z"></path>
  <path d="M217,46.5l4-7.1c.7-1.1,1.7-1.4,3.2-.7,1,.5,1.5,1,1.5,1.7,0,.3-.2.9-.6,1.6l-3.8,6.8,2.9,1.6,4.1-7.5c1.5-2.6.8-4.7-2.1-6.3-1.2-.7-2.5-.6-3.8.3l.9-1.7-2.9-1.6-6.2,11.2,2.8,1.7Z"></path>
  <path d="M227.9,50.4c-.8,1.6-.3,3,1.5,4.1.4.2.9.5,1.5.6l1.3-1.9-1.1-.7c-.4-.2-.3-.6.1-1.2l4-6,1.5,1,1.2-1.8-1.5-1,1.9-2.9-2.7-1.8-1.9,2.9-1.3-.9-1.2,1.8,1.3.9-4.6,6.9Z"></path>
  <path d="M240.4,62.5c.5.6.9,1.1,1.3,1.5,1.8,1.6,3.4,2.5,4.8,2.7.8.1,1.6,0,2.5-.4.8-.3,1.5-.8,2.1-1.5,1-1.1,1.3-2.2,1.1-3.5-.2-1-.8-2.1-1.8-3.4-1.7-2.2-2.5-3.4-2.5-3.7-.2-.5-.3-.8-.3-1.1s.2-.6.6-.9c.9-.9,2.2-.7,3.6.6.7.7,1.2,1.4,1.4,2.1.3.9.1,1.7-.5,2.3l2.5,2.2s.1-.1.2-.2c.7-.8,1.1-1.8,1.2-2.9.1-1.9-.9-3.7-2.9-5.5-1.5-1.3-3-2-4.4-2.1-1.5-.1-2.8.5-4,1.8-1.3,1.5-1.5,3.2-.4,5.1.2.3,1,1.4,2.3,3.1.7.8,1.1,1.5,1.3,2,.3.9.2,1.6-.3,2.2-.9,1.1-2.3.9-4-.5-.8-.7-1.3-1.4-1.6-2.2-.3-.9-.1-1.8.5-2.5l-2.6-2.3c-1.2,1.5-1.6,3.1-1.2,4.9.2.7.5,1.4,1.1,2.2Z"></path>
  <path d="M250.5,73c-.9.8-1.9.6-2.9-.5-.1-.1-.2-.3-.3-.4l-2,1.8c1.5,1.7,2.7,2.6,3.5,2.6s1.4-.1,1.9-.4l15.1-6.2-2.3-2.5-8.7,4.2,5.1-8.2-2.4-2.7-6.6,11.7c-.1.2-.2.4-.4.6Z"></path>
  <path d="M263.1,78.4l1.5,4c.2.5,0,.9-.5,1.3-.4.3-.9.3-1.3.1-.3-.2-.6-.5-.9-1-.4-.8-.7-1.3-.7-1.7-.1-.6.1-1.1.5-1.7l-1.9-2.6c-1.4,1-1.8,2.5-1.5,4.4.2.8.6,1.6,1.3,2.6s1.4,1.8,2.2,2.3,1.6.8,2.5.7c.9-.1,1.8-.4,2.5-.9.6-.4,1-1,1.2-1.7s.2-1.4-.1-2.1l-1.8-4.6c-.2-.5-.1-.8.2-1.1.4-.2.8-.2,1.2,0,.4.2.7.5,1,.9.3.3.4.6.6,1.1s.2.8.1,1.1c-.1.3-.3.6-.7.9l1.9,2.6c1.2-.9,1.7-2,1.6-3.5-.1-1.2-.6-2.5-1.6-3.7-.9-1.2-1.8-1.9-2.9-2.2-1.2-.3-2.4-.1-3.5.8-1.2.9-1.5,2.2-.9,4Z"></path>
  <path d="M266.6,89.6c-1.4,1.1-1.5,2.6-.3,4.3.3.4.7.8,1.1,1.2l1.9-1.2-.7-1.1c-.2-.4,0-.7.6-1.1l6.1-3.8,1,1.6,1.9-1.1-1-1.6,2.9-1.8-1.7-2.8-2.9,1.8-.8-1.4-1.9,1.3.9,1.4-7.1,4.3Z"></path>
  <path d="M275.2,92.2c-.9.2-1.7.6-2.5,1.1-.6.3-1,.6-1.3.9-1,.9-1.5,1.9-1.7,3.2-.2,1.2,0,2.5.6,3.6.6,1.1,1.5,2,2.7,2.7,1.3.7,2.6.9,3.7.6l-1.5-2.9c-.4.1-.9,0-1.4-.4-.4-.3-.8-.7-1-1.1-.5-.8-.4-1.6,0-2.5.2-.6.8-1,1.6-1.3l3.8,7.6c.4-.1.7-.3,1.1-.4,1.4-.8,2.5-1.7,3.2-2.9,1-1.7,1-3.6,0-5.5-1.5-2.8-3.9-3.8-7.3-2.7ZM278.5,94.9c.7.3,1.2.8,1.5,1.5.7,1.4.2,2.5-1.3,3.3l-2.3-4.5c.7-.4,1.4-.5,2.1-.3Z"></path>
  <path d="M291.5,117c-.1-.3-.2-.6-.3-.9-.3-.7-.7-1.3-1.1-1.7-.5-.3-1.1-.7-1.9-.9.5-.8.7-1.3.8-1.6.2-.7.1-1.6-.2-2.5-.4-1.1-1.5-1.9-3.2-2.4l1.8-.6-1.1-3.1-12,4.3,1.1,3.1,7.7-2.7c.7-.2,1.3-.2,1.8,0s.9.6,1.1,1.3c.3,1,.1,1.7-.7,2.2l-8.3,2.9,1.1,3.1,7.3-2.6c.6-.2,1.3-.2,1.8.1s.9.7,1.1,1.4c.3,1.1.1,1.7-.7,2l-8.3,2.9,1.1,3.1,8.3-3c2.3-.8,3.3-2.3,2.8-4.4Z"></path>
  <path d="M116.5,276.2c-4-1.5-7.4-.5-10.1,3.1-.6.8-1.2,1.9-1.7,3.3-.5,1.2-.8,2.3-.9,3.3-.2,2.1.1,4,1,5.6.9,1.7,2.4,2.9,4.4,3.6,2.2.7,4.2.8,6,.2.9-.3,1.8-.8,2.6-1.6.8-.8,1.3-1.6,1.7-2.5l-3.6-1.4c-.4.7-.8,1.2-1.2,1.8-.7.7-1.7.9-2.9.8-.5-.1-1.1-.2-1.6-.4-.4-.2-.8-.5-1.1-.7-1-.8-1.6-2-1.6-3.6,0-1.3.3-2.6.9-4,.5-1.3,1.1-2.2,1.7-2.9.6-.7,1.4-1.2,2.2-1.5.8-.3,1.7-.3,2.5-.1,1.7.5,2.7,1.3,3.2,2.5.4.8.4,1.7.2,2.5l3.5,1.3c.7-2.2.4-4.2-.9-6.1-1-1.4-2.4-2.5-4.3-3.2Z"></path>
  <path d="M130.6,285.5c-3.5-.8-6.1.6-7.6,4.3-.4,1-.7,2-.8,3-.1.8-.1,1.4-.1,1.8.1,1.4.6,2.6,1.6,3.7,1,1.1,2.2,1.8,3.6,2.1,1.3.3,2.7.2,4.2-.4,1.6-.6,2.6-1.5,3.2-2.7l-3.6-.8c-.3.5-.7.8-1.4,1-.6.1-1.1.1-1.7,0-1.1-.3-1.8-.9-2.2-1.9-.2-.6-.2-1.4.1-2.3l9.3,2.1c.1-.4.2-.7.3-1,.4-1.8.3-3.4-.2-4.9-.7-2.1-2.3-3.5-4.7-4ZM132,292.2l-5.6-1.3c.2-1,.7-1.6,1.3-1.9.7-.5,1.5-.6,2.4-.3,1.7.4,2.3,1.6,1.9,3.5Z"></path>
  <path d="M145.2,289c-.8.5-1.4,1.2-1.8,1.9l.3-2.8-3.7-.5-1.8,14.3,3.7.5,1-8c.5-1.8,1.7-2.6,3.5-2.4.4,0,.8.1,1.3.2l.5-3.8c-.2,0-.3-.1-.5-.1-.8-.1-1.6.2-2.5.7Z"></path>
  <path d="M155.1,285.4l-3.7-.2-.2,3.9-1.8-.1-.1,2.7,1.8.1-.4,9.3c.2,2,1.5,3,3.9,3,.6,0,1.2-.1,1.8-.3l.1-2.5-1.5-.1c-.4,0-.6-.5-.6-1.3l.4-8.1,2.1.1.1-2.5-2.1-.1.2-3.9Z"></path>
  <polygon points="160.1 289 160.4 303.4 164.1 303.3 163.8 288.9 160.1 289"></polygon>
  <polygon points="163.8 287.3 163.7 284 160 284.1 160.1 287.4 163.8 287.3"></polygon>
  <path d="M174.4,288.2l-2.2.2-.1-1.5c-.1-.6.2-1,.7-1l1.3-.1-.2-2.7-2.3.2c-2.4.2-3.4,1.5-3.2,3.9l.2,1.7-2,.2.2,2.5,1.9-.4,1,11.6,3.7-.3-1-11.6,2.2-.2-.2-2.5Z"></path>
  <polygon points="177.2 287.8 179.5 302 183.1 301.4 180.8 287.2 177.2 287.8"></polygon>
  <polygon points="180.1 282.3 176.5 282.9 177 286.2 180.6 285.6 180.1 282.3"></polygon>
  <path d="M194.7,296c-.5.4-1,.7-1.5.8-1,.2-2,0-2.8-.7-.5-.4-.9-1.1-1-2.1l9.3-2.3c-.1-.4-.1-.8-.2-1-.5-1.7-1.3-3.1-2.4-4.2-1.6-1.5-3.6-2-6-1.4-3.5.9-5.1,3.3-4.8,7.3.1,1,.3,2,.6,3,.3.7.5,1.2.7,1.6.7,1.2,1.8,2.1,3.1,2.6s2.7.6,4.1.2c1.4-.4,2.5-1.1,3.6-2.3,1.1-1.3,1.6-2.6,1.6-3.9l-3.5.9c0,.5-.3,1-.8,1.5ZM189.1,289.2c.4-.7,1.1-1.1,2-1.3,1.7-.3,2.8.4,3.3,2.3l-5.5,1.4c-.3-.9-.2-1.7.2-2.4Z"></path>
  <path d="M206.2,274.8l2.5,6.5c-1.2-1.2-2.8-1.4-4.6-.6-2.1,1-3.3,2.6-3.4,4.8-.1,1.8.2,3.3.8,4.7.6,1.1,1.4,2.2,2.5,3.3.9.9,1.8,1.5,2.8,1.7.9.2,2,0,3.2-.5,1.4-.6,2.3-1.7,2.7-3.2l.5,1.4,3.4-1.3-7-18.1-3.4,1.3ZM210.9,289.2c-.1,1.2-.7,2-1.7,2.4-1,.4-2,.2-2.9-.6-.7-.6-1.2-1.4-1.6-2.4-.4-1-.5-2-.4-2.9.2-1.2.8-2,1.8-2.4,1-.4,2-.2,2.8.6.7.6,1.2,1.4,1.6,2.4.4,1,.5,2,.4,2.9Z"></path>
</symbol>
<symbol viewBox="0 0 225.8 105.1" id="krupomol_logo">  
  <g>
    <polygon fill="#002c73"  points="225.7 18.1 225.7 18.1 225.8 18.1 225.7 18.1"></polygon>
    <path fill="#002c73" d="M143.6,24.7l12.2-14.7c.5-.6.4-1.4-.2-1.9l-9.1-7.7C146.3,0,146,0,145.7,0s-.8.1-1,.4l-15.8,15.5L114.4,1c-.3-.3-.6-.4-1-.4s-.7,0-1,.4l-7.5,6.2c-.8.8-.9,2.1-.1,2.9l11,12.5-13,11.8L7.1,47.1,0,105.1l218.6-29,7.1-58-81,10.7-1.1-4.2Z"></path>
  </g>
  <g>
    <path fill="#fff"  d="M167.8,76.7c-.7-.7-3.8-3.8-6.7-4.5.2,0,.3,0,.5,0l4.4-1s-2.3,0-4.5.2c-1.1,0-2.3.2-3.1.2-.9-.3-4-1.1-6.9-1.1,1.3-.4,2.2-.7,2.2-.7,0,0-2.3.3-4.5.7-.6,0-1.1.2-1.7.3-1.2-.2-4.1-.5-6.5,0,1.2-.4,2-.7,2-.7,0,0-2.2.3-4.3.7-1.7-.2-7.9-.7-10.9,1.4,0-.2,0-.5.2-.8.3-.1.6-.3.9-.4,2.1-.9,4.2-1.7,4.2-1.7,0,0-2.2.4-4.4,1-.4,0-.8.2-1.1.3-.9,0-4.8.2-7.7,1.5,0-.4.1-.8.1-1.2,1.4-1.1,2.6-2,2.6-2,0,0-1.5.7-3.1,1.6-.5,0-3.7.7-6.2,2-1.5.3-7.1,1.5-8.3,4.3-.3.8-.3,1.6,0,2.4,0,.2.2.5.4.7-.2-.1-.4-.2-.6-.2-.3,0-.6,0-.9,0,.7-1.3,1.2-3,1.4-5.1v-.2c1.5-1.1,2.8-2.1,2.8-2.1,0,0-2,1-4.1,2.1-1.1.2-3.1.7-4.8,1.6.9-.7,1.6-1.2,1.6-1.2,0,0-2,1-4,2.1-1.7.3-7.4,1.6-8.6,4.3-.2.4-.3.9-.2,1.3-.5,0-1,.3-1.3.5h0c-1.4,1.3-3.2,1.9-3.7,2h0c0-.5,0-.9,0-1.2h0c.7-.9,2.7-.8,3.6-.8-.2,0-3.3-.3-4.2.9-.3.3-.3.7-.2,1.2-.7.2-1.5.3-2.2.5-4.5,1.1-8.3,2-11,2.6-2.7.6-4.2,1-4.2,1l1,3s.4,0,1-.4l.3-.3c.7-.3,1.7-.6,2.9-1.1.6-.2,1.3-.5,2.1-.7.8-.2,1.6-.5,2.5-.8.9-.3,1.9-.5,2.9-.8,1-.3,2.1-.6,3.2-.9,1.2-.3,2.4-.6,3.7-.9v.2c0,.3.3.5.6.7.6.4,1.8.6,3.2,0,0,0,0,.3,0,.4,0,.2.2.4.4.7,1,1.3,3.2,2.5,6.7,1.8,1.6.6,4,.6,6.9-.7l.4-.2c1.1-.2,2.4-.5,3.8-1.1,1,.2,2.3.4,3.6.3h.2c1.5.4,2.7.7,2.7.7,0,0-1-.4-2.3-1,1.3,0,2.7-.2,4.4-.8h.4c1.7,0,3.7-.5,5.9-1.4h.3c1.5,0,3.3-.2,5.4-1.1l.4-.2-.2-.2c1.6.4,3.8.3,6.5-.8,1.1.3,1.9.4,1.9.4,0,0-.6-.3-1.6-.7l-.2-.3s-.2-.2-.4-.5c1.3.3,3,.4,4.9,0h.4c.3,0,.5.2.8.2,2.2.6,4.4,1.1,4.4,1.1,0,0-1.1-.5-2.4-1.1,1.3,0,2.8,0,4.5-.6h.4v-.2c.5,0,1.1,0,1.7-.1,1.4.6,3.4.9,6,.5,1.3.3,2.3.6,2.3.6,0,0-.8-.3-1.8-.8v-.2c1.8.2,4.2-.2,7.1-1.7h1.3c2.3,0,4.5-.3,4.5-.3,0,0-2.3-.2-4.5-.5-.4,0-.7,0-1.1-.2,1.6,0,3.4-.5,5.6-1.6h.9c2.3,0,4.5-.3,4.5-.3,0,0-2.3-.2-4.5-.5h-.7ZM158.1,72h0c-4.3,2.7-9.2,3.2-10.6,3.2v-1.5c.4-.5.7-1.1,1-1.7,2.3-1.7,7.7-.5,9.7,0ZM139.6,71.8c2.3-1.2,6.4-.8,8-.5-3.6,3-8,4-9.3,4.1,0,0,0-.2,0-.4v-.4c.5-.8,1-1.8,1.5-2.8h0ZM128,73.4c2.1-2.4,8.2-2.1,10.5-1.9-2.9,2.5-6.1,3.9-8.5,4.7-.2,0-.5-.2-.8-.3h.2c.5,0,1-.3,1.6-.5.6-.2,1.2-.5,1.8-.8.6-.3,1.2-.6,1.7-.9s1-.6,1.4-.9c.4-.3.7-.5,1-.7.2-.2.4-.3.4-.3,0,0-.2,0-.4.2-.3.1-.6.3-1.1.5-.4.2-1,.4-1.5.7-.6.3-1.2.5-1.7.8-.6.3-1.2.6-1.7.8-.6.3-1.1.5-1.5.7-.2.1-.4.2-.6.3-.5-.1-1-.2-1.5-.2,0-.9,0-1.6.7-2.2ZM120,72.9c2.2-1.3,5.8-1.6,7.3-1.7-3.2,3.9-7.5,5.9-8.8,6.3,0,0,0-.2-.2-.4v-.3c.7-1,1.4-2.3,1.7-3.9ZM120.7,84.2c-3.6-1.8-5.9-4.8-6.5-5.7h0c0-.1.2-.3.2-.3.8-.6,1.5-.8,2.2-.5,2.1.7,3.6,4.9,4.1,6.5ZM118.4,71.7c-.2.1-.4.4-.7.6-.3.3-.6.5-1,.9-.4.3-.7.7-1.1,1-.6.5-1.1,1-1.6,1.4.3-.9.5-1.9.6-2.9,1.8-.9,3.8-1.4,4.8-1.6-1.8,3-4.5,5-6,6,0-.2.2-.5.3-.7.6-.4,1.4-1,2.2-1.7.4-.4.8-.7,1.1-1.1.3-.3.6-.7.9-1,.5-.6.8-1.1.8-1.1,0,0,0,0-.3.2ZM106,76.9c1-2.3,5.8-3.4,7.5-3.8-2.3,3.7-5.8,5.9-6.9,6.5,0,0-.2-.2-.2-.3-.6-.9-.7-1.7-.3-2.4h0ZM104.7,74.8c-2.2,3.7-5.7,5.9-6.9,6.5,0,0,0-.2-.2-.3-.6-.9-.7-1.7-.3-2.4,1-2.3,5.6-3.4,7.4-3.8ZM89.3,81.2c1-2.3,6-3.5,7.8-3.9,0,0-.2.2-.2.4,0,0,0,.1-.1.2-2.4,3.4-5.8,5.5-6.9,6,0,0-.2-.2-.2-.3-.6-.9-.7-1.7-.4-2.4ZM94.6,85.4c-.2-.2-.4-.4-.6-.5l.2-.2s0,0,.2,0c0,.3,0,.6.2.8ZM86.9,83.3h0c.3-.5.8-.7,1.4-.8,0,.3,0,.5.2.8-.2,0-.4.2-.6.3-.2,0-.4.2-.5.3-.3.2-.5.3-.5.3,0,0,.2,0,.6-.2.2,0,.4-.1.5-.2.2,0,.4-.2.6-.3v.2c-.8.4-1.6.7-1.9.8h0c0-.5,0-.9.1-1.2ZM84.7,85.8v-.2c0-.5.4-.7.7-.8,1.1-.3,2.9.9,3.5,1.3-1.9.4-3.7,0-4.2-.3ZM89,85.4s0-.2.2-.3c0-.2.3-.3.4-.5.8.7,2,1,3.2.7.2,0,.3-.1.5-.2,1.4,1.1,2.6,2.9,3.2,3.7-3.7-.6-6.6-2.7-7.5-3.4ZM98.6,88.2h-.1c.6,0,1.3,0,2,0h.7c.2.2.3.4.5.6-1.1,0-2.2-.3-3.1-.5ZM95.2,83.6c0-.1,0-.2,0-.3.5-.8,1.1-1.3,1.9-1.3,2.3,0,5.3,3.3,6.4,4.6-4.1-.3-7.5-2.3-8.4-3ZM102.4,81.1s.2-.2.3-.3c.7-.7,1.5-.9,2.2-.7h0c1.2.4,2.3,1.9,3.1,3.4,0,.1,0,.3,0,.4,0,0,0,.2.1.3,0,.1.2.3.3.4.5,1.1.8,2,1,2.7-3.9-1.8-6.4-5.1-7.1-6.2ZM108.9,81.6s0-.2.2-.3c.6-.7,1.3-1,2-.8,2.2.4,4.3,4.2,5,5.7-3.8-1.2-6.5-3.7-7.2-4.6ZM116,84.4c0-.2-.2-.3-.3-.5.2,0,.4,0,.6.2,1.2.5,2.6.9,4.5.9-1.7,0-3.4-.2-4.8-.6ZM119.5,78.4c0,0,0-.2.2-.2.6-.7,1.3-1,2.1-.9,2.2.4,4.4,4.2,5.1,5.7-3.8-1.1-6.5-3.6-7.4-4.6ZM130.6,82.2c.2,0,.4,0,.7-.2h.1c.5,0,.9.2,1.1.2,0,0-.1,0-.2,0,0,0-.3-.1-.5-.2.2,0,.4,0,.6-.2h0c.3.3.6.6.8.9-.9,0-1.8-.2-2.7-.4ZM124.7,78s0-.2.2-.3c.7-1,1.5-1.5,2.4-1.5,2.6,0,5.6,3,6.7,4.2-4.6,0-8.3-1.8-9.3-2.4ZM133.8,77.4h0c0,0,0-.2.1-.3.4-.9,1-1.3,1.7-1.4,2-.2,4.7,2.2,6.1,3.6,0,0,.2.3.3.4-3.9,0-7.3-1.8-8.2-2.3ZM142.3,76.9s.1-.2.2-.3c.6-.9,1.3-1.4,2.2-1.4,2.5,0,5.5,3.4,6.6,4.7-4.5-.3-8-2.3-9-3ZM151.3,77.1h.1c0-.1,0-.2,0-.4.5-1,1.1-1.6,2-1.8,2.7-.5,6.5,2.9,7.8,4.2-4.7.3-8.8-1.4-10-2ZM157.9,74.6c0-.1,0-.2,0-.3.4-1,1.1-1.5,1.9-1.7,2.5-.4,6.1,2.8,7.4,4-4.5.3-8.3-1.4-9.4-2Z"></path>
    <path fill="#fff" d="M132.5,82.2c0,0,0,0,0,0,0,0,0,0,0,0Z"></path>
    <path fill="#fff" d="M86.7,82.9h0s0,0-.1,0c0,0,0,0,0,0h0Z"></path>
    <path fill="#fff" d="M150.7,74.3c.6-.1,1.1-.3,1.7-.4.6-.2,1.2-.3,1.7-.5s1-.4,1.4-.6c.4-.2.7-.4,1-.5.2-.1.4-.2.4-.2h-.4c-.3,0-.6.2-1.1.3-.4,0-.9.2-1.5.4-.5,0-1.1.3-1.7.5-.6.2-1.1.3-1.7.5-.5.2-1,.3-1.5.4h.1c-.9.3-1.4.5-1.4.5,0,0,.6,0,1.5,0,.4,0,1-.1,1.5-.3Z"></path>
    <path fill="#fff" d="M139.9,74.6c.4-.1.9-.2,1.4-.4s1-.4,1.5-.6,1-.4,1.5-.7c.5-.2.9-.5,1.2-.7.7-.4,1.1-.8,1.1-.8,0,0,0,0-.4,0-.2,0-.5.2-.9.4-.4.2-.8.3-1.3.5s-1,.4-1.5.6c-1,.4-2,.9-2.8,1.2-.4.2-.7.3-.9.4-.2,0-.3.2-.3.2h.4c.2,0,.6-.1,1-.2Z"></path>
    <path fill="#fff" d="M121.4,75.7h-.1c.5-.4,1-.7,1.5-1s1-.7,1.4-1,.8-.7,1.1-1c.3-.3.6-.6.7-.8l.3-.3s0,0-.3.2c-.2.1-.5.3-.9.6-.4.2-.8.5-1.2.8-.5.3-.9.6-1.4,1-.5.3-1,.7-1.4,1-.4.3-.9.6-1.2.9-.7.5-1.2.9-1.2.9,0,0,.6-.2,1.4-.6.4-.2.8-.4,1.3-.7Z"></path>
    <path fill="#fff" d="M84.2,84.4h-.1c.2,0,.4-.2.6-.3.2-.1.4-.2.6-.3.2-.1.4-.2.5-.3.3-.2.4-.4.4-.4,0,0-.2,0-.5.2-.3.1-.7.4-1.1.6s-.4.2-.6.3c-.2,0-.4.2-.5.3-.3.2-.5.3-.5.3,0,0,.2,0,.6-.2.2,0,.4-.1.6-.2Z"></path>
    <path fill="#fff" d="M158.7,74.5h-.4s0,0,.3.2c.2,0,.5.2.9.4v-.2c.8.3,1.8.6,2.8.9.5,0,1,.2,1.5.3.5,0,.9,0,1.3.2h1.3s-.1,0-.3-.1c-.2,0-.5,0-.9-.2-.4,0-.8-.2-1.3-.3-.5,0-1-.2-1.5-.4-1-.2-2-.5-2.8-.6-.4,0-.7,0-.9-.2Z"></path>
    <path fill="#fff" d="M90.9,82.6h.2c.3-.1.7-.4,1.1-.7.4-.3.8-.6,1.2-1,.4-.4.8-.7,1.1-1.1.4-.4.7-.7.9-1,.5-.6.8-1.1.8-1.1,0,0-.1,0-.3.2-.2,0-.4.4-.7.6-.3.3-.7.6-1,.9-.4.3-.8.7-1.2,1-.8.7-1.6,1.4-2.2,1.9l-.7.7-.3.3s.1,0,.3-.2c.2-.1.5-.3.8-.5Z"></path>
    <path fill="#fff" d="M98.9,80.1c.6-.4,1.5-1.1,2.2-1.7.4-.4.8-.7,1.1-1.1.3-.3.6-.7.9-1,.5-.6.8-1.1.8-1.1,0,0-.1,0-.3.2-.2,0-.4.4-.7.6-.3.3-.6.5-1,.9-.4.3-.7.7-1.1,1-.8.7-1.5,1.4-2.1,1.9-.3.3-.5.5-.7.7-.2.2-.2.3-.2.3,0,0,.1,0,.3-.2.2,0,.5-.3.8-.5Z"></path>
    <path fill="#fff" d="M107.7,78.4c.6-.4,1.5-1.1,2.2-1.7.4-.4.8-.7,1.1-1.1.3-.3.6-.7.9-1,.5-.6.8-1.1.8-1.1,0,0-.1,0-.3.2-.2.1-.4.4-.7.6-.3.3-.6.5-1,.9-.4.3-.7.7-1.1,1-.8.7-1.5,1.4-2.1,1.9l-.7.7c-.2.2-.2.3-.2.3,0,0,0,0,.3-.2.2,0,.5-.3.8-.5Z"></path>
    <path fill="#fff" d="M107.1,84.7c-.4-.3-.7-.7-1.1-1-.8-.7-1.5-1.4-2.1-1.8-.3-.2-.5-.4-.7-.6-.2,0-.3-.2-.3-.2,0,0,0,0,.2.3.1.2.3.4.6.7h0c.5.7,1.2,1.4,2,2.1.8.7,1.6,1.3,2.2,1.7s1.1.6,1.1.6l-.3-.3c-.2-.2-.4-.4-.7-.6-.3-.3-.6-.6-1-.9Z"></path>
    <path fill="#fff" d="M131.9,79.7c-.7-.2-1.7-.5-2.7-.8h0c-1-.4-2-.6-2.7-.8-.4,0-.7-.2-.9-.2h-.4s0,0,.3.2c.2,0,.5.3.8.4.7.3,1.7.7,2.7,1,.5,0,1,.3,1.5.4.5.1.9.2,1.3.2h1.3s-.1,0-.3,0c-.2-.1-.5-.2-.9-.3Z"></path>
    <path fill="#fff" d="M140.3,78.9h0c-.7,0-1.6-.4-2.4-.7-.9-.3-1.8-.5-2.5-.7-.7-.2-1.1-.3-1.1-.3,0,0,.4.3,1,.6.6.3,1.5.7,2.4.9.9.3,1.8.5,2.5.6.7,0,1.2,0,1.2,0,0,0-.1,0-.3-.1-.2,0-.5-.2-.8-.3Z"></path>
    <path fill="#fff" d="M121,79c-.6-.4-1-.6-1-.6,0,0,.3.4.8.8.5.5,1.3,1,2.1,1.6.8.5,1.6,1,2.3,1.2.6.3,1.1.4,1.1.4l-.3-.2h0c-.2,0-.4-.2-.7-.4-.6-.4-1.4-.9-2.1-1.4-.8-.5-1.6-1-2.2-1.4Z"></path>
    <path fill="#fff" d="M149.3,79.2c-.7-.3-1.7-.6-2.6-1-1-.3-1.9-.7-2.6-.9v-.2c-.5-.1-.8-.2-1-.3h-.3s.1,0,.3.2c.2.1.5.3.8.5.7.4,1.6.8,2.6,1.1.5.2,1,.3,1.4.5.5,0,.9.2,1.3.3.6,0,1,.2,1.2.2,0,0-.1,0-.2,0-.2,0-.5-.2-.9-.3Z"></path>
    <path fill="#fff" d="M150.4,79.6c0,0,0,0,0,0,0,0,0,0,0,0Z"></path>
    <path fill="#fff" d="M152.3,76.9h-.4s0,0,.3.2c.2,0,.5.2.9.4.4.2.8.3,1.3.5.5.2,1,.3,1.6.4.5,0,1.1.2,1.6.3.5,0,1,.1,1.4.2h1.4s-.1,0-.4,0c-.2,0-.6-.1-1-.2l.2-.2c-.4,0-.9-.2-1.4-.3-.5-.1-1-.2-1.6-.4-1.1-.2-2.1-.5-2.9-.6-.4,0-.7-.1-1-.2Z"></path>
    <path fill="#fff" d="M102.7,86c0,0,0,0,0,0,0,0,0,0,0,0Z"></path>
    <path fill="#fff" d="M101.7,85.6c-.7-.3-1.6-.6-2.5-1-.9-.3-1.8-.7-2.5-.9h0c-.7-.2-1.2-.4-1.2-.4,0,0,.4.3,1,.6.6.4,1.5.8,2.4,1.1.9.3,1.8.6,2.6.8.5,0,.9.2,1.1.2,0,0-.1,0-.2,0-.2,0-.5-.2-.8-.3Z"></path>
    <path fill="#fff" d="M115.6,79.1c-.5-.5-.9-.8-.9-.8,0,0,.3.4.7,1,.4.6,1.1,1.2,1.8,1.9.7.6,1.4,1.2,2,1.6.6.4,1,.6,1,.6l-.2-.2c0,0-.4-.3-.6-.6-.5-.5-1.2-1.1-1.9-1.8-.7-.6-1.4-1.3-1.9-1.7Z"></path>
    <path fill="#fff" d="M110.3,82.1h.1c-.6-.4-1-.6-1-.6,0,0,.3.4.8.8.5.5,1.2,1,2,1.6.8.5,1.6,1,2.2,1.3.6.3,1.1.4,1.1.4l-.3-.2c-.2,0-.4-.3-.7-.5-.6-.4-1.3-.9-2.1-1.4-.8-.5-1.5-1-2.1-1.4Z"></path>
    <path fill="#fff" d="M136.6,18.8c-.3,0-6.3,4.9-5.2,5.9,1.1,1.1,6.6-6.2,5.2-5.9Z"></path>
    <path fill="#fff" d="M120.6,16.4c.4-.4-1.8-1.8-1.8-1.5,0,.6,1.4,1.8,1.8,1.5Z"></path>
    <path fill="#fff" d="M122.6,19.2h.1c.4.6.2,1,.4,1.1.2,0,.3-1.2.1-1.7s-1.8-1.7-1.8-1.3c0,1.3.8,1.3,1.2,1.9Z"></path>
    <path fill="#fff" d="M118.7,26.5h0l-.4-.5.2.3v.2c0,0,.1,0,.1,0Z"></path>
    <polygon fill="#fff" points="108.5 36.4 108.2 36.7 108.2 36.8 108.5 36.5 108.5 36.4"></polygon>
    <polygon fill="#fff" points="115 29.3 114.7 29.6 115.1 30 115.4 29.7 115 29.3"></polygon>
    <path fill="#fff" d="M119.1,26l-.3-.5h0c0,.2,0,.4,0,.4,0,0,0,0,0,0l.3.3.2-.2Z"></path>
    <path fill="#fff" d="M116.9,27.3l-.2.2.3.5s0,.1,0,.2l.4-.4-.5-.5Z"></path>
    <path fill="#fff" d="M119.7,25.5s-.6-.6-.6-.5h0l.4.7.2-.2Z"></path>
    <path fill="#fff" d="M114.7,30.4l-.5-.4-.2.2c.1.1.4.5.4.5l.3-.3Z"></path>
    <path fill="#fff" d="M116.8,28.4h0c0,0,0,0,0,0l-.3-.4-.4.4.4.4h0q0,0,0,0l.4-.4Z"></path>
    <polygon fill="#fff" points="125.5 34.3 125.8 34.6 126 34.5 125.7 34.2 125.5 34.3"></polygon>
    <path fill="#fff" d="M138.5,40.1s0-.2,0-.5c0,.1,0,.3,0,.4,0,0,0,0,0,0Z"></path>
    <polygon fill="#fff" points="115.6 28.6 115.4 28.9 115.8 29.4 116.1 29.1 115.6 28.6"></polygon>
    <path fill="#fff" d="M118.3,26.9l-.5-.5-.4.3.3.4c0,0,0,.1,0,.2h0c0,0,.5-.4.5-.4Z"></path>
    <path fill="#fff" d="M101.2,46.3h-.1c0-.1,0,0,.1,0Z"></path>
    <polygon fill="#fff" points="112.5 32 112.2 32.2 112.5 32.6 112.8 32.3 112.5 32"></polygon>
    <polygon fill="#fff" points="109.2 35.8 109 35.6 108.6 36 108.8 36.2 109.2 35.8"></polygon>
    <polygon fill="#fff" points="127.1 35.8 127.4 36.1 127.5 36 127.3 35.7 127.1 35.8"></polygon>
    <polygon fill="#fff" points="110.7 34.3 110.4 34 110.2 34.2 110.5 34.5 110.7 34.3"></polygon>
    <path fill="#fff" d="M128.5,37.2c.1.1.2.2.2.2h.1l-.2-.3h-.1Z"></path>
    <polygon fill="#fff" points="129.2 37.8 129.2 37.8 129.1 37.8 129.2 37.9 129.3 37.9 129.2 37.8"></polygon>
    <polygon fill="#fff" points="127.9 36.6 128 36.7 128.1 36.6 128 36.5 127.9 36.6"></polygon>
    <polygon fill="#fff" points="110.1 35 109.8 34.7 109.3 35.2 109.6 35.5 110.1 35"></polygon>
    <polygon fill="#fff" points="126.3 35 126.7 35.4 126.9 35.3 126.5 34.9 126.3 35"></polygon>
    <polygon fill="#fff" points="114 31.1 113.6 30.6 113.3 30.9 113.7 31.4 114 31.1"></polygon>
    <polygon fill="#fff" points="111.9 32.5 111.4 33 111.7 33.4 112.2 32.9 111.9 32.5"></polygon>
    <polygon fill="#fff" points="113.3 31.8 113 31.4 112.8 31.6 113.1 32 113.3 31.8"></polygon>
    <polygon fill="#fff" points="111.4 33.6 111.1 33.3 110.7 33.7 111 34 111.4 33.6"></polygon>
    <polygon fill="#fff" points="124.8 33.6 125 33.8 125.1 33.6 124.9 33.4 124.8 33.6"></polygon>
    <polygon fill="#fff" points="107.9 37.2 107.4 37.6 107.4 37.7 107.9 37.2 107.9 37.2"></polygon>
    <polygon fill="#fff" points="188.3 50.8 183.1 51.4 181.4 36.7 177.1 37.2 179.4 55.8 182.2 55.4 188.8 54.6 188.3 50.8"></polygon>
    <path fill="#fff" d="M166.5,38.2c-5.2.6-8.8,5.5-8.2,10.8.6,5.3,5.3,9.2,10.5,8.5,5.2-.7,8.8-5.5,8.2-10.8-.6-5.3-5.3-9.2-10.5-8.5ZM168.3,52.8c-2.7.3-5.1-1.7-5.4-4.4-.3-2.8,1.6-5.3,4.2-5.6,2.6-.3,5.1,1.7,5.4,4.4s-1.6,5.3-4.2,5.6Z"></path>
    <polygon fill="#fff" points="52.9 52.2 47.7 52.8 43 61.9 42 53.5 37.7 54 40 72.6 44.2 72 43.2 63.6 50 71.3 55.2 70.7 47.4 62.2 52.9 52.2"></polygon>
    <path fill="#fff" d="M66.3,69.4s5.3-.6,5.3-.6l-6.1-6.8c2-1.1,3.3-3.4,3-5.8-.3-2.4-3.3-5.4-6.4-5l-3.3.4-3.4.4,2.2,18.5,4.2-.5-.8-7,5.3,6.4ZM60,55.2l1.4-.2c1.3-.2,2.4.8,2.6,2,.2,1.3-.8,2.4-2,2.6l-1.4.2-.6-4.6Z"></path>
    <path fill="#fff" d="M92,66.3l-.7-6.1,3-.4c3.2-.4,5.3-2.8,4.8-6.9s-3.7-5.9-6.8-5.5h0c0,0-2.5.4-2.5.4h-.3l-3.9.5,2.2,18.5,4.2-.5ZM92.1,51.7c1.3-.2,2.4.5,2.6,1.9.2,1.6-.7,2.6-2,2.7l-1.9.2-.6-4.6,1.9-.2Z"></path>
    <path fill="#fff" d="M78.2,68.6h1.2c3.7-.6,6.4-4,6-7.7l-1.5-12.4-4.4.5,1.4,12c.2,1.7-1,3.2-2.7,3.4s-3.2-1-3.4-2.7l-1.4-12-4.3.5,1.5,12.4c.4,3.7,3.9,6.4,7.6,6Z"></path>
    <path fill="#fff" d="M101.4,46.4c0,0-.1,0-.2,0l1.7,1.8c-1.8,2-2.7,4.8-2.4,7.7.6,5.3,5.3,9.2,10.5,8.5,5.2-.6,8.8-5.5,8.2-10.8-.6-5.3-5.3-9.2-10.5-8.5-.8,0-1.5.3-2.2.6.5-.8,1.2-2.1,1.4-2.3.3-.3,5-5.5,6.3-6.7,1.4-1.2,7-6.4,7-6.4,0,0,.8-.5,1.2-.2.3.2,0,1.2,0,1.2l-2.2,2.5,1,.7v5.9c-2-1.8-5.3-4.9-5.3-4.5h0c.2.9,3.5,4,5.1,5.5l-.3,21.1,4.9-.6.2-19.4,12.9,17.8,3.2-.4,1.3-4.1,2.9-2.9c.2,0,.4.1.5,0,.3,0,.6-1.4.6-1.4l-2-2.3,3.8-11.9,5.9,21,4.5-.6-8.2-28.9-3.5.5h-.2l-5.2,16.5-3.6-4.2s-.2-.7-.3-1.7c-.6-.7-9.9-10.7-10.2-10.8-.3,0-.8-2.6-.8-3.4s3.8-4.6,4.2-5.3c.4-.7,5.4-5.1,6.6-6.2,1.2-1,4.3-5.1,5.3-6.2,1-1.1,2.9-2.2,3.2-2,.4.2-.3,1.5-.4,1.8-.1.3-1.5.7-2,1.1-.4.4-1.9,3.3-2.8,4.4-.9,1.1-3.8,3.5-3.8,3.5v1.8c0,0-.6,1.9-.6,1.9,0,0,.9-.9,2-2.1,0,0,0,.1,0,.2l.4.3-.5.5h-.1c0-.2-.2-.2-.3,0v.3h.1l-.6.8h-.2c0-.2-.2-.2-.3,0v.3h.2c0,.1-.5.7-.5.7l-.5-.3h-.3v.3l.5.3-.7.8-.5-.2c-.1,0-.2,0-.3,0,0,0,0,.2,0,.3l.4.2-.4.4-.4-.2h-.3v.3h.3c0,0-.5.7-.5.7l-.4-.2h-.3v.3h.3c0,.1-.5.7-.5.7l-.4-.2c-.1,0-.2,0-.3.1,0,0,0,.2.1.3h.3l-.3.5-.5-.2c-.1,0-.2,0-.3,0,0,.1,0,.2,0,.3l.4.2-.4.5h-.4c-.1-.2-.2,0-.3,0,0,.1,0,.2.1.3h.2l-.3.4c-.4-.3-1.2-1-1.5-1.2-.5-.3-2.2-.9-2.2-.9v1.3l2.5,2.2s-.5,0-.6.3c0,.2-.2.6-.2.6,0,0,4.3,4.5,4.5,4.4.2,0-.5-1.5-.5-1.5,0,0,1.2-.9,1.4-1.9s-1.5-2.3-1.5-2.3l5.4-1.1-.3,1.8.5.5s-.7,2.4-.9,3.6c-.6,2.9-.3,5.4,0,6.3-.2-1.4-.3-3.3,0-4.9.6-2.7,1.4-6.4,1.4-6.4l.6-.3-.6-1.9-.8,1.3-3.7.6,2-2.3.6-.3s0,0,.2,0h0c0-.1,5.1-6.1,5.1-6.1v-.2c0,0,8.2-9.3,8.2-9.3.3-.3.3-.8,0-1.1l-3.8-3.4c0,0,.1-.2.1-.2l-1.5-1.2-.7.3-19.1,19.2-1,.2v-.5c-.1,0,2.6-3.6,2.4-3.8h.1c0,0-1.6-1.8-1.6-1.8l-10.2-10.7-2.7-2.8c-.1-.2-.3-.2-.6-.2s-.4.1-.5.3l-1.3,1.5-3,3.4s4.3,5.2,4.8,4.6c.2-.2-3.1-3.3-2.7-3.6.4-.2,2.7.2,3.9.8.7.3,2.5,1.9,2.7,1.7s-4.2-5.1-5.4-6.5l.8-1,.2.2-.5.5v.3h.3l.5-.5.3.3-.5.5s-.1.2,0,.3h.3l.6-.5.4.4-.5.5v.3h.3l.5-.5.3.3-.5.5v.3h.3l.4-.5.4.4-.4.4v.3h.3l.4-.4.5.5-.5.4s-.1.2,0,.3h.3l.5-.4.5.5-.3.3v.3h.3l.3-.3.4.4-.6.6v.3h.3l.5-.6.4.4-.6.6v.3h.3l.6-.6.3.3-.6.6v.3h.3l.6-.6.3.3-.7.6v.3h.3l.7-.6h0c0,.1-.5.6-.5.6v.3h.2c0,0,0,0,0,0,0,0,0,0,0,0v.3h.3l.5-.5.4.4-.2.3v.3h.3l.2-.3.3.3-.2.2v.3h.3l.2-.2.2.2-.3.3v.3h.3l.3-.3.3.4-.2.3v.3h.3l.2-.3.3.3-.2.2v.3h.3l.2-.2.2.3-.3.4v.3h.3l.3-.3.3.3-.2.3v.3h.3l.2-.2.3.3-.4.4v.3h.3l.4-.4.3.4-.3.3v.3h.3l.3-.3.3.3-.3.3v.3h.3l.3-.3.3.3-.3.3v.3h.3l.2-.3.2.2c-1.2,1.4-3.1,4-3.1,4l-.5.2s-7.9-9.1-8.5-8.9c-.3.1,0,.9,0,.9l7.5,8.1v1c0,.2-.2.4-.3.6l-1.8-1.8c-.3-.3-.7-.2-.9,0l-19.3,19.4c-.2.2-.2.6,0,.8l1.7,1.9ZM144.6,51.6l1.1,1.2s0,0,0,0l-1.3,1.3-.5-.5.6-2ZM143.9,54.1l.3.3-.6.6.3-1ZM133.8,28h-.8c0,0,.2-.2.2-.2l.6.2h0ZM135.4,27.8c-.1,0-.8,0-.8,0l-1.1-.4.4-.5,1.5.6v.2ZM135.6,27.3l-1.4-.6.3-.4,1.5.6-.4.4ZM136.3,26.5l-1.5-.6.4-.5,1.4.7-.3.4ZM136.9,25.9h0c0,0-1.4-.8-1.4-.8l.5-.5,1.4.7-.5.6ZM137.7,24.8l-1.3-.7.3-.4,1.5.6-.5.5ZM138.5,24.1l-1.5-.6.6-.7,1.3.8h0c0-.1-.5.5-.5.5ZM139.7,22.6l-.5.5-1.3-.8.5-.6,1.3.8h0ZM140,22.3l-1.3-.8.6-.6,1.1.9-.4.5ZM140.7,21.5l-1.2-1,.5-.5,1.2.9-.5.6ZM141.5,20.5l-1.2-.9.4-.5,1.2.9-.4.5ZM142.1,19.7l-1.2-.9.5-.6,1.2.9h.1l-.6.6ZM143,18.8l-1.2-.9.7-.8,1.1,1-.6.7ZM143.9,17.7l-1.2-1,.5-.6h0c0,0,1.2,1,1.2,1l-.5.6ZM144.7,16.8l-1.2-.9.4-.5h0l1.4.7-.6.7ZM145.5,15.8l-1.4-.7.5-.6h0l1.2.9-.4.4ZM146.3,15l-1.2-.9.4-.5,1.2.9-.4.5ZM146.9,14.2l-1.2-.9.5-.6,1.3.9-.6.6ZM147.8,13.3l-1.2-.8.4-.4,1.2.7-.4.5ZM148.5,12.4l-1.3-.8.5-.6,1.3.8-.5.6ZM149.7,10.9l-.5.6-1.2-.8.6-.6,1.2.8h0ZM150,10.6h0c0-.1-1.2-.9-1.2-.9l.6-.7c.4.2.9.6,1.3.8l-.7.8ZM151.1,8.9c.2,0,.2.4,0,.5h-.1c-.6-.4-.9-.6-1.2-.8l.5-.5.8.8ZM149.9,7.7l-.5.6c-.3-.2-.4-.2-.4-.2,0,0-.2,0-.2.2s0,0,.1.2c0,0,0,0,.2.1l-.6.7h0c0-.2-.2-.1-.3,0v.3h.1l-.6.7h-.2v.2l-.6.7-.3-.2h-.3v.3h.2c0,0-.3.5-.3.5h-.3v.3l-.5.6h-.3v.2l-2.8,3.3h0l-.7.9-.2-.2h-.3v.3l.2.2-.5.6h-.3v.3l-.4.5-.4-.3h-.2c1.5-1.6,3.3-3.5,4.1-4.5,1.5-1.7,5.6-6.9,5.6-6.9,0,0-.6-.5-1.1-1.1-.1,0-.2-.3-.3-.4l2.3,2.1ZM127.6,19.3l-.5.5-.2-.2.5-.5.2.2ZM112.7,4.8l-.2-.2.2-.2s0,0,.2,0h.2l-.4.5ZM113.1,5.1h0l.5-.5.4.4-.5.4-.3-.3ZM113.9,6.2l-.4-.4h0l.5-.4.3.3-.5.5ZM114.3,6.5h0l.5-.5.3.3-.4.5-.3-.3ZM114.8,7.1l.5-.5.4.4-.5.5-.4-.4ZM115.6,7.8h0l.5-.5.6.6-.5.4-.5-.5ZM116.7,9.1l-.4-.4h0c0,0,.5-.5.5-.5l.3.4-.4.5ZM117.4,9.9l-.4-.5.4-.5.5.5-.5.5ZM118.2,10.5l-.4-.4.5-.5.4.4-.5.5ZM118.8,11.2l-.3-.3.5-.5.3.3-.5.5ZM119.3,11.8l-.3-.3.5-.5.3.3-.5.5ZM119.2,13.1l.4-.5c0,0-.2.3-.4.5ZM119.6,12.2h0c0,0,.5-.6.5-.6l-.5.6ZM120,12.6h0c0-.1.5-.6.5-.6l-.5.6ZM120.8,13.3l-.4-.4.5-.5.3.3-.4.6ZM121.5,14l-.4-.4.4-.6.5.5-.5.5ZM121.9,14.5l-.2-.2.5-.5.2.2-.5.5ZM122.5,15.1l-.3-.3.5-.5.3.3-.5.5ZM123.1,15.8l-.3-.3.5-.5.3.3-.5.5ZM123.6,16.3l-.2-.2.5-.5.2.2-.5.5ZM124.2,16.9l-.3-.3.5-.5.3.3-.5.5ZM124.8,17.6l-.3-.3.5-.5.3.3-.5.5ZM125.4,18.2l-.3-.3.5-.5.3.3-.5.5ZM126,18.8l-.3-.3.5-.5.3.3-.5.5ZM126.2,19.1h0l.5-.5.2.2-.5.6-.3-.3ZM128.3,39.1l1.3-.9-1.2,1v-.2ZM128.6,39.5l1.2-.9.2.2-1.2,1-.2-.2ZM129,40.1l1.3-1,.4.4-1.4,1-.3-.4ZM129.6,40.9l1.3-1.1.5.6-1.4,1-.4-.6ZM130.7,42.5l1.2-.8s0-.2,0-.3h0s-.2,0-.3,0l-1.2.8-.3-.5,1.5-1,1,1.1-1.8.9-.2-.3ZM131.2,43.1l1.8-1,.2.3-1.8,1.1-.3-.4ZM131.7,43.8l1.8-1,.3.4s0,0,0,0l-1.8,1-.3-.4ZM132.3,44.6l1.7-1c0,0,0,0,0-.2l.2.3-1.8,1.1-.2-.2ZM132.7,45.2l1.9-1.1.4.4-1.9,1.2-.4-.5ZM133.3,46l2-1.3.7.7-2.3,1.2-.5-.6ZM134,47l2.3-1.2.4.4-2.2,1.5-.5-.7ZM134.7,48l2.2-1.5.2.2-2.1,1.7-.3-.4ZM135.3,48.7l2.1-1.7.5.6-2.4,1.5-.3-.4ZM135.7,49.4l2.4-1.6.3.3-2.4,1.6-.2-.3ZM136.2,50l2.4-1.7.4.5c-1.3,1-1.9,1.6-2.3,1.9l-.5-.7ZM137,51.1c.6-.5,1.6-1.3,2.3-1.9l.3.3-2.3,2-.3-.4ZM137.5,51.8l2.5-2,.4.5-2.4,2.2-.5-.6ZM139.7,54.8l-.7-1,1.3-1-.6,2ZM140.5,52.2l-1.8,1.3-.5-.7,2.5-2.2.2.3-.4,1.3ZM126.9,31.5l14.8,16.8-.6,2.1-7.8-8.5c.1,0,.1-.2,0-.3,0,0-.2,0-.3,0l-1-1c0,0,0-.2,0-.3,0,0-.2,0-.3,0h-.1l-.6-.5v-.4h-.3l-.3-.3h.1c0-.2,0-.3,0-.4,0,0-.2-.1-.3,0h0c0,0-.2-.1-.2-.1v-.3s-.2,0-.3,0l.3-.2s.1-.2,0-.3c0,0-.2,0-.3,0l-.3.2h0c0,0-1.2.8-1.2.8l-.2-.2,1.2-.9h0c0-.1.1-.2,0-.3,0,0-.2-.1-.3,0h0,0c0,0-1.2.9-1.2.9v-.2c-.1,0,.8-.9.8-.9,0,0-.2-.1-.2-.1l.3-.3v-.3h-.5c0,.1.2.3.2.3l-1,1-.3-.3.8-.8-.2-.2.3-.3v-.3h-.3l-.2.2.2.2-.9.9-.5-.6.8-.6h-.1c0-.1.4-.4.4-.4,0,0,0-.2,0-.3,0,0-.2,0-.3,0l-.2.2h.1c0,.1-.9.9-.9.9l-.4-.5.6-.6h-.1c0-.1.4-.5.4-.5,0,0,0-.2,0-.3,0,0-.2-.1-.3,0l-.3.3.2.2-.7.6-.4-.5.4-.4-.2-.2.5-.5v-.3h-.3l-.3.3.3.3-.6.5-.4-.5.3-.3-.3-.3.6-.7c.4,0,1.8-1.1,1.8-1.1ZM124.3,31.2c.6,0,1,.3,1.3.7l-.7.7h-.1v-.2c0,0-.4.3-.4.3l.2.2-.5.5v-.2c-.1,0-.1-1-.1-1,0,0-.6.1-1,0s.7-.9,1.3-.9ZM109.3,49.8c2.6-.3,5.1,1.7,5.4,4.4s-1.6,5.3-4.2,5.6c-2.7.3-5.1-1.7-5.4-4.4-.3-2.7,1.6-5.3,4.2-5.6ZM106.5,37.6l.4.5-.4.4-.4-.5.4-.4ZM105.8,38.3l.4.5-.4.4-.4-.5.4-.4ZM105.1,39l.4.5-.6.6-.4-.5.6-.6ZM103.9,40.1l.2-.3.4.5-.3.3-.4-.5h.1ZM103.6,40.4l.4.5-.3.3-.4-.4h0l.4-.4ZM102.9,41.1l.4.4-.6.6-.4-.4.6-.6ZM102,42l.4.4-.7.7-.4-.4.7-.7ZM100.9,43.1h0c0-.1.4.3.4.3l-.6.6-.4-.4.5-.5ZM99.9,44.1l.2-.2.3.4-.2.2.3.3.2-.2.8.9h.3s.1-.2,0-.3l-.8-.9.6-.6.8.9h.3v-.3l-.8-.9.7-.7.7.8h.3v-.3l-.7-.8.7-.6.7.7h.3v-.3l-.7-.7.3-.3.6.7h.3s.1-.2,0-.3l-.6-.8.3-.3.9,1h.3v-.3l-.9-1,.6-.6.9,1h.3s.1-.2,0-.3l-.9-1.1.4-.4,1,1.1h.3v-.3l-1-1.2.4-.4.5.6h.3s.1-.2,0-.3l-.5-.6-.2.2-.4-.5h0c0,0,.7-.8.7-.8l.4.6.2-.2.6.9h.2s0-.2,0-.3l-.7-.8h0s-.4-.6-.4-.6l.3-.3.4.5h0s.6.9.6.9h.2s0-.2,0-.3l-.7-1h0s-.2-.4-.2-.4l.4-.4.4.6h0s.4.6.4.6h.3s0-.2,0-.3l-.7-.8h.1c0-.1-.2-.4-.2-.4l.6-.6.5.6h-.1c0,.1.6.8.6.8h.3s.1-.2,0-.3l-.9-1.1h.1c0-.1-.2-.3-.2-.3l.3-.3.5.5h-.1c0,.1.7.9.7.9h.3v-.3l-1-1.1h0s-.2-.3-.2-.3h0l.3-.4.5.6h0s.6.7.6.7h.3v-.3l-.6-.6h0s-.5-.6-.5-.6l.5-.5.2.2h0s1,1.2,1,1.2h.3v-.3l-.7-.8h0s-.5-.6-.5-.6l.3-.3.5.6h0s.3.5.3.5h.3s0-.2,0-.3l-.7-.8h0c0,0-.2-.3-.2-.3l.3-.3.5.6h0c0,0,.3.4.3.4h.3v-.3l-.7-.8h0c0,0,0-.2,0-.2l.4-.4.5.6h0c0,0,0,.2,0,.2h.3s0-.2,0-.3l-.5-.6h0c0-.1,0-.2,0-.2l.2-.2h.1c0,0,0,0,0,0l.6.5h.3v-.3h0c0,0,0,0,0,0l-.5-.5.5-.5v.2c.1,0,.2,0,.2,0l.5.6h.3v-.3h0c0-.1,0-.1,0-.1l-.6-.6.3-.3v.2c.1,0,.2,0,.2,0l.4.4h.3v-.2l-.6-.6.5-.5.4.6h.3s0,0,0-.1h0s-.5-.7-.5-.7h0c0,0,.3-.4.3-.4v.2c.1,0,.3-.2.3-.2l.3.3h.3s0,0,0,0l-.5-.6.5-.5h0c0,0,.2,0,.2,0l.3.4h.3c-.2-.3-.5-.6-.5-.6h0l.2-.2.2.2h0c0-.1,0-.1,0-.1h.2l-.3-.4h.1l.2-.2.2.2h.1c0-.1.4.5.4.5h.2s0-.2,0-.3l-.5-.7h0s0,0,0,0h0s.3-.3.3-.3l.7.8h.3v-.3l-.7-.8,1,.9s.8.9.8,1.5l.8,1.2c0,.6-1.1,1.1-1.1,1.1,0,0-16.3,16.2-17.8,17.4-.4.3-.8.3-1.2.3l-2.2-2.5v-.2ZM119.6,24.6h.1l.5.5h-.1l-.5-.5Z"></path>
  </g>
</symbol>
<symbol viewBox="0 0 23 22" id="linkedin">
<path d="M20.8775 0H2.1302C1.23215 0 0.505981 0.708984 0.505981 1.58555V20.4102C0.505981 21.2867 1.23215 22 2.1302 22H20.8775C21.7755 22 22.506 21.2867 22.506 20.4145V1.58555C22.506 0.708984 21.7755 0 20.8775 0ZM7.03293 18.7473H3.76731V8.2457H7.03293V18.7473ZM5.40012 6.81484C4.35168 6.81484 3.5052 5.96836 3.5052 4.92422C3.5052 3.88008 4.35168 3.03359 5.40012 3.03359C6.44426 3.03359 7.29075 3.88008 7.29075 4.92422C7.29075 5.96406 6.44426 6.81484 5.40012 6.81484ZM19.2532 18.7473H15.9919V13.6426C15.9919 12.4266 15.9704 10.8582 14.2947 10.8582C12.5974 10.8582 12.3396 12.1859 12.3396 13.5566V18.7473H9.08255V8.2457H12.2107V9.68086H12.2536C12.6876 8.85586 13.7532 7.98359 15.3388 7.98359C18.6431 7.98359 19.2532 10.1578 19.2532 12.9852V18.7473Z"></path>
</symbol>
<symbol viewBox="0 0 24 24" id="mailbox">
  <path d="M18,4H6.5c-3,0-5.5,2.5-5.5,5.5v7.5c0,1.7,1.3,3,3,3h16c1.7,0,3-1.3,3-3v-8c0-2.8-2.2-5-5-5ZM3,17v-7.5c0-2,1.5-3.5,3.5-3.5s3.5,1.5,3.5,3.5v7.5c0,.6-.4,1-1,1h-5c-.6,0-1-.4-1-1ZM21,17c0,.6-.4,1-1,1h-8.2c.1-.3.2-.6.2-1v-7.5c0-1.3-.5-2.5-1.3-3.5h7.3c1.7,0,3,1.3,3,3v8Z"></path>
  <path d="M18,8h-3c-.6,0-1,.4-1,1s.4,1,1,1h2v1c0,.6.4,1,1,1s1-.4,1-1v-2c0-.6-.4-1-1-1Z"></path>
  <path d="M7,9h-1c-.6,0-1,.4-1,1s.4,1,1,1h1c.6,0,1-.4,1-1s-.4-1-1-1Z"></path>
</symbol>
<symbol viewBox="0 0 24 24" id="map-pinned">  
  <path d="M15,8c0-1.7-1.3-3-3-3s-3,1.3-3,3,1.3,3,3,3,3-1.3,3-3ZM11,8c0-.6.4-1,1-1s1,.4,1,1-.4,1-1,1-1-.4-1-1Z"></path>
  <path d="M22.9,20.4l-2-6c-.3-.8-1-1.4-1.9-1.4h-1.8c1-1.5,1.8-3.3,1.8-5,0-3.9-3.1-7-7-7s-7,3.1-7,7,.8,3.5,1.8,5h-1.8c-.9,0-1.6.5-1.9,1.4l-2,6c-.2.5-.1,1,.1,1.5s.6.8,1.2,1c.2,0,.4.1.6.1h18c.5,0,1-.2,1.4-.6.4-.4.6-.9.6-1.4,0-.2,0-.4-.1-.6ZM12,3c2.8,0,5,2.2,5,5s-3.7,6.9-5,8c-1.3-1.1-5-4.8-5-8s2.2-5,5-5ZM3,21l2-6h3.3c.9,1.1,1.9,2,2.5,2.6.3.3.8.4,1.2.4s.9-.1,1.3-.5c.6-.6,1.5-1.4,2.5-2.5h3.3l2,6H3Z"></path>
</symbol>
<symbol viewBox="0 0 37 17" id="menu_icon">
  <path d="M1,2h35c.6,0,1-.4,1-1S36.6,0,36,0H1C.4,0,0,.4,0,1s.4,1,1,1Z"></path>
  <path d="M36,7H8c-.6,0-1,.4-1,1s.4,1,1,1h28c.6,0,1-.4,1-1s-.4-1-1-1Z"></path>
  <path d="M36,15H1c-.6,0-1,.4-1,1s.4,1,1,1h35c.6,0,1-.4,1-1s-.4-1-1-1Z"></path>
</symbol>
<symbol viewBox="0 0 24 24" id="phone-call">  
  <path d="M20.4,13.9c-.9-.1-1.8-.3-2.6-.6-1.1-.4-2.3-.1-3.2.7l-.7.7c-1.8-1.2-3.4-2.7-4.6-4.6l.7-.7c.8-.8,1.1-2.1.7-3.2-.3-.8-.5-1.7-.6-2.6-.2-1.5-1.5-2.6-3-2.6h-3c0,0-.2,0-.3,0-.8,0-1.5.5-2,1.1-.5.6-.8,1.4-.7,2.2.3,3.2,1.5,6.4,3.2,9.1,1.6,2.5,3.8,4.7,6.3,6.3,2.7,1.8,5.8,2.9,9.1,3.2,0,0,.2,0,.3,0,.8,0,1.6-.3,2.1-.9.6-.6.9-1.3.9-2.1v-3c0-1.5-1.1-2.8-2.6-3ZM21,16.9v3c0,.3-.1.5-.3.7s-.4.3-.7.3h0c-2.9-.3-5.7-1.3-8.2-2.9-2.3-1.4-4.2-3.4-5.7-5.7-1.6-2.5-2.6-5.3-2.9-8.2,0-.3,0-.5.2-.7.2-.2.4-.3.8-.4h3c.5,0,.9.4,1,.9.1,1,.4,2.1.8,3,.1.4,0,.8-.2,1.1l-1.3,1.3c-.3.3-.4.8-.2,1.2,1.5,2.7,3.7,4.9,6.4,6.4.4.2.9.2,1.2-.2l1.3-1.3c.3-.3.7-.4,1.1-.2,1,.4,2,.6,3,.8.5,0,.9.5.9,1h0Z"></path>
  <path d="M13.9,3c3.7.4,6.7,3.4,7.1,7.1,0,.5.5.9,1,.9s0,0,.1,0c.5,0,.9-.6.9-1.1-.5-4.6-4.3-8.3-8.9-8.8-.5,0-1,.3-1.1.9,0,.5.3,1,.9,1.1Z"></path>
  <path d="M14.2,5c-.5-.1-1.1.2-1.2.8-.1.5.2,1.1.8,1.2,1.6.3,2.9,1.6,3.2,3.2,0,.5.5.8,1,.8s.1,0,.2,0c.5,0,.9-.6.8-1.2-.4-2.4-2.3-4.3-4.7-4.8Z"></path>
</symbol>
<symbol viewBox="0 0 800 800" id="restaurant">
  <path d="M140.73,126.93l223.9,223.9-94.27,94.3-129.67-129.67c-52.05-52.07-52.05-136.47,0-188.53h.03ZM475.6,404.87l-28.47,28.47,235.7,235.7-47.13,47.13-235.7-235.67-235.7,235.67-47.13-47.13,311.3-311.3c-19.6-48.57.67-118.5,54-171.9,65.1-65.07,154.8-80.9,200.37-35.33s29.73,135.27-35.33,200.33c-53.4,53.4-123.33,73.67-171.9,54.03h0Z"></path>
</symbol>
<symbol viewBox="0 0 800 800" id="scales">
  <path d="M200,66.67c0,17.1,16.33,33.33,33.33,33.33h333.33c17.1,0,33.33-16.33,33.33-33.33h66.67c0,55.23-44.77,100-100,100h-133.33l.03,68.73c131.53,16.43,233.3,128.63,233.3,264.6v200c0,18.4-14.93,33.33-33.33,33.33H166.67c-18.4,0-33.33-14.93-33.33-33.33v-200c0-136,101.8-248.2,233.33-264.6v-68.73h-133.33c-55.33,0-100-44.67-100-100h66.67ZM400,366.67c-73.67,0-133.33,59.67-133.33,133.33s59.67,133.33,133.33,133.33,133.33-59.67,133.33-133.33c0-24.73-6.73-47.87-18.47-67.73l-91.3,91.33-3.13,2.73c-13.07,10.17-32,9.27-44-2.77-13-13-13-34.13,0-47.13l91.3-91.33c-19.87-11.67-43-18.43-67.73-18.43Z"></path>
</symbol>
<symbol viewBox="0 0 24 24" id="tiktok">  
  <path d="M18.7,6.1c-.1,0-.3-.2-.4-.2-.4-.3-.7-.5-1-.9-.8-.9-1.1-1.8-1.2-2.4h0c0-.5,0-.9,0-.9h-3.5v13.7c0,.2,0,.4,0,.5,0,0,0,0,0,0,0,0,0,0,0,0h0c0,1-.6,1.9-1.5,2.4-.4.3-.9.4-1.5.4-1.6,0-3-1.3-3-3s1.3-3,3-3c.3,0,.6,0,.9.1v-3.6c-1.8-.2-3.7.3-5.1,1.5-.6.5-1.1,1.2-1.5,1.9-.1.3-.7,1.3-.8,3,0,1,.2,1.9.4,2.3h0c0,.2.4,1.1,1,1.8.4.6,1,1,1.5,1.4h0s0,0,0,0c1.7,1.2,3.6,1.1,3.6,1.1.3,0,1.4,0,2.7-.6,1.4-.7,2.2-1.6,2.2-1.6.5-.6.9-1.3,1.2-2,.3-.8.4-1.8.4-2.3v-7.3s.6.4.6.4c0,0,.8.5,2.1.9.9.2,2.2.3,2.2.3v-3.5c-.4,0-1.3,0-2.2-.5Z"></path>
</symbol>
<symbol viewBox="0 0 800 800" id="time">
  <path d="M400,733.33c-184.1,0-333.33-149.23-333.33-333.33S215.9,66.67,400,66.67s333.33,149.23,333.33,333.33-149.23,333.33-333.33,333.33ZM433.33,400v-166.67h-66.67v233.33h200v-66.67h-133.33Z"></path>
</symbol>
<symbol viewBox="0 0 45 23.74" id="uk">
  <g>
   <polygon fill="#005BBB" points="0,11.87 45,11.87 45,0 0,0 "></polygon>
   <polygon fill="#FFD500" points="0,23.74 45,23.74 45,11.87 0,11.87 "></polygon>
  </g>
</symbol>
<symbol viewBox="0 0 1804.7 1804.7" id="ukrsepro">
  <path d="M902.3,1721.7c-452.5,0-819.4-366.9-819.4-819.4S449.7,82.9,902.3,82.9c231.9,0,441.3,96.3,590.4,251.1l59.6-57.4c-4-4.2-8-8.2-12-12.3-352.4-352.4-923.7-352.4-1276.1,0-352.4,352.4-352.4,923.7,0,1276.1s923.7,352.4,1276.1,0c2.5-2.5,6.2-6.3,11.1-11.3l-59.6-57.6c-149,154.2-358.1,250.2-589.5,250.2Z"></path>
  <path d="M1081.98,938.96l-176.72-654.85-1.06.14-1.06-.14-176.72,654.85-462.33-176.39-.53.98-.7.75,640.5,755.2.84-.31.84.31,640.5-755.2-.7-.76-.53-.98-462.33,176.39ZM905.3,1223.22V292.7l174.71,647.43-174.71,283.1ZM726.36,941.29l173.99,281.66-434.85-314.68-194.38-140.67,455.25,173.69ZM905.3,1227.66l363.57-263.1,269.11-194.74-632.68,745.98v-288.14Z"></path>
</symbol>
<symbol viewBox="0 0 24 24" id="wheat">
    <path d="M23,4V2c0-.6-.4-1-1-1h-2c-2.1,0-3.8,1.3-4.6,3,0,0-.1-.1-.2-.2l-1.5-1.5c-.4-.4-1-.4-1.4,0l-1.5,1.5h0c-.7.7-1.1,1.5-1.2,2.4-.4-.2-.9-.2-1.2.1l-1.5,1.5h0c-.7.7-1.1,1.5-1.2,2.4-.4-.2-.9-.2-1.2.1l-1.5,1.5h0c-1.7,1.8-1.7,4.6,0,6.4l.8.8-2.3,2.3c-.4.4-.4,1,0,1.4s.5.3.7.3.5,0,.7-.3l2.3-2.3.8.8c.9.9,2,1.3,3.2,1.3s2.3-.4,3.2-1.3l1.5-1.5c.2-.2.3-.4.3-.7s0-.4-.2-.5c.9-.2,1.7-.6,2.4-1.2l1.5-1.5c.2-.2.3-.4.3-.7s0-.4-.2-.5c.9-.2,1.7-.6,2.4-1.2l1.5-1.5c.2-.2.3-.4.3-.7s-.1-.5-.3-.7l-1.5-1.5s0,0,0,0c0,0-.1-.1-.2-.2,1.8-.8,3-2.5,3-4.6ZM12.2,5.2l.8-.8.8.8c1,1,1,2.6,0,3.5l-.7.7h-.1c0,.1-.8-.7-.8-.7-1-1-1-2.6,0-3.5ZM8.2,9.2l.8-.8.8.8c1,1,1,2.6,0,3.5l-.7.7-.2.2-.8-.8c-1-1-1-2.6,0-3.5ZM4.2,13.2l.8-.8.8.8c1,1,1,2.6,0,3.5l-.8.8-.8-.8c-1-1-1-2.6,0-3.5ZM10.8,19.8c-1,1-2.6,1-3.5,0l-.8-.8.8-.8c1-1,2.6-1,3.5,0l.8.8-.8.8ZM14.8,15.8c-1,1-2.6,1-3.5,0l-.8-.8.8-.8c1-1,2.6-1,3.5,0l.8.8-.8.8ZM18.8,11.8c-1,1-2.6,1-3.5,0l-.8-.8.8-.8h0c1-1,2.6-1,3.5,0l.8.8-.8.8ZM21,4c0,1.7-1.3,3-3,3h-1v-1c0-1.7,1.3-3,3-3h1v1Z"></path>
</symbol>
<symbol viewBox="0 0 24 24" id="x-mark">  
  <path d="M13.5,12l5.1-5.1c.4-.4.4-1.1,0-1.5-.4-.4-1.1-.4-1.5,0l-5.1,5.1-5.1-5.1c-.4-.4-1.1-.4-1.5,0-.4.4-.4,1.1,0,1.5l5.1,5.1-5.1,5.1c-.4.4-.4,1.1,0,1.5.4.4,1.1.4,1.5,0l5.1-5.1,5.1,5.1c.2.2.5.4.8.4s.6-.1.8-.4c.4-.4.4-1.1,0-1.5,0,0-5.1-5.1-5.1-5.1Z"></path>
</symbol>
<symbol viewBox="0 0 25 24" id="x">
<path d="M18.8323 1.90381H22.2057L14.8357 10.3273L23.506 21.7898H16.7172L11.4 14.8378L5.31593 21.7898H1.94041L9.82342 12.7799L1.50598 1.90381H8.46709L13.2734 8.25814L18.8323 1.90381ZM17.6483 19.7706H19.5176L7.45138 3.81694H5.44544L17.6483 19.7706Z"></path>
</symbol>
</defs>
</svg>