<?xml version="1.0" encoding="UTF-8"?>
<svg xmlns="http://www.w3.org/2000/svg" version="1.1" xmlns:xlink="http://www.w3.org/1999/xlink" xmlns:svgjs="http://svgjs.dev/svgjs" width="24" height="24" viewBox="0 0 24 24">
    <style>
        @media (prefers-color-scheme: light) {
            path {
                fill: #224077;
            }
        }
        
        @media (prefers-color-scheme: dark) {
            path {
                fill: #d95530;
            }
        }
    </style>
    
    <path d="M23,4V2c0-.6-.4-1-1-1h-2c-2.1,0-3.8,1.3-4.6,3,0,0-.1-.1-.2-.2l-1.5-1.5c-.4-.4-1-.4-1.4,0l-1.5,1.5h0c-.7.7-1.1,1.5-1.2,2.4-.4-.2-.9-.2-1.2.1l-1.5,1.5h0c-.7.7-1.1,1.5-1.2,2.4-.4-.2-.9-.2-1.2.1l-1.5,1.5h0c-1.7,1.8-1.7,4.6,0,6.4l.8.8-2.3,2.3c-.4.4-.4,1,0,1.4s.5.3.7.3.5,0,.7-.3l2.3-2.3.8.8c.9.9,2,1.3,3.2,1.3s2.3-.4,3.2-1.3l1.5-1.5c.2-.2.3-.4.3-.7s0-.4-.2-.5c.9-.2,1.7-.6,2.4-1.2l1.5-1.5c.2-.2.3-.4.3-.7s0-.4-.2-.5c.9-.2,1.7-.6,2.4-1.2l1.5-1.5c.2-.2.3-.4.3-.7s-.1-.5-.3-.7l-1.5-1.5s0,0,0,0c0,0-.1-.1-.2-.2,1.8-.8,3-2.5,3-4.6ZM12.2,5.2l.8-.8.8.8c1,1,1,2.6,0,3.5l-.7.7h-.1c0,.1-.8-.7-.8-.7-1-1-1-2.6,0-3.5ZM8.2,9.2l.8-.8.8.8c1,1,1,2.6,0,3.5l-.7.7-.2.2-.8-.8c-1-1-1-2.6,0-3.5ZM4.2,13.2l.8-.8.8.8c1,1,1,2.6,0,3.5l-.8.8-.8-.8c-1-1-1-2.6,0-3.5ZM10.8,19.8c-1,1-2.6,1-3.5,0l-.8-.8.8-.8c1-1,2.6-1,3.5,0l.8.8-.8.8ZM14.8,15.8c-1,1-2.6,1-3.5,0l-.8-.8.8-.8c1-1,2.6-1,3.5,0l.8.8-.8.8ZM18.8,11.8c-1,1-2.6,1-3.5,0l-.8-.8.8-.8h0c1-1,2.6-1,3.5,0l.8.8-.8.8ZM21,4c0,1.7-1.3,3-3,3h-1v-1c0-1.7,1.3-3,3-3h1v1Z"></path>
</svg>
